<svg id="Capa_1" enable-background="new 0 0 512 512" height="512" viewBox="0 0 512 512" width="512" xmlns="http://www.w3.org/2000/svg"><g><path d="m512 256c0 8.72-.44 17.34-1.29 25.83-1.83 18.32-33.38 29.021-38.88 45.991-27.91 86.27-72.982 142.679-162.872 161.739-9.85 2.09-19.91 3.61-30.14 4.53-7.64.69-17.813-34.897-25.633-34.897-1.88 0-3.76-.02-5.63-.06-48.23-1.04-70.684 5.235-108.804-18.945-1.84-1.16-3.65-2.34-5.45-3.55-8.04-5.39-15.76-11.23-23.12-17.47-55.38-46.95-69.182-76.207-69.182-154.487 0-22.32-5.217-46.008.153-66.647 2.27-8.72 4.99-17.26 8.13-25.59 3.55-9.43-25.282-25.244-20.672-34.104 15.43-29.79 36.55-56.15 61.91-77.67 9.01-7.63 18.55-14.66 28.57-21.01 18.61-11.81 38.84-21.27 60.29-27.99 24.19-7.58 49.93-11.67 76.62-11.67 141.38 0 256 114.62 256 256z" fill="#b2e5f7"/><path d="m113.64 121.97v297.199c-32.02-21.47-58.94-.348-78.52-33.678-22.32-37.991-35.12-82.251-35.12-129.491 0-15.67 1.4-31 4.1-45.88 1.146-6.332 2.526-12.582 4.129-18.74 2.27-8.722 14.171-21.396 17.313-29.725l70.018-31.535z" fill="#e89f4b"/><path d="m113.64 210.94v229.13c-8.005-5.367-15.691 17.546-23.024 11.334-21.998-18.636-40.811-40.916-55.496-65.914v-154.556c0-11.042 8.952-19.994 19.994-19.994z" fill="#598f98"/><path d="m110.09 162.39-105.99 47.73c1.146-6.332 2.526-12.582 4.129-18.74 2.27-8.722 19.093-18.267 22.234-26.596l65.097-34.664z" fill="#d88330"/><path d="m121.85 140.21-113.62 51.17c2.27-8.72 4.99-17.26 8.13-25.59 3.55-9.43 7.64-18.59 12.25-27.45l76.82-34.61z" fill="#4e5959"/><path d="m510.71 281.83c-12.141 121.172-108.788 217.444-230.13 229.005-8.089.771-16.289-17.765-24.58-17.765-1.88 0-3.76-.02-5.63-.06v-211.18z" fill="#ededed"/><path d="m499.61 323.07v11.8c-1.76 5.46-3.71 10.83-5.83 16.12-2.02 5.08-4.21 10.07-6.55 14.98-4.56 9.58-9.71 18.84-15.4 27.72-3.26 5.12-6.71 10.12-10.33 14.98-7.3 9.81-15.28 19.07-23.89 27.73-5.17 5.23-10.59 10.22-16.21 14.98-12.31 10.44-25.63 19.74-39.78 27.72-10.06 5.68-20.54 10.7-31.39 14.99-13.13 5.21-26.79 9.35-40.88 12.34v-183.36z" fill="#d1d1d1"/><g fill="#e0e0e0"><path d="m471.83 393.69c-3.26 5.12-6.71 10.12-10.33 14.98h-152.15v-14.98z"/><path d="m493.78 350.99c-2.02 5.08-4.21 10.07-6.55 14.98h-177.88v-14.98z"/><path d="m437.61 436.4c-5.17 5.23-10.59 10.22-16.21 14.98h-112.05v-14.98z"/><path d="m381.62 479.1c-10.06 5.68-20.54 10.7-31.39 14.99h-40.88v-14.99z"/></g><path d="m279.21 11.67v499.29c-7.64.69-15.39 1.04-23.21 1.04-1.88 0-3.76-.02-5.63-.06-4.33-.09-8.64-.29-12.92-.61-5.83-.41-11.6-1.02-17.32-1.82-4.64-.65-9.25-1.43-13.8-2.33-3.39-.66-6.76-1.4-10.1-2.2-.73-.18-1.47-.35-2.2-.53-14.39-3.58-28.29-8.37-41.59-14.27-13.6-6.02-26.57-13.19-38.8-21.39-8.04-5.39-15.76-11.23-23.12-17.47v-439.65z" fill="#f4d84f"/><path d="m119.09 11.67v460.67c-1.84-1.16-3.65-2.34-5.45-3.55-8.04-5.39-15.76-11.23-23.12-17.47v-439.65z" fill="#efc24d"/><path d="m203.55 113.66v154.77h75.66v39.99h-93.4c-12.29 0-22.26-9.97-22.26-22.25v-190.26c0-12.29 9.97-22.25 22.26-22.25h93.4v40z" fill="#efc24d"/><path d="m209.775 79.885h282.925v188.204h-282.925z" fill="#6aa2b2"/><path d="m209.775 79.885h282.925v42.085h-282.925z" fill="#598f98"/><path d="m308.958 86.926h24.174v176.6h-24.174z" fill="#ededed"/><path d="m425.351 86.926h24.174v176.6h-24.174z" fill="#ededed"/><path d="m219.397 97.815v154.77h274.145c9.021 0 16.335 7.313 16.335 16.335v7.32c0 9.021-7.313 16.335-16.335 16.335h-291.893c-12.289 0-22.251-9.962-22.251-22.251v-190.258c0-12.289 9.962-22.251 22.251-22.251h291.894c9.021 0 16.335 7.313 16.335 16.335v7.331c0 9.021-7.313 16.335-16.335 16.335h-274.146z" fill="#e89f4b"/><path d="m221.077 292.566h-19.43c-12.29 0-22.25-9.96-22.25-22.25v-190.25c0-12.29 9.96-22.26 22.25-22.26h19.43c-12.29 0-22.25 9.97-22.25 22.26v190.25c0 12.29 9.96 22.25 22.25 22.25z" fill="#d88330"/><g><path d="m222.46 507.18-2.33 2.33c-23.77-3.33-46.49-9.93-67.69-19.33-5.71-9.15-4.81-21.55 3.4-29.76 10.64-10.64 28.32-9.01 36.84 3.39z" fill="#78b57f"/><path d="m232.24 455.46-9.61 51.72h-16.3c-3.39-.66-6.76-1.4-10.1-2.2-.73-.18-1.47-.35-2.2-.53l-9.09-48.99c-2.75-14.8 8.6-28.45 23.65-28.45 15.04 0 26.4 13.65 23.65 28.45z" fill="#97d6a8"/><path d="m257.94 497.26-20.49 14.07c-5.83-.41-11.6-1.02-17.32-1.82-8.1-1.14-16.07-2.65-23.9-4.53l28.26-41.17c8.52-12.4 26.21-14.03 36.85-3.39s9.01 28.32-3.4 36.84z" fill="#78b57f"/></g></g></svg>