<svg id="Capa_1" enable-background="new 0 0 512 512" height="512" viewBox="0 0 512 512" width="512" xmlns="http://www.w3.org/2000/svg"><g><path d="m512 256c0 6.96-.28 13.86-.83 20.68-10.52 131.71-120.75 158.04-255.17 158.04-111.7 0-195.362 5.261-230.312-94.499-7.1-20.24-23.058-41.171-24.848-63.371 0 0 0 0 0-.01-.56-6.87-.84-13.82-.84-20.84 0-141.38 114.62-256 256-256 52.93 0 102.11 16.07 142.93 43.59 40.21 27.11 72.31 65.34 91.88 110.28 13.63 31.29 21.19 65.83 21.19 102.13z" fill="#6aa2b2"/><path d="m233.082 162.184c0-14.638 11.867-26.505 26.505-26.505h16.662c14.638 0 26.505-11.867 26.505-26.505 0-14.638-11.867-26.505-26.505-26.505h-125.848c-14.638 0-26.505 11.867-26.505 26.505 0 14.638-11.867 26.505-26.505 26.505h-31.123c-14.638 0-26.505 11.867-26.505 26.505 0 14.638 11.867 26.505 26.505 26.505h75.578c14.638 0 26.505 11.867 26.505 26.505 0 14.638 11.867 26.505 26.505 26.505h134.16c14.638 0 26.505-11.867 26.505-26.505 0-14.638-11.867-26.505-26.505-26.505h-69.428c-14.639 0-26.506-11.867-26.506-26.505z" fill="#598f98"/><path d="m490.81 153.87h-8.81c-7.32 0-13.95-2.97-18.74-7.76-4.8-4.8-7.77-11.43-7.77-18.74 0-14.64-11.87-26.51-26.5-26.51h-75.58c-14.64 0-26.51-11.87-26.51-26.5v-.01c0-14.63 11.87-26.5 26.51-26.5h31.12c5.31 0 10.25-1.56 14.4-4.26 40.21 27.11 72.31 65.34 91.88 110.28z" fill="#598f98"/><g><path d="m127.717 205.572h-102.029v134.649l102.029 98.49z" fill="#e0e0e0"/><path d="m25.688 205.572h102.029v27.779h-102.029z" fill="#d1d1d1"/><path d="m25.688 205.572h27.22v134.649h-27.22z" fill="#d1d1d1"/><path d="m125.597 171.13-49.889-24.866-49.89 24.866-22.884 27.723c-6.839 8.285-.946 20.791 9.798 20.791h125.95c10.743 0 16.636-12.506 9.798-20.791z" fill="#7761b5"/><path d="m25.818 171.13 37.48-70.356c5.292-9.933 19.528-9.933 24.819 0l37.48 70.356" fill="#614fa3"/><path d="m55.082 198.854c-1.94 8.29-.27 20.79 2.78 20.79h-45.13c-10.75 0-16.64-12.5-9.8-20.79l22.88-27.72 49.89-24.87-14.14 24.87z" fill="#614fa3"/><path d="m75.708 93.32c-1.38 0-2.77 2.48-3.52 7.45l-10.62 70.36h-35.75l37.48-70.36c2.65-4.97 7.53-7.45 12.41-7.45z" fill="#4f408e"/><path d="m94.427 340.221h-35.449v-77.607c0-9.789 7.936-17.725 17.725-17.725 9.789 0 17.725 7.936 17.725 17.725v77.607z" fill="#4e5959"/></g><g><path d="m488.306 205.572h-102.028v233.139l102.028-100.681z" fill="#e0e0e0"/><path d="m386.278 205.572h102.029v27.779h-102.029z" fill="#d1d1d1"/><path d="m386.278 205.572h27.22v233.14h-27.22z" fill="#d1d1d1"/><path d="m486.186 171.13-49.889-24.866-49.889 24.866-22.883 27.723c-6.839 8.285-.946 20.791 9.798 20.791h125.95c10.743 0 16.636-12.506 9.798-20.791z" fill="#7761b5"/><path d="m386.407 171.13 37.48-70.356c5.292-9.933 19.528-9.933 24.819 0l37.48 70.356" fill="#614fa3"/><path d="m415.672 198.854c-1.94 8.29-.27 20.79 2.78 20.79h-45.13c-10.75 0-16.64-12.5-9.8-20.79l22.88-27.72 49.89-24.87-14.14 24.87z" fill="#614fa3"/><path d="m436.297 93.32c-1.38 0-2.77 2.48-3.52 7.45l-10.62 70.36h-35.75l37.48-70.36c2.65-4.97 7.53-7.45 12.41-7.45z" fill="#4f408e"/><path d="m455.017 340.221h-35.449v-77.607c0-9.789 7.936-17.725 17.725-17.725 9.789 0 17.725 7.936 17.725 17.725v77.607z" fill="#4e5959"/></g><g><path d="m188.528 151.436h137.645v314.524h-137.645z" fill="#e0e0e0"/><path d="m188.528 151.436h137.645v37.476h-137.645z" fill="#d1d1d1"/><path d="m188.528 151.436h36.722v314.524h-36.722z" fill="#d1d1d1"/><path d="m323.312 104.972-67.305-33.546-67.305 33.546-30.871 37.401c-9.226 11.177-1.276 28.049 13.218 28.049h169.917c14.493 0 22.444-16.871 13.218-28.049z" fill="#c9535d"/><path d="m228.183 142.374c-2.617 11.184-.364 28.047 3.75 28.047h-60.884c-14.503 0-22.449-16.863-13.221-28.047l30.867-37.396 67.305-33.552-19.076 33.552z" fill="#b53e4e"/><path d="m188.703 104.972 50.563-94.916c7.139-13.401 26.345-13.401 33.483 0l50.563 94.916" fill="#b53e4e"/><path d="m256.008 0c-1.862 0-3.737 3.346-4.749 10.051l-14.327 94.921h-48.23l50.563-94.921c3.576-6.705 10.16-10.051 16.743-10.051z" fill="#a32a40"/><path d="m273.655 292.175h-32.61v-71.39c0-9.005 7.3-16.305 16.305-16.305 9.005 0 16.305 7.3 16.305 16.305z" fill="#4e5959"/></g><path d="m511.17 276.68c-5.9 73.83-43.12 138.83-98.38 181.7-12.47 9.68-25.86 18.22-40.01 25.49-35.02 17.98-74.71 28.13-116.78 28.13-79.34 0-150.26-36.1-197.21-92.78-5.09-6.13-9.89-12.5-14.39-19.1-24.34-35.66-39.9-77.79-43.56-123.28 1.86-5.24 6.86-9 12.75-9h27.97c7.47 0 13.52 6.05 13.52 13.51v31.83c0 7.01 5.68 12.69 12.69 12.69h11c7 0 12.69-5.68 12.69-12.69v-31.83c0-7.46 6.05-13.51 13.51-13.51h27.98c7.46 0 13.51 6.05 13.51 13.51v31.83c0 7.01 5.69 12.69 12.7 12.69h10.99c7.01 0 12.69-5.68 12.69-12.69v-31.83c0-7.46 6.05-13.51 13.52-13.51h27.97c7.47 0 13.52 6.05 13.52 13.51v31.83c0 7.01 5.68 12.69 12.69 12.69h10.99c7.01 0 12.69-5.68 12.69-12.69v-31.83c0-7.46 6.06-13.51 13.52-13.51h27.98c7.46 0 13.51 6.05 13.51 13.51v31.83c0 7.01 5.68 12.69 12.69 12.69h11c7.01 0 12.69-5.68 12.69-12.69v-31.83c0-7.46 6.05-13.51 13.51-13.51h27.98c7.46 0 13.52 6.05 13.52 13.51v31.83c0 7.01 5.68 12.69 12.69 12.69h10.99c7.01 0 12.69-5.68 12.69-12.69v-31.83c0-7.46 6.05-13.51 13.52-13.51h27.97c5.83 0 10.79 3.68 12.69 8.84z" fill="#ededed"/><g fill="#e0e0e0"><g><path d="m173.428 325.873h10.995c7.009 0 12.691-5.682 12.691-12.691v-31.829c0-7.465 6.051-13.516 13.516-13.516h-14.273c-7.465 0-13.516 6.051-13.516 13.516v31.829c0 6.452-4.819 11.767-11.052 12.573.538.07 1.082.118 1.639.118z"/><path d="m82.044 325.873h10.995c7.009 0 12.691-5.682 12.691-12.691v-31.829c0-7.465 6.051-13.516 13.516-13.516h-14.273c-7.465 0-13.516 6.051-13.516 13.516v31.829c0 6.452-4.819 11.767-11.051 12.573.537.07 1.082.118 1.638.118z"/><path d="m264.812 325.873h10.995c7.009 0 12.691-5.682 12.691-12.691v-31.829c0-7.465 6.051-13.516 13.516-13.516h-14.274c-7.465 0-13.516 6.051-13.516 13.516v31.829c0 6.452-4.819 11.767-11.051 12.573.538.07 1.082.118 1.639.118z"/><path d="m356.196 325.873h10.995c7.009 0 12.691-5.682 12.691-12.691v-31.829c0-7.465 6.051-13.516 13.516-13.516h-14.273c-7.465 0-13.516 6.051-13.516 13.516v31.829c0 6.452-4.819 11.767-11.051 12.573.537.07 1.081.118 1.638.118z"/><path d="m447.58 325.873h10.995c7.009 0 12.691-5.682 12.691-12.691v-31.829c0-7.465 6.051-13.516 13.516-13.516h-14.273c-7.465 0-13.516 6.051-13.516 13.516v31.829c0 6.452-4.819 11.767-11.051 12.573.537.07 1.081.118 1.638.118z"/><path d="m27.86 267.84c-7.46 0-13.51 6.05-13.51 13.51v59.34c-7.1-20.24-11.72-41.64-13.51-63.84 0 0 0 0 0-.01 1.86-5.24 6.86-9 12.75-9z"/></g><path d="m119.492 390.17h-40.329c-5.943 0-10.761-4.818-10.761-10.761v-8.178c0-5.943 4.818-10.761 10.761-10.761h40.328c5.943 0 10.761 4.818 10.761 10.761v8.178c0 5.943-4.817 10.761-10.76 10.761z"/><path d="m150.417 429.82h-40.328c-5.943 0-10.761-4.818-10.761-10.761v-8.178c0-5.943 4.818-10.761 10.761-10.761h40.328c5.943 0 10.761 4.818 10.761 10.761v8.178c0 5.943-4.818 10.761-10.761 10.761z"/><path d="m307.126 411.402h-40.328c-5.943 0-10.761-4.818-10.761-10.761v-8.178c0-5.943 4.818-10.761 10.761-10.761h40.328c5.943 0 10.761 4.818 10.761 10.761v8.178c-.001 5.943-4.818 10.761-10.761 10.761z"/><path d="m276.201 449.57h-40.328c-5.943 0-10.761-4.818-10.761-10.761v-8.178c0-5.943 4.818-10.761 10.761-10.761h40.328c5.943 0 10.761 4.818 10.761 10.761v8.178c-.001 5.943-4.818 10.761-10.761 10.761z"/><path d="m412.79 458.38c-12.47 9.68-25.86 18.22-40.01 25.49h-8.85c-5.95 0-10.76-4.82-10.76-10.77v-8.17c0-5.95 4.81-10.76 10.76-10.76h40.32c3.48 0 6.58 1.65 8.54 4.21z"/><path d="m435.18 371.03h-40.328c-5.943 0-10.761-4.818-10.761-10.761v-8.178c0-5.943 4.818-10.761 10.761-10.761h40.328c5.943 0 10.761 4.818 10.761 10.761v8.178c0 5.943-4.818 10.761-10.761 10.761z"/><path d="m58.79 410.88v8.34c-5.09-6.13-9.89-12.5-14.39-19.1h3.63c5.94 0 10.76 4.82 10.76 10.76z"/></g></g></svg>