<svg id="Capa_1" enable-background="new 0 0 512 512" height="512" viewBox="0 0 512 512" width="512" xmlns="http://www.w3.org/2000/svg"><g><path d="m512 256c0 23.52-3.17 46.3-9.12 67.94-7.751 28.235-68.364 6.372-84.645 29.807-18.126 26.091 7.166 86.798-19.175 104.583-40.84 27.57-90.07 10.001-143.06 10.001s-102.22 17.569-143.06-10.001c-23.429-15.819-15.011-54.502-32.05-77.001-19.325-25.516-63.065-25.679-71.77-57.389-5.95-21.64-9.12-44.42-9.12-67.94s3.17-46.3 9.12-67.94c2.06-7.5 4.45-14.87 7.16-22.08 36.43-96.97 130.02-165.98 239.72-165.98s203.29 69.01 239.72 165.98c2.71 7.21 5.1 14.58 7.16 22.08 5.95 21.64 9.12 44.42 9.12 67.94z" fill="#b2e5f7"/><g><path d="m502.88 165.98-246.88 40.68-105.31-17.35-141.57-23.33 202.5-111.75 44.38-24.49z" fill="#934e3c"/><path d="m324.505 35.375h20v163.332h-20z" fill="#84382a" transform="matrix(.748 -.664 .664 .748 6.653 251.596)"/><path d="m235 67.4-79.97 122.13-4.34-.22-141.57-23.33 202.5-111.75z" fill="#84382a"/><path d="m95.928 107.261h162.741v20h-162.741z" fill="#70231b" transform="matrix(.664 -.748 .748 .664 -28.102 171.994)"/><path d="m502.88 165.98v157.96c-2.05 7.48-4.44 14.83-7.14 22.02-3.82 10.2-8.28 20.08-13.33 29.61-9.726 18.379-21.622 35.429-35.348 50.812-14.175 15.886-35.301 29.994-53.002 41.948h-276.12c-17.701-11.952-38.828-26.06-53.004-41.946-25.866-28.988-45.235-63.899-55.816-102.444v-157.96z" fill="#aa6951"/><path d="m9.116 221.883h493.764v29.603h-493.764z" fill="#84382a"/><path d="m174.88 165.98v302.35h-61.94c-34.84-23.53-63.58-55.4-83.35-92.76-5.05-9.53-9.51-19.41-13.33-29.61-2.7-7.19-5.09-14.54-7.14-22.02v-157.96z" fill="#934e3c"/><path d="m9.12 221.88h165.76v29.61h-165.76z" fill="#70231b"/><path d="m495.74 345.96c-3.82 10.2-8.28 20.08-13.33 29.61h-417.47v-29.61z" fill="#84382a"/><path d="m174.88 345.96v29.61h-145.29c-5.05-9.53-9.51-19.41-13.33-29.61z" fill="#70231b"/><path d="m187.76 20.156h136.48v47.242h-136.48z" fill="#934e3c"/><path d="m187.76 20.156h47.242v47.242h-47.242z" fill="#84382a"/><path d="m208.195 20.156h26.807v47.242h-26.807z" fill="#70231b"/><path d="m147.722 163.68-26.807 2.303v302.348h26.807z" fill="#70231b"/><path d="m364.769 163.68 26.807 2.303v302.348h-26.807z" fill="#84382a"/><path d="m277.006 20.156h26.807v47.242h-26.807z" fill="#84382a"/><path d="m295.531 276.12h-79.945c-28.111 0-50.899 22.788-50.899 50.899v141.312h181.743v-141.311c0-28.111-22.788-50.9-50.899-50.9z" fill="#70231b"/><path d="m184.686 468.331v-141.311c0-17.038 13.861-30.899 30.899-30.899h79.946c17.038 0 30.899 13.861 30.899 30.899v141.312h-141.744z" fill="#934e3c"/><path d="m236.906 296.12c-17.04 0-30.9 13.86-30.9 30.9v141.31h-21.32v-141.31c0-17.04 13.86-30.9 30.9-30.9z" fill="#84382a"/><path d="m244.14 279.926h22.837v188.405h-22.837z" fill="#70231b"/></g><path d="m447.06 426.38c-46.88 52.54-115.11 85.62-191.06 85.62s-144.18-33.08-191.06-85.62c2.07-.44 4.22-.67 6.42-.67 11.13 0 20.88 5.86 26.38 14.65 5.49-8.79 15.24-14.65 26.37-14.65s20.89 5.86 26.38 14.65c5.49-8.79 15.25-14.65 26.38-14.65s20.88 5.86 26.38 14.65c5.49-8.79 15.24-14.65 26.37-14.65s20.89 5.86 26.38 14.65c5.49-8.79 15.25-14.65 26.38-14.65s20.88 5.86 26.37 14.65c5.5-8.79 15.25-14.65 26.38-14.65s20.89 5.86 26.38 14.65c5.49-8.79 15.25-14.65 26.38-14.65s20.88 5.86 26.37 14.65c5.5-8.79 15.25-14.65 26.38-14.65 2.2 0 4.35.23 6.42.67z" fill="#97d6a8"/></g></svg>