<svg id="Capa_1" enable-background="new 0 0 512 512" height="512" viewBox="0 0 512 512" width="512" xmlns="http://www.w3.org/2000/svg"><g><path d="m512 256c0 13.16-.99 26.09-2.92 38.71-11.52 76.02-56.49 141.06-119.42 179.66-38.91 23.87-84.68-3.81-133.66-3.81s-94.75 27.68-133.66 3.81c-31.62-19.4-58.71-45.47-79.29-76.25-27.19-40.66-43.05-89.54-43.05-142.12 0-5.68.19-11.32.55-16.91 8.71-133.5 119.75-239.09 255.45-239.09 97.89 0 182.95 54.95 226.01 135.68 19.14 35.87 29.99 76.83 29.99 120.32z" fill="#b2e5f7"/><path d="m157.88 371.61c0 14.64-11.87 26.51-26.51 26.51h-88.32c-27.19-40.66-43.05-89.54-43.05-142.12 0-5.68.19-11.32.55-16.91h78.06c7.32 0 13.95 2.97 18.74 7.76s7.76 11.42 7.76 18.74c0 14.64-11.86 26.51-26.5 26.51h-16.66c-14.64 0-26.51 11.86-26.51 26.5s11.87 26.51 26.51 26.51h69.42c7.32 0 13.95 2.97 18.75 7.76 4.79 4.79 7.76 11.42 7.76 18.74z" fill="#d0f5ff"/><path d="m512 256c0 13.16-.99 26.09-2.92 38.71h-26.49c-7.32 0-13.95-2.97-18.74-7.77-4.79-4.79-7.76-11.42-7.76-18.74 0-14.64-11.87-26.5-26.51-26.5h-75.58c-7.32 0-13.94-2.97-18.74-7.76-4.8-4.8-7.76-11.43-7.76-18.75 0-14.64 11.86-26.5 26.5-26.5h31.13c7.31 0 13.94-2.97 18.74-7.77 4.79-4.79 7.76-11.42 7.76-18.74 0-14.64 11.87-26.5 26.51-26.5h43.87c19.14 35.87 29.99 76.83 29.99 120.32z" fill="#d0f5ff"/><g><g><g><circle cx="389.161" cy="113.091" fill="#7761b5" r="14.589"/><path d="m394.533 126.657c-1.663.659-3.475 1.025-5.375 1.025-8.058 0-14.586-6.534-14.586-14.591s6.528-14.586 14.586-14.586c1.901 0 3.713.36 5.375 1.025-5.398 2.139-9.21 7.404-9.21 13.561-.001 6.157 3.812 11.427 9.21 13.566z" fill="#614fa3"/></g><g><circle cx="389.161" cy="189.995" fill="#7761b5" r="26.326"/><path d="m398.855 214.475c-3 1.19-6.27 1.85-9.7 1.85-14.54 0-26.32-11.79-26.32-26.33s11.78-26.32 26.32-26.32c3.43 0 6.7.65 9.7 1.85-9.74 3.86-16.62 13.36-16.62 24.47s6.88 20.62 16.62 24.48z" fill="#614fa3"/></g><g><circle cx="389.161" cy="146.542" fill="#7761b5" r="20.3"/><path d="m396.636 165.418c-2.313.918-4.835 1.427-7.48 1.427-11.212 0-20.295-9.091-20.295-20.303s9.084-20.295 20.295-20.295c2.645 0 5.166.501 7.48 1.426-7.511 2.977-12.816 10.302-12.816 18.869s5.305 15.9 12.816 18.876z" fill="#614fa3"/></g></g><g><g><circle cx="256" cy="63.753" fill="#7761b5" r="26.326"/><path d="m265.694 88.233c-3 1.19-6.27 1.85-9.7 1.85-14.54 0-26.32-11.79-26.32-26.33s11.78-26.32 26.32-26.32c3.43 0 6.7.65 9.7 1.85-9.74 3.86-16.62 13.36-16.62 24.47s6.88 20.62 16.62 24.48z" fill="#614fa3"/></g><g><circle cx="256" cy="20.3" fill="#7761b5" r="20.3"/><path d="m263.475 39.177c-2.313.918-4.835 1.427-7.48 1.427-11.212 0-20.295-9.091-20.295-20.303s9.084-20.295 20.295-20.295c2.645 0 5.166.501 7.48 1.426-7.511 2.977-12.816 10.302-12.816 18.869 0 8.566 5.306 15.899 12.816 18.876z" fill="#614fa3"/></g></g><g><g><circle cx="122.343" cy="189.995" fill="#7761b5" r="26.326"/><path d="m132.037 214.475c-3 1.19-6.27 1.85-9.7 1.85-14.54 0-26.32-11.79-26.32-26.33s11.78-26.32 26.32-26.32c3.43 0 6.7.65 9.7 1.85-9.74 3.86-16.62 13.36-16.62 24.47s6.88 20.62 16.62 24.48z" fill="#614fa3"/></g><g><circle cx="122.343" cy="146.542" fill="#7761b5" r="20.3"/><path d="m129.819 165.418c-2.313.918-4.835 1.427-7.48 1.427-11.212 0-20.295-9.091-20.295-20.303s9.084-20.295 20.295-20.295c2.645 0 5.166.501 7.48 1.426-7.511 2.977-12.816 10.302-12.816 18.869s5.305 15.9 12.816 18.876z" fill="#614fa3"/></g><g><circle cx="122.343" cy="113.091" fill="#7761b5" r="14.589"/><path d="m127.716 126.657c-1.663.659-3.475 1.025-5.375 1.025-8.058 0-14.586-6.534-14.586-14.591s6.528-14.586 14.586-14.586c1.901 0 3.713.36 5.375 1.025-5.398 2.139-9.21 7.404-9.21 13.561-.001 6.157 3.812 11.427 9.21 13.566z" fill="#614fa3"/></g></g><path d="m389.66 220.76v253.61c-11.03 6.76-22.6 12.71-34.64 17.77-2.93 1.23-5.88-11.18-8.86-10.06-.44.17-.88.33-1.33.49-2.49.93-5 1.81-7.53 2.66-5.61 1.88-11.3 3.57-17.07 5.07-1.91.49-3.83.96-5.76 1.41-2.5.59-5.01 1.13-7.53 1.64-5.63 1.14-11.32 2.09-17.08 2.85-2.94.39-5.89.73-8.86 1.01-.44.04-.88.09-1.32.13-2.5.23-5.01 14.01-7.54 14.16-5.34.33-10.72.5-16.14.5s-10.8-.17-16.14-.5c-2.97-.18-5.92-12.4-8.86-12.69-.44-.04-.89-.09-1.33-.13-2.52-.25-5.03-.55-7.53-.88-5.76-.76-11.45-1.71-17.08-2.85-1.92-.39-3.84-.8-5.75-1.23-2.53-.57-5.04-1.18-7.54-1.82-5.77-1.5-11.46-3.19-17.07-5.07-2.98-1-5.93-2.05-8.86-3.15-.44-.17-.89-.34-1.33-.51-2.53-.96-5.04 10.02-7.53 8.97-5.59-2.35-11.08-4.89-16.47-7.63-6.2-3.13-12.26-6.52-18.17-10.14v-253.61c6.53 0 12.56-2.11 17.45-5.69 1.24-.9 2.41-1.9 3.49-2.98 5.36-5.36 8.67-12.76 8.67-20.94 0-23.69 8.15-45.48 21.8-62.71 18.52-23.37 47.14-38.36 79.27-38.36h5.96c27.91 0 53.18 11.31 71.47 29.6 2.76 2.76 5.37 5.69 7.8 8.76 13.65 17.23 21.8 39.02 21.8 62.71 0 9.83 4.79 18.54 12.16 23.92 4.89 3.58 10.92 5.69 17.45 5.69z" fill="#7761b5"/><path d="m140.51 226.33v258.18c-6.2-3.13-12.26-6.52-18.17-10.14v-248.04z" fill="#614fa3"/><path d="m389.66 225.763v20c-21.84 0-39.61-17.77-39.61-39.61 0-50.22-40.85-91.07-91.07-91.07h-5.96c-50.22 0-91.07 40.85-91.07 91.07 0 21.84-17.77 39.61-39.61 39.61v-20c7.6 0 14.2-4.35 17.45-10.69 1.38-2.68 2.16-5.71 2.16-8.92 0-30.22 12.13-57.67 31.8-77.71 20.15-20.58 48.25-33.36 79.27-33.36h5.96c31.02 0 59.12 12.78 79.27 33.36 19.67 20.04 31.8 47.49 31.8 77.71 0 3.21.78 6.24 2.16 8.92 3.25 6.34 9.85 10.69 17.45 10.69z" fill="#614fa3"/><path d="m389.663 230.761c-21.843 0-39.613-17.77-39.613-39.613 0-50.214-40.852-91.065-91.065-91.065h-5.969c-50.213 0-91.065 40.852-91.065 91.065 0 21.843-17.771 39.613-39.613 39.613-17.029 0-30.882-13.854-30.882-30.882 0-5.523 4.477-10 10-10s10 4.477 10 10c0 6 4.882 10.882 10.882 10.882 10.815 0 19.613-8.798 19.613-19.613 0-61.242 49.824-111.065 111.065-111.065h5.969c61.241 0 111.065 49.824 111.065 111.065 0 10.815 8.798 19.613 19.613 19.613 6 0 10.882-4.882 10.882-10.882 0-5.523 4.477-10 10-10s10 4.477 10 10c0 17.029-13.854 30.882-30.882 30.882z" fill="#ededed"/><g fill="#d1d1d1"><path d="m401.05 210.761c6 0 10.882-4.882 10.882-10.882 0-3.406 1.706-6.41 4.306-8.215-1.616-1.123-3.577-1.785-5.694-1.785-5.523 0-10 4.477-10 10 0 4.261-2.468 7.948-6.045 9.734 2.053.73 4.252 1.148 6.551 1.148z"/><path d="m133.725 210.761c10.815 0 19.613-8.798 19.613-19.613 0-60.336 48.361-109.587 108.356-111.031-.901-.022-1.804-.034-2.709-.034h-5.969c-61.241 0-111.065 49.824-111.065 111.065 0 8.515-5.464 15.76-13.063 18.464 1.459.729 3.098 1.149 4.837 1.149z"/><path d="m102.843 199.879c0-3.406 1.706-6.41 4.306-8.215-1.616-1.123-3.577-1.785-5.694-1.785-5.523 0-10 4.477-10 10 0 17.029 13.854 30.882 30.882 30.882 2.066 0 4.095-.16 6.076-.467-14.505-2.525-25.57-15.198-25.57-30.415z"/><path d="m361.437 191.149c0-50.214-40.852-91.065-91.065-91.065h-5.969c-.907 0-1.809.017-2.709.044 48.965 1.438 88.356 41.714 88.356 91.022 0 21.843 17.771 39.613 39.613 39.613 1.812 0 3.584-.166 5.311-.467-18.969-2.934-33.537-19.371-33.537-39.147z"/></g><g><path d="m288.577 243.324v-67.69c0-17.991-14.585-32.576-32.576-32.576-17.991 0-32.576 14.585-32.576 32.576v67.69" fill="#6aa2b2"/><path d="m256 134.194c-22.849 0-41.436 18.596-41.436 41.436v67.695c0 4.89 3.969 8.859 8.859 8.859h65.153c4.89 0 8.859-3.969 8.859-8.859v-67.695c.001-22.84-18.586-41.436-41.435-41.436zm-6.645 100.272h-17.072v-34.029h17.072zm0-47.318h-17.072v-11.518c0-10.764 7.221-19.881 17.072-22.76zm30.362 47.318h-17.072v-34.029h17.072zm-17.072-47.318v-34.278c9.852 2.879 17.072 11.996 17.072 22.76v11.517h-17.072z" fill="#ededed"/><g fill="#d1d1d1"><path d="m249.355 152.871h7.531v34.28h-7.531z"/><path d="m279.717 200.441h7.531v34.023h-7.531z"/><path d="m249.355 200.441h7.531v34.023h-7.531z"/><path d="m222.095 243.324v-67.69c0-21.578 16.582-39.347 37.671-41.257-1.241-.112-2.495-.179-3.765-.179-22.848 0-41.436 18.588-41.436 41.436v67.69c0 4.893 3.966 8.859 8.859 8.859h7.531c-4.894 0-8.86-3.966-8.86-8.859z"/><path d="m287.247 175.63v11.517h-7.531v-11.517c0-10.764-7.221-19.881-17.072-22.76h7.531c9.852 2.88 17.072 11.996 17.072 22.76z"/></g></g><g><g><path d="m230.996 389.911v-67.69c0-17.991-14.585-32.576-32.576-32.576-17.991 0-32.576 14.585-32.576 32.576v67.69" fill="#6aa2b2"/><path d="m198.419 280.781c-22.849 0-41.436 18.596-41.436 41.436v67.695c0 4.89 3.969 8.86 8.86 8.86h65.153c4.89 0 8.859-3.969 8.859-8.86v-67.695c0-22.84-18.587-41.436-41.436-41.436zm-6.644 100.272h-17.072v-34.029h17.072zm0-47.319h-17.072v-11.517c0-10.764 7.221-19.881 17.072-22.76zm30.361 47.319h-17.072v-34.029h17.072zm-17.072-47.319v-34.277c9.852 2.879 17.072 11.996 17.072 22.76v11.517z" fill="#ededed"/><g fill="#d1d1d1"><path d="m191.775 299.458h7.531v34.28h-7.531z"/><path d="m222.136 347.027h7.531v34.023h-7.531z"/><path d="m191.775 347.027h7.531v34.023h-7.531z"/><path d="m164.514 389.91v-67.69c0-21.578 16.582-39.347 37.671-41.257-1.241-.112-2.495-.179-3.765-.179-22.848 0-41.436 18.588-41.436 41.436v67.69c0 4.893 3.966 8.859 8.86 8.859h7.531c-4.894.001-8.861-3.966-8.861-8.859z"/><path d="m229.667 322.217v11.517h-7.531v-11.517c0-10.764-7.221-19.881-17.072-22.76h7.531c9.851 2.879 17.072 11.996 17.072 22.76z"/></g></g><g><path d="m346.157 389.911v-67.69c0-17.991-14.585-32.576-32.576-32.576-17.991 0-32.576 14.585-32.576 32.576v67.69" fill="#6aa2b2"/><path d="m313.581 280.781c-22.849 0-41.436 18.596-41.436 41.436v67.695c0 4.89 3.969 8.86 8.859 8.86h65.153c4.89 0 8.859-3.969 8.859-8.86v-67.695c0-22.84-18.587-41.436-41.435-41.436zm-6.645 100.272h-17.072v-34.029h17.072zm0-47.319h-17.072v-11.517c0-10.764 7.221-19.881 17.072-22.76zm30.361 47.319h-17.072v-34.029h17.072zm-17.072-47.319v-34.277c9.852 2.879 17.072 11.996 17.072 22.76v11.517z" fill="#ededed"/><g fill="#d1d1d1"><path d="m306.936 299.458h7.531v34.28h-7.531z"/><path d="m337.297 347.027h7.531v34.023h-7.531z"/><path d="m306.936 347.027h7.531v34.023h-7.531z"/><path d="m279.675 389.91v-67.69c0-21.578 16.582-39.347 37.671-41.257-1.241-.112-2.495-.179-3.765-.179-22.848 0-41.436 18.588-41.436 41.436v67.69c0 4.893 3.966 8.859 8.859 8.859h7.531c-4.893.001-8.86-3.966-8.86-8.859z"/><path d="m344.828 322.217v11.517h-7.531v-11.517c0-10.764-7.221-19.881-17.072-22.76h7.531c9.852 2.879 17.072 11.996 17.072 22.76z"/></g></g></g><g><g><path d="m231 471.06v34.64c-2.97-.28-5.92 4.47-8.86 4.08-5.76-.76-11.45-1.71-17.08-2.85-1.924-.387-3.841-5.099-5.75-5.53-2.526-.57-5.04 3.124-7.54 2.48-5.77-1.5-11.46-3.19-17.07-5.07-2.98-1-5.93-6.353-8.86-7.453v-20.297c0-9 3.65-17.14 9.54-23.03 5.9-5.89 14.04-9.54 23.04-9.54 17.99 0 32.58 14.58 32.58 32.57z" fill="#6aa2b2"/><path d="m198.42 429.62c-22.85 0-41.44 18.6-41.44 41.44v21.08c5.8 2.43 11.71 4.66 17.72 6.67v-2.94h17.07v8.01c4.39 1.13 8.82 2.15 13.29 3.05v-11.06h17.08v13.91c5.84.77 11.75 1.35 17.72 1.72v-40.44c0-22.84-18.59-41.44-41.44-41.44zm-6.65 52.96h-17.07v-11.52c0-10.76 7.22-19.88 17.07-22.76zm30.37 0h-17.08v-34.28c9.86 2.88 17.08 12 17.08 22.76z" fill="#ededed"/><g fill="#d1d1d1"><path d="m191.775 448.302h7.531v34.28h-7.531z"/><path d="m229.67 495.87v14.79c-2.52-.25-5.03-.55-7.53-.88v-13.91z"/><path d="m199.31 495.87v9.83c-2.53-.57-5.04-1.18-7.54-1.82v-8.01z"/><path d="m202.18 429.81c-21.08 1.91-37.67 19.68-37.67 41.25v24.09c-2.53-.96-5.04-1.96-7.53-3.01v-21.08c0-22.84 18.59-41.43 41.44-41.43 1.27 0 2.52.07 3.76.18z"/><path d="m229.667 471.061v11.517h-7.531v-11.517c0-10.764-7.221-19.881-17.072-22.76h7.531c9.851 2.879 17.072 11.995 17.072 22.76z"/></g></g><g><path d="m346.16 471.06v19.874c-2.93 1.1-5.88 6.876-8.86 7.876-5.61 1.88-11.3 3.57-17.07 5.07-1.912.492-6.65-10.759-6.65-5.07 0 2.565-4.117 7.612-6.64 8.12-5.63 1.14-11.32 2.09-17.08 2.85-2.94.39-5.89-5.17-8.86-4.89v-33.83c0-9 3.65-17.14 9.54-23.03 5.9-5.89 14.04-9.54 23.04-9.54 17.99 0 32.58 14.58 32.58 32.57z" fill="#6aa2b2"/><path d="m313.58 429.62c-22.85 0-41.44 18.6-41.44 41.44v40.44c5.97-.37 11.88-.95 17.72-1.72v-13.91h17.08v11.06c4.47-.9 8.9-1.92 13.29-3.05v-8.01h17.07v2.94c6.01-2.01 11.92-4.24 17.72-6.67v-21.08c0-22.84-18.59-41.44-41.44-41.44zm-6.64 52.96h-17.08v-11.52c0-10.76 7.22-19.88 17.08-22.76zm30.36 0h-17.07v-34.28c9.85 2.88 17.07 12 17.07 22.76z" fill="#ededed"/><g fill="#d1d1d1"><path d="m306.936 448.302h7.531v34.28h-7.531z"/><path d="m344.83 495.87v.28c-2.49.93-5 1.81-7.53 2.66v-2.94z"/><path d="m314.47 495.87v9.42c-2.5.59-5.01 1.13-7.53 1.64v-11.06z"/><path d="m317.35 429.81c-21.09 1.91-37.67 19.68-37.67 41.25v39.86c-2.5.23-5.01.43-7.54.58v-40.44c0-22.84 18.59-41.43 41.44-41.43 1.27 0 2.52.07 3.77.18z"/><path d="m344.828 471.061v11.517h-7.531v-11.517c0-10.764-7.221-19.881-17.072-22.76h7.531c9.852 2.879 17.072 11.995 17.072 22.76z"/></g></g></g><path d="m390.167 275.962h-268.335c-3.941 0-7.137-3.195-7.137-7.137 0-3.941 3.195-7.137 7.137-7.137h268.335c3.941 0 7.137 3.195 7.137 7.137 0 3.942-3.195 7.137-7.137 7.137z" fill="#ededed"/><path d="m390.167 420.708h-268.335c-3.941 0-7.137-3.195-7.137-7.137 0-3.941 3.195-7.137 7.137-7.137h268.335c3.941 0 7.137 3.195 7.137 7.137 0 3.942-3.195 7.137-7.137 7.137z" fill="#ededed"/><g fill="#d1d1d1"><path d="m145.546 275.965h-23.72c-3.94 0-7.13-3.2-7.13-7.14 0-1.97.8-3.75 2.09-5.04s3.07-2.09 5.04-2.09h23.72c-1.97 0-3.75.8-5.05 2.09-1.29 1.29-2.09 3.07-2.09 5.04 0 3.94 3.2 7.14 7.14 7.14z"/><path d="m145.546 420.705h-23.72c-3.94 0-7.13-3.19-7.13-7.13 0-1.97.8-3.75 2.09-5.05 1.29-1.29 3.07-2.09 5.04-2.09h23.72c-1.97 0-3.75.8-5.05 2.09-1.29 1.3-2.09 3.08-2.09 5.05 0 3.94 3.2 7.13 7.14 7.13z"/></g></g></g></svg>