<svg id="Capa_1" enable-background="new 0 0 512 512" height="512" viewBox="0 0 512 512" width="512" xmlns="http://www.w3.org/2000/svg"><g><path d="m476.9 385.44c-5.25 8.94-11.02 17.52-17.28 25.72-5.05 6.63-10.42 13-16.1 19.09-46.73 50.29-113.45 81.75-187.52 81.75-64.53 0-123.48-23.88-168.5-63.28-6.87-6.01-13.42-12.38-19.6-19.09-12.45-13.47-23.46-28.28-32.8-44.19l250.254-28.905z" fill="#aa6951"/><path d="m35.1 385.44c-22.31-37.98-35.1-82.22-35.1-129.44 0-141.38 114.62-256 256-256s256 114.62 256 256c0 47.22-12.79 91.46-35.1 129.44" fill="#b2e5f7"/><path d="m500.72 230.79v102.47c0 30.7-21.74 56.31-50.66 62.28-4.18.87-70.157-55.763-74.587-55.763l-101.243 57.083h-131.69c-72.49 0-131.26-58.77-131.26-131.26v-34.81z" fill="#97d6a8"/><path d="m500.72 188.06v42.73h-489.44v-42.73c0-72.49 58.77-131.26 131.26-131.26h226.92c72.49 0 131.26 58.77 131.26 131.26z" fill="#7761b5"/><path d="m204.1 396.86h-61.56c-72.49 0-131.26-58.77-131.26-131.26v-39.27h61.56v39.27c0 72.49 58.77 131.26 131.26 131.26z" fill="#78b57f"/><path d="m204.1 56.8c-72.49 0-131.26 58.77-131.26 131.26v38.27h-61.56v-38.27c0-72.49 58.77-131.26 131.26-131.26z" fill="#614fa3"/><path d="m496.7 218.257h-483.855c-6.922 0-12.534 5.611-12.534 12.534 0 6.922 5.611 12.534 12.534 12.534h483.855c6.922 0 12.534-5.611 12.534-12.534-.001-6.923-5.612-12.534-12.534-12.534z" fill="#4e5959"/><g><circle cx="183.703" cy="389.838" fill="#4e5959" r="76.013"/><path d="m192.666 465.325c-2.941.34-5.939.523-8.966.523-41.972 0-76.011-34.025-76.011-76.011 0-41.972 34.039-76.01 76.011-76.01 3.026 0 6.024.184 8.966.523-37.758 4.44-67.031 36.556-67.031 75.487.001 38.947 29.273 71.048 67.031 75.488z" fill="#333d3d"/><circle cx="183.703" cy="389.838" fill="#ededed" r="47.497"/><circle cx="183.703" cy="389.838" fill="#e0e0e0" r="33.304"/><path d="m194.281 421.416c-3.323 1.117-6.887 1.725-10.578 1.725-18.398 0-33.303-14.905-33.303-33.303 0-18.384 14.905-33.303 33.303-33.303 3.691 0 7.255.608 10.578 1.725-13.208 4.412-22.725 16.885-22.725 31.578-.001 14.693 9.517 27.166 22.725 31.578z" fill="#d1d1d1"/></g><path d="m435.06 202.14v194.72h-145.83v-194.72c0-30.7 24.89-55.59 55.59-55.59h34.65c30.7 0 55.59 24.89 55.59 55.59z" fill="#e0e0e0"/><path d="m379.47 131.55h-34.65c-38.92 0-70.59 31.66-70.59 70.59v194.72h30v-194.72c0-22.38 18.21-40.59 40.59-40.59h34.65c22.38 0 40.59 18.21 40.59 40.59v194.72h17.06c4.43 0 8.76-.45 12.94-1.32v-193.4c0-38.93-31.67-70.59-70.59-70.59z" fill="#ededed"/><path d="m382.283 243.324h-40.276c-9.385 0-16.993-7.608-16.993-16.993v-16.148c0-9.385 7.608-16.993 16.993-16.993h40.276c9.385 0 16.993 7.608 16.993 16.993v16.148c0 9.385-7.608 16.993-16.993 16.993z" fill="#4e5959"/><path d="m194.09 146.55h-105.91c-24.179 0-43.78 19.601-43.78 43.78v55.535c0 24.179 19.601 43.78 43.78 43.78h105.91c24.179 0 43.78-19.601 43.78-43.78v-55.535c0-24.179-19.601-43.78-43.78-43.78z" fill="#6aa2b2"/><path d="m45.565 194.327h188.405v17.053h-188.405z" fill="#ededed"/><path d="m194.09 299.645h-105.91c-29.654 0-53.78-24.125-53.78-53.78v-55.535c0-29.655 24.125-53.78 53.78-53.78h105.91c29.654 0 53.78 24.125 53.78 53.78v55.535c0 29.654-24.125 53.78-53.78 53.78zm-105.91-143.095c-18.626 0-33.78 15.154-33.78 33.78v55.535c0 18.626 15.153 33.78 33.78 33.78h105.91c18.626 0 33.78-15.153 33.78-33.78v-55.535c0-18.626-15.153-33.78-33.78-33.78z" fill="#ededed"/><g fill="#e0e0e0"><path d="m194.09 279.645h11.63c18.626 0 33.78-15.153 33.78-33.78v-55.535c0-18.626-15.153-33.78-33.78-33.78h-11.63c18.626 0 33.78 15.154 33.78 33.78v55.535c0 18.626-15.153 33.78-33.78 33.78z"/><path d="m46.03 245.865v-55.535c0-29.655 24.125-53.78 53.78-53.78h-11.63c-29.654 0-53.78 24.125-53.78 53.78v55.535c0 29.654 24.125 53.78 53.78 53.78h11.63c-29.655 0-53.78-24.126-53.78-53.78z"/></g><g fill="#934e3c"><path d="m311.967 448.72h-46.422c-5.272 0-9.545-4.273-9.545-9.545 0-5.272 4.273-9.545 9.545-9.545h46.422c5.272 0 9.545 4.273 9.545 9.545 0 5.272-4.273 9.545-9.545 9.545z"/><path d="m352.6 480.105h-46.422c-5.272 0-9.545-4.273-9.545-9.545 0-5.272 4.273-9.545 9.545-9.545h46.422c5.272 0 9.545 4.273 9.545 9.545 0 5.272-4.273 9.545-9.545 9.545z"/><path d="m459.62 411.16c-5.05 6.63-10.42 13-16.1 19.09h-16.67c-5.27 0-9.55-4.27-9.55-9.54 0-2.63 1.07-5.02 2.8-6.75s4.12-2.8 6.75-2.8z"/><path d="m105.03 439.17c0 2.64-1.07 5.03-2.79 6.75-1.73 1.73-4.12 2.8-6.76 2.8h-7.98c-6.87-6.01-13.42-12.38-19.6-19.09h27.58c5.28 0 9.55 4.27 9.55 9.54z"/></g><path d="m398.266 319.485c6.387 0 11.564-5.178 11.564-11.564v-16.712c0-6.387-5.178-11.564-11.564-11.564-6.387 0-11.564 5.178-11.564 11.564v16.712c-.001 6.386 5.177 11.564 11.564 11.564z" fill="#7761b5"/></g></svg>