<svg id="Capa_1" enable-background="new 0 0 512.001 512.001" height="512" viewBox="0 0 512.001 512.001" width="512" xmlns="http://www.w3.org/2000/svg"><g><path d="m27.2 370.941c-17.4-34.56-27.2-73.61-27.2-114.94 0-141.38 114.62-256 256-256s256 114.62 256 256c0 41.33-9.8 80.38-27.2 114.94" fill="#b2e5f7"/><path d="m484.8 129.601v204.54c-4.71 9.68-9.99 19.03-15.78 27.97-4.15 6.44-8.57 12.67-13.26 18.68-7.37 9.52-15.39 18.5-23.96 26.86-5.56 5.44-11.37 10.62-17.39 15.52-14.24 11.62-29.72 21.71-46.18 30.01-11.24 5.68-22.94 10.52-35.03 14.47-2.16.7-4.33 1.38-6.52 2.03-7.02 2.08-14.17 3.86-21.42 5.31-15.94 3.22-32.41 4.9-49.26 4.9s-33.32-1.68-49.26-4.9c-1.95-.39-3.9-.8-5.84-1.25-5.25-1.18-10.45-2.54-15.58-4.06-2.19-.65-4.36-1.33-6.52-2.03-12.08-3.95-23.78-8.79-35.02-14.47-16.47-8.3-31.94-18.39-46.19-30.01-6.02-4.9-11.83-10.08-17.39-15.52-8.57-8.36-16.59-17.34-23.96-26.86-4.69-6.01-9.11-12.24-13.26-18.68-5.79-8.94-11.07-18.29-15.78-27.97v-204.54z" fill="#ededed"/><path d="m27.2 334.141v-204.54h22v204.54" fill="#e0e0e0"/><path d="m484.8 343.411v27.53c-23.77 47.25-61.76 86.12-108.34 111-35.9 19.18-76.92 11.21-120.46 11.21s-84.56 7.97-120.46-11.21c-34.13-18.23-63.64-43.97-86.34-75.01-8.28-11.32-15.65-23.36-22-35.99v-27.53z" fill="#c9535d"/><path d="m49.2 343.411v63.52c-8.28-11.32-15.65-23.36-22-35.99v-27.53z" fill="#b53e4e"/><path d="m473.44 391.151h-45.03v-37.74h-14v37.74h-68.71v-37.74h-14v37.74h-68.7v-37.74h-14v37.74h-68.7v-37.74h-14v37.74h-68.71v-37.74h-14v37.74h-45.03c5.39 8.67 11.3 17 17.68 24.94v-10.94h68.71v30.07h-51.74c7.64 7.8 15.79 15.12 24.38 21.88v-7.88h68.71v30.07h-35.59c1.599.9 3.21 1.783 4.83 2.649 7.834 4.187 19.871 4.023 28.165 7.396l43.945 3.955v9.624c4.62.88 9.29 1.64 14 2.28v-11.904h68.7v9.941c4.71-.64 9.38-1.4 14-2.28v-7.661l42.78-5.12c8.294-3.373 21.496-2.043 29.33-6.23 1.621-.866 3.231-1.749 4.83-2.649h-35.59v-30.07h68.71v7.88c8.59-6.76 16.74-14.08 24.38-21.88h-51.74v-30.07h68.71v10.94c6.38-7.941 12.29-16.272 17.68-24.941zm-251.79 14h68.7v30.07h-68.7zm-82.7 30.069v-30.07h68.7v30.07zm110.05 44.071h-68.7v-30.07h68.7zm82.7 0h-68.7v-30.07h68.7zm41.35-44.071h-68.7v-30.07h68.7z" fill="#a32a40"/><path d="m33.145 359.497h445.71c8.622 0 15.611-6.989 15.611-15.611 0-8.622-6.989-15.611-15.611-15.611h-445.71c-8.622 0-15.611 6.989-15.611 15.611 0 8.622 6.989 15.611 15.611 15.611z" fill="#7761b5"/><path d="m58.434 354.926c2.83 2.82 6.73 4.57 11.04 4.57h-36.33c-4.31 0-8.21-1.75-11.04-4.57-2.82-2.83-4.57-6.73-4.57-11.04 0-8.62 6.99-15.61 15.61-15.61h36.33c-8.62 0-15.61 6.99-15.61 15.61 0 4.31 1.75 8.21 4.57 11.04z" fill="#4f408e"/><g><path d="m326.68 241.047v173.644h-21.42-98.52-21.42v-173.644c0-13.85 11.23-25.09 25.09-25.09h91.18c13.86 0 25.09 11.24 25.09 25.09z" fill="#7761b5"/><path d="m225.99 215.957c-13.86 0-25.09 11.24-25.09 25.09v173.644h-15.58v-173.644c0-13.85 11.23-25.09 25.09-25.09z" fill="#4f408e"/><path d="m305.26 241.047v173.644h-98.52v-173.644c0-2.02 1.65-3.66 3.67-3.66h91.18c2.02 0 3.67 1.641 3.67 3.66z" fill="#e0e0e0"/><circle cx="278.976" cy="319.191" fill="#7761b5" r="16.386"/></g><path d="m327.057 449.22h-142.114c-5.911 0-10.703-4.792-10.703-10.703v-15.377c0-5.911 4.792-10.703 10.703-10.703h142.114c5.911 0 10.703 4.792 10.703 10.703v15.378c0 5.91-4.792 10.702-10.703 10.702z" fill="#ededed"/><path d="m345.346 482.647h-178.692c-6.578 0-11.911-5.333-11.911-11.911v-12.962c0-6.578 5.333-11.911 11.911-11.911h178.692c6.578 0 11.911 5.333 11.911 11.911v12.962c0 6.579-5.333 11.911-11.911 11.911z" fill="#e0e0e0"/><path d="m376.46 481.941c-35.9 19.18-76.92 30.06-120.46 30.06s-84.56-10.88-120.46-30.06c2.06-4.51 6.6-7.64 11.88-7.64h217.16c5.28-.001 9.82 3.13 11.88 7.64z" fill="#ededed"/><path d="m27.2 129.601h457.6v40.58h-457.6z" fill="#e0e0e0"/><path d="m.001 103.585 255.999 24.106 256.001-24.106-25.299-73.038c-3.533-10.2-13.142-17.041-23.937-17.041h-413.527c-10.795 0-20.404 6.841-23.937 17.041z" fill="#7761b5"/><path d="m512 103.585h-512l9.387 38.155c1.453 5.906 6.749 10.057 12.831 10.057h467.564c6.082 0 11.378-4.151 12.831-10.057z" fill="#4f408e"/><g><g><g><path d="m129.013 307.678h-37.207c-10.877 0-19.695-8.818-19.695-19.695v-82.687c0-10.877 8.818-19.695 19.695-19.695h37.207c10.877 0 19.695 8.818 19.695 19.695v82.687c0 10.877-8.818 19.695-19.695 19.695z" fill="#598f98"/><path d="m129.013 174.075h-37.207c-17.215 0-31.221 14.005-31.221 31.221v82.687c0 17.215 14.005 31.221 31.221 31.221h37.207c17.215 0 31.221-14.005 31.221-31.221v-82.687c-.001-17.215-14.006-31.221-31.221-31.221zm8.17 31.221v32.697h-18.129v-40.867h9.959c4.504 0 8.17 3.665 8.17 8.17zm-45.377-8.17h9.96v40.867h-18.13v-32.697c0-4.505 3.665-8.17 8.17-8.17zm-8.17 90.857v-32.702h18.13v40.872h-9.96c-4.505 0-8.17-3.666-8.17-8.17zm45.377 8.17h-9.959v-40.872h18.129v32.702c0 4.504-3.666 8.17-8.17 8.17z" fill="#7761b5"/><g fill="#4f408e"><path d="m148.374 287.983v-32.702h-11.191v32.702c0 4.085-3.018 7.47-6.939 8.067v.103h9.96c4.505 0 8.17-3.666 8.17-8.17z"/><path d="m137.183 205.296v32.697h11.191v-32.697c0-4.505-3.665-8.17-8.17-8.17h-9.96v.103c3.921.597 6.939 3.982 6.939 8.067z"/><path d="m112.956 296.153v-40.872h-11.191v40.769c.403.061.812.103 1.232.103z"/><path d="m71.776 287.983v-82.687c0-17.215 14.005-31.221 31.221-31.221h-11.191c-17.215 0-31.221 14.005-31.221 31.221v82.687c0 17.215 14.005 31.221 31.221 31.221h11.191c-17.215-.001-31.221-14.006-31.221-31.221z"/><path d="m112.956 197.126h-9.959c-.42 0-.829.042-1.232.103v40.764h11.191z"/></g></g></g><g><g><path d="m420.194 307.678h-37.207c-10.877 0-19.695-8.818-19.695-19.695v-82.687c0-10.877 8.818-19.695 19.695-19.695h37.207c10.877 0 19.695 8.818 19.695 19.695v82.687c.001 10.877-8.817 19.695-19.695 19.695z" fill="#598f98"/><path d="m420.194 174.075h-37.207c-17.215 0-31.221 14.005-31.221 31.221v82.687c0 17.215 14.005 31.221 31.221 31.221h37.207c17.215 0 31.221-14.005 31.221-31.221v-82.687c0-17.215-14.006-31.221-31.221-31.221zm8.17 31.221v32.697h-18.129v-40.867h9.959c4.505 0 8.17 3.665 8.17 8.17zm-45.377-8.17h9.96v40.867h-18.13v-32.697c0-4.505 3.666-8.17 8.17-8.17zm-8.17 90.857v-32.702h18.13v40.872h-9.96c-4.504 0-8.17-3.666-8.17-8.17zm45.377 8.17h-9.959v-40.872h18.129v32.702c0 4.504-3.665 8.17-8.17 8.17z" fill="#7761b5"/><g fill="#4f408e"><path d="m439.555 287.983v-32.702h-11.191v32.702c0 4.085-3.018 7.47-6.939 8.067v.103h9.96c4.505 0 8.17-3.666 8.17-8.17z"/><path d="m428.364 205.296v32.697h11.191v-32.697c0-4.505-3.665-8.17-8.17-8.17h-9.96v.103c3.922.597 6.939 3.982 6.939 8.067z"/><path d="m404.138 296.153v-40.872h-11.191v40.769c.403.061.812.103 1.232.103z"/><path d="m362.958 287.983v-82.687c0-17.215 14.005-31.221 31.221-31.221h-11.191c-17.215 0-31.221 14.005-31.221 31.221v82.687c0 17.215 14.005 31.221 31.221 31.221h11.191c-17.216-.001-31.221-14.006-31.221-31.221z"/><path d="m404.138 197.126h-9.959c-.42 0-.829.042-1.232.103v40.764h11.191z"/></g></g></g></g><g fill="#4f408e"><path d="m92.884 70.599h-40.499c-4.905 0-8.881 3.976-8.881 8.881 0 4.905 3.976 8.881 8.881 8.881h40.499c4.905 0 8.881-3.976 8.881-8.881 0-4.905-3.976-8.881-8.881-8.881z"/><path d="m123.247 45.92h-40.5c-4.905 0-8.881 3.976-8.881 8.881 0 4.905 3.976 8.881 8.881 8.881h40.499c4.905 0 8.881-3.976 8.881-8.881.001-4.905-3.976-8.881-8.88-8.881z"/><path d="m292.425 70.599h-40.499c-4.905 0-8.881 3.976-8.881 8.881 0 4.905 3.976 8.881 8.881 8.881h40.499c4.905 0 8.881-3.976 8.881-8.881 0-4.905-3.976-8.881-8.881-8.881z"/><path d="m246.24 25.287h-40.499c-4.905 0-8.881 3.976-8.881 8.881 0 4.905 3.976 8.881 8.881 8.881h40.499c4.905 0 8.881-3.976 8.881-8.881 0-4.905-3.976-8.881-8.881-8.881z"/><path d="m439.549 45.92h-40.499c-4.905 0-8.881 3.976-8.881 8.881 0 4.905 3.976 8.881 8.881 8.881h40.499c4.905 0 8.881-3.976 8.881-8.881 0-4.905-3.976-8.881-8.881-8.881z"/></g></g></svg>