<svg id="Capa_1" enable-background="new 0 0 512 512" height="512" viewBox="0 0 512 512" width="512" xmlns="http://www.w3.org/2000/svg"><g><path d="m389.423 449.57c-8.08 7.01 17.487 13.51 8.567 19.47-40.63 27.14-89.46 42.96-141.99 42.96s-101.36-15.82-141.99-42.96c-4.36-2.91 1.38-5.95-2.77-9.11-4.36-3.32-8.62-6.77-12.76-10.36z" fill="#aa6951"/><path d="m512 256c0 60.92-21.29 116.87-56.82 160.83-9.57 11.83-54.257 22.8-65.757 32.74h-259.347c-11.5-9.95-63.686-20.91-73.256-32.74-35.53-43.96-56.82-99.91-56.82-160.83 0-141.38 114.62-256 256-256s256 114.62 256 256z" fill="#b2e5f7"/><g><path d="m455.18 191.23v225.6c-16.29 20.15-35.58 37.78-57.19 52.21h-283.98c-21.61-14.43-40.9-32.06-57.19-52.21v-225.6z" fill="#e89f4b"/><g fill="#d88330"><path d="m145.78 205.57h14.09v263.47h-14.09z"/><path d="m352.14 205.57h14.08v263.47h-14.08z"/></g><path d="m101.24 191.23v268.7c-16.49-12.53-31.41-27.01-44.42-43.1v-225.6z" fill="#d88330"/><path d="m455.18 191.23v57.18c-.97.05-1.96.08-2.96.08h-392.44c-1 0-1.99-.03-2.96-.08v-57.18z" fill="#d88330"/><path d="m29.019 141.687c43.037-34.991 88.522-68.435 136.364-100.064 54.991-36.356 126.243-36.356 181.235 0 47.842 31.629 93.327 65.073 136.365 100.064 35.568 28.918 15.076 86.499-30.765 86.499h-392.434c-45.841 0-66.333-57.581-30.765-86.499z" fill="#f4d84f"/><g fill="#efc24d"><path d="m340.399 190.567c-.072 0-.146-.001-.218-.003-4.141-.119-7.401-3.571-7.283-7.711.427-14.936-1.604-28.874-5.575-38.239-14.839-35.007-30.565-68.492-46.742-99.524-1.915-3.673-.489-8.203 3.184-10.117 3.673-1.916 8.203-.49 10.117 3.184 16.36 31.384 32.259 65.232 47.252 100.604 4.852 11.446 7.252 27.257 6.759 44.522-.117 4.066-3.451 7.284-7.494 7.284z"/><path d="m411.092 149.187c-2.139 0-4.262-.909-5.745-2.675-29.413-34.999-60.584-68.475-92.646-99.5-2.977-2.88-3.055-7.628-.174-10.605 2.879-2.977 7.627-3.055 10.605-.174 32.43 31.381 63.955 65.237 93.697 100.628 2.665 3.171 2.255 7.902-.916 10.567-1.405 1.182-3.118 1.759-4.821 1.759z"/><path d="m255.997 14.361c-15.32 0-30.64 9.09-43.99 27.26-23.22 31.63-45.3 65.079-66.189 100.069-17.27 28.92-7.32 86.499 14.93 86.499h-100.969c-45.84 0-66.329-57.579-30.76-86.499 43.03-34.99 88.519-68.439 136.359-100.069 27.5-18.17 59.059-27.26 90.619-27.26z"/><path d="m121.028 149.187c-1.703 0-3.415-.577-4.821-1.758-3.171-2.665-3.581-7.396-.917-10.567 29.742-35.391 61.267-69.248 93.699-100.629 2.977-2.88 7.725-2.802 10.604.175 2.881 2.977 2.803 7.725-.175 10.605-32.062 31.024-63.233 64.501-92.645 99.5-1.482 1.764-3.606 2.674-5.745 2.674z"/></g><path d="m56.82 384.654v-109.887h65.756v109.887" fill="#333d3d"/><path d="m389.423 384.654v-109.887h65.755v109.887" fill="#333d3d"/><path d="m122.576 392.154c-4.142 0-7.5-3.358-7.5-7.5v-102.387h-58.256c-4.142 0-7.5-3.358-7.5-7.5s3.358-7.5 7.5-7.5h65.756c4.142 0 7.5 3.358 7.5 7.5v109.887c0 4.142-3.358 7.5-7.5 7.5z" fill="#d88330"/><path d="m305.897 274.767h-99.795c-11.459 0-20.748 9.289-20.748 20.748l10 173.527h65.171 56.12l10-173.527c-.001-11.459-9.29-20.748-20.748-20.748z" fill="#333d3d"/><path d="m336.645 469.042h-20v-173.527c0-5.926-4.821-10.748-10.748-10.748h-99.795c-5.927 0-10.748 4.822-10.748 10.748v173.527h-20v-173.527c0-16.955 13.794-30.748 30.748-30.748h99.795c16.954 0 30.748 13.793 30.748 30.748z" fill="#d88330"/><path d="m389.423 392.154c-4.142 0-7.5-3.358-7.5-7.5v-109.887c0-4.142 3.358-7.5 7.5-7.5h65.755c4.142 0 7.5 3.358 7.5 7.5s-3.358 7.5-7.5 7.5h-58.255v102.387c0 4.142-3.358 7.5-7.5 7.5z" fill="#d88330"/><path d="m144.161 402.317c0 4.87-1.98 9.29-5.17 12.49-3.2 3.19-7.62 5.17-12.49 5.17h-70.649c-9.76 0-17.66-7.91-17.66-17.66 0-4.87 1.98-9.29 5.17-12.49 3.19-3.19 7.61-5.17 12.49-5.17h70.649c9.75 0 17.66 7.91 17.66 17.66z" fill="#aa6951"/><path d="m96.602 419.977h-40.75c-9.76 0-17.66-7.91-17.66-17.66 0-4.87 1.98-9.29 5.17-12.49 3.19-3.19 7.61-5.17 12.49-5.17h40.75c-4.88 0-9.3 1.98-12.49 5.17-3.19 3.2-5.17 7.62-5.17 12.49 0 9.75 7.9 17.66 17.66 17.66z" fill="#934e3c"/><path d="m473.807 402.317c0 9.75-7.91 17.66-17.66 17.66h-70.649c-4.87 0-9.29-1.98-12.49-5.17-3.19-3.2-5.17-7.62-5.17-12.49 0-9.75 7.91-17.66 17.66-17.66h70.649c4.88 0 9.29 1.98 12.49 5.17 3.19 3.2 5.17 7.62 5.17 12.49z" fill="#aa6951"/><path d="m426.248 419.977h-40.75c-9.76 0-17.66-7.91-17.66-17.66 0-4.87 1.98-9.29 5.17-12.49 3.19-3.19 7.61-5.17 12.49-5.17h40.75c-4.88 0-9.3 1.98-12.49 5.17-3.19 3.2-5.17 7.62-5.17 12.49 0 9.75 7.9 17.66 17.66 17.66z" fill="#934e3c"/><path d="m266.06 198.73c-4.143 0-7.5-3.358-7.5-7.5v-147.64c0-4.142 3.357-7.5 7.5-7.5s7.5 3.358 7.5 7.5v147.64c0 4.142-3.358 7.5-7.5 7.5z" fill="#efc24d"/><path d="m191.721 190.567c-4.043 0-7.377-3.218-7.493-7.286-.493-17.266 1.906-33.078 6.758-44.522 14.999-35.382 30.896-69.229 47.252-100.604 1.914-3.675 6.445-5.099 10.117-3.184 3.673 1.915 5.099 6.444 3.184 10.117-16.172 31.023-31.898 64.507-46.742 99.524-3.97 9.364-6.001 23.302-5.574 38.239.118 4.141-3.143 7.593-7.283 7.711-.074.004-.147.005-.219.005z" fill="#efc24d"/></g></g></svg>