<svg id="Capa_1" enable-background="new 0 0 512 512" height="512" viewBox="0 0 512 512" width="512" xmlns="http://www.w3.org/2000/svg"><g><path d="m512 256c0 30.22-5.24 59.21-14.85 86.12-15.2 42.55-41.34 79.91-75.04 108.67-44.71 38.16-102.72-66.992-166.11-66.992s-121.4 105.152-166.11 66.992c-36.12-30.83-63.57-71.54-78.15-117.93-7.63-24.26-11.74-50.08-11.74-76.86 0-28.75 4.74-56.39 13.48-82.18 14.97-44.19 41.67-82.96 76.41-112.61 17.98-15.35 38.12-28.26 59.89-38.19 32.36-14.78 68.33-23.02 106.22-23.02s73.86 8.24 106.22 23.02c21.77 9.93 41.91 22.84 59.89 38.19 40.16 34.28 69.59 80.76 82.55 133.7 4.8 19.57 7.34 40.03 7.34 61.09z" fill="#6aa2b2"/><path d="m512 256c0 30.22-5.24 59.21-14.85 86.12-2.81-4.2-4.44-9.25-4.44-14.68 0-14.64-11.87-26.5-26.51-26.5h-75.57c-7.32 0-13.95-2.97-18.75-7.76-4.79-4.8-7.76-11.43-7.76-18.75 0-14.64 11.87-26.5 26.51-26.5h31.12c7.32 0 13.95-2.97 18.74-7.77 4.79-4.79 7.76-11.42 7.76-18.74 0-14.64 11.87-26.51 26.51-26.51h29.9c4.8 19.57 7.34 40.03 7.34 61.09z" fill="#598f98"/><path d="m124.14 306.35c0 14.64-11.87 26.51-26.51 26.51h-85.89c-7.63-24.26-11.74-50.08-11.74-76.86 0-28.75 4.74-56.39 13.48-82.18h31.38c7.32 0 13.95 2.97 18.74 7.76 4.8 4.8 7.77 11.43 7.77 18.75 0 14.64-11.87 26.5-26.51 26.5h-16.66c-14.64 0-26.5 11.87-26.5 26.51s11.86 26.5 26.5 26.5h69.43c7.32 0 13.95 2.97 18.75 7.76 4.79 4.8 7.76 11.43 7.76 18.75z" fill="#598f98"/><path d="m422.11 23.02v427.77c-11.58 9.89-24.06 18.76-37.3 26.48-8.21 4.79-16.72 9.14-25.48 13.01-2.03.9-4.07 1.77-6.13 2.61-9.18 3.78-18.63 7.03-28.32 9.72-5.74 1.61-11.56 3.01-17.45 4.22-.24.05-.47.1-.71.14-8.12 1.63-16.38 2.88-24.77 3.73-.21.02-.41.04-.62.06-4.17.41-8.36.72-12.59.92-4.22.22-8.47.32-12.74.32s-8.52-.1-12.74-.32c-4.44-.21-8.84-.54-13.21-.98-8.63-.87-17.13-2.17-25.48-3.87-18.07-3.69-35.44-9.27-51.9-16.55-8.76-3.87-17.27-8.22-25.48-13.01-6.85-4-13.5-8.3-19.92-12.9-5.99-4.28-11.79-8.8-17.38-13.58v-427.77z" fill="#b2e5f7"/><g fill="#d0f5ff"><path d="m229.634 152.561h21.082v95.548h-21.082z" transform="matrix(.897 .443 -.443 .897 113.532 -85.637)"/><path d="m253.203 167.945h21.082v129.417h-21.082z" transform="matrix(.897 .443 -.443 .897 130.279 -92.732)"/></g><g fill="#d0f5ff"><path d="m344.41 430.64-37.69 76.33c-8.12 1.63-16.38 2.88-24.77 3.73-.21.02-.41.04-.62.06l44.18-89.45z"/><path d="m375.48 447.78-22.28 45.11c-9.18 3.78-18.63 7.03-28.32 9.72l31.69-64.17z"/></g><g fill="#d0f5ff"><path d="m151.042 29.46h21.082v95.548h-21.082z" transform="matrix(.897 .443 -.443 .897 50.901 -63.562)"/><path d="m174.61 44.845h21.082v129.417h-21.082z" transform="matrix(.897 .443 -.443 .897 67.648 -70.657)"/></g><g fill="#d0f5ff"><path d="m151.042 287.246h21.082v95.548h-21.082z" transform="matrix(.897 .443 -.443 .897 165.044 -36.915)"/><path d="m174.61 302.631h21.082v129.417h-21.082z" transform="matrix(.897 .443 -.443 .897 181.791 -44.01)"/></g><g fill="#a2dae8"><path d="m152.67 24.73v465.55c-8.76-3.87-17.27-8.22-25.48-13.01v-452.54z"/><path d="m230.05 24.73v411.936c-8.63-.87-17.13-2.17-25.48-3.87v-408.066z"/><path d="m307.43 24.73v408.067c-8.35 1.7-16.85 3-25.48 3.87v-411.937z"/><path d="m268.74 433.07v78.61c-4.22.22-8.47.32-12.74.32s-8.52-.1-12.74-.32v-78.61z"/><path d="m384.81 24.73v452.54c-8.21 4.79-16.72 9.14-25.48 13.01v-465.55z"/><path d="m243.256-4.991h25.485v332.223h-25.485z" transform="matrix(0 1 -1 0 417.119 -94.878)"/><path d="m243.256-131.387h25.485v332.223h-25.485z" transform="matrix(0 1 -1 0 290.723 -221.274)"/><path d="m243.256 130.663h25.485v332.223h-25.485z" transform="matrix(0 1 -1 0 552.773 40.776)"/><path d="m243.256 266.316h25.485v332.223h-25.485z" transform="matrix(0 1 -1 0 688.426 176.429)"/></g><path d="m436.183 34.731h-360.366c-6.466 0-11.707-5.242-11.707-11.707 0-6.466 5.242-11.707 11.707-11.707h360.366c6.466 0 11.707 5.242 11.707 11.707 0 6.466-5.242 11.707-11.707 11.707z" fill="#d0f5ff"/><path d="m107.27 24.73v439.64c-5.99-4.28-11.79-8.8-17.38-13.58v-426.06z" fill="#a2dae8"/><path d="m150.43 34.724h-74.61c-6.47 0-11.71-5.24-11.71-11.7 0-3.23 1.31-6.16 3.43-8.28s5.04-3.43 8.28-3.43h74.61c-3.23 0-6.16 1.31-8.28 3.43s-3.43 5.05-3.43 8.28c0 6.46 5.24 11.7 11.71 11.7z" fill="#b2e5f7"/></g></svg>