<svg id="Capa_1" enable-background="new 0 0 512 512" height="512" viewBox="0 0 512 512" width="512" xmlns="http://www.w3.org/2000/svg"><g><path d="m512 256c0 28.69-4.72 56.28-13.43 82.03h-485.14c-8.71-25.75-13.43-53.34-13.43-82.03 0-33.63 6.49-65.75 18.28-95.17 3.23-8.06 6.85-15.91 10.85-23.53 42.79-81.62 128.33-137.3 226.87-137.3s184.08 55.68 226.87 137.3c4 7.62 7.62 15.47 10.85 23.53 11.79 29.42 18.28 61.54 18.28 95.17z" fill="#b2e5f7"/><path d="m498.57 338.03c-1.5 4.44-3.12 8.82-4.85 13.14-11.76 29.35-48.944 23.494-70.084 46.304-11.69 12.607-4.49 56.562-18.49 66.614-42.001 30.154-93.503 47.912-149.146 47.912-25.8 0-50.71-3.82-74.19-10.92-3.362-1.015-6.692-13.895-9.99-15.043-3.363-1.17-6.693 9.39-9.99 8.083-11.23-4.45-22.08-9.67-32.47-15.59-7.724-4.409-4.164-11.438-11.358-16.598-4.718-3.384-20.35-4.69-24.822-8.382-4.65-3.84-9.17-7.84-13.54-12-3.93-3.73 6.96-7.58 3.28-11.55-3.16-3.4-11.697-16.103-14.667-19.673-16.93-20.36-39.973-34.177-49.973-59.147-1.74-4.33-3.35-8.71-4.85-13.15z" fill="#97d6a8"/><path d="m493.72 137.3v213.87c-11.76 29.35-28.8 56.02-49.94 78.83h-375.55c-3.16-3.4-6.22-6.89-9.19-10.46-3.92-4.72-7.67-9.57-11.25-14.57-11.88-16.56-21.83-34.6-29.51-53.79v-213.88l276.851-13.686z" fill="#6aa2b2"/><g fill="#598f98"><path d="m50.6 157.862h443.12v18.079h-443.12z"/><path d="m50.6 214.904h443.12v18.079h-443.12z"/><path d="m50.6 271.946h443.12v18.079h-443.12z"/><path d="m50.6 328.988h443.12v18.079h-443.12z"/><path d="m82.92 127.169v302.831h-14.69c-3.16-3.4-6.22-6.89-9.19-10.46-3.92-4.72-7.67-9.57-11.25-14.57-11.88-16.56-21.83-34.6-29.51-53.79v-213.88z"/></g><g><path d="m416.997 364.943h-168.715c-11.693 0-22.102 7.408-25.931 18.456l-16.156 46.604h252.89l-16.156-46.604c-3.83-11.048-14.239-18.456-25.932-18.456z" fill="#4b7a7e"/><g><g><circle cx="275.23" cy="430.002" fill="#4e5959" r="53.752"/><path d="m281.568 483.382c-2.08.24-4.2.37-6.34.37-29.68 0-53.75-24.06-53.75-53.75 0-29.68 24.07-53.75 53.75-53.75 2.14 0 4.26.13 6.34.37-26.7 3.14-47.4 25.85-47.4 53.38 0 27.54 20.7 50.24 47.4 53.38z" fill="#333d3d"/><circle cx="275.23" cy="430.002" fill="#ededed" r="33.587"/><circle cx="275.23" cy="430.002" fill="#e0e0e0" r="23.55"/><path d="m282.71 452.332c-2.35.79-4.87 1.22-7.48 1.22-13.01 0-23.55-10.54-23.55-23.55 0-13 10.54-23.55 23.55-23.55 2.61 0 5.13.43 7.48 1.22-9.34 3.12-16.07 11.94-16.07 22.33s6.73 19.21 16.07 22.33z" fill="#d1d1d1"/></g><g><circle cx="390.049" cy="430.002" fill="#4e5959" r="53.752"/><path d="m396.387 483.382c-2.08.24-4.2.37-6.34.37-29.68 0-53.75-24.06-53.75-53.75 0-29.68 24.07-53.75 53.75-53.75 2.14 0 4.26.13 6.34.37-26.7 3.14-47.4 25.85-47.4 53.38 0 27.54 20.7 50.24 47.4 53.38z" fill="#333d3d"/><circle cx="390.049" cy="430.002" fill="#ededed" r="33.587"/><circle cx="390.049" cy="430.002" fill="#e0e0e0" r="23.55"/><path d="m397.529 452.332c-2.35.79-4.87 1.22-7.48 1.22-13.01 0-23.55-10.54-23.55-23.55 0-13 10.54-23.55 23.55-23.55 2.61 0 5.13.43 7.48 1.22-9.34 3.12-16.07 11.94-16.07 22.33s6.73 19.21 16.07 22.33z" fill="#d1d1d1"/></g></g><path d="m459.085 437.504c-3.106 0-6.011-1.945-7.086-5.045l-16.157-46.604c-2.781-8.022-10.354-13.412-18.845-13.412h-168.715c-8.491 0-16.064 5.39-18.845 13.412l-16.157 46.604c-1.357 3.914-5.63 5.987-9.543 4.63-3.914-1.357-5.986-5.629-4.63-9.543l16.157-46.604c4.873-14.056 18.141-23.499 33.018-23.499h168.715c14.876 0 28.145 9.443 33.018 23.499l16.157 46.604c1.356 3.914-.716 8.186-4.63 9.543-.813.282-1.643.415-2.457.415z" fill="#598f98"/></g><path d="m493.72 137.3h-475.44l8.07-23.55 6.6-19.26 8.08-23.55 6.6-19.26.77-2.25c5.12-14.95 19.18-24.99 34.98-24.99h345.24c15.8 0 29.86 10.04 34.98 24.99l.22.63.56 1.62 5.7 16.65.89 2.61 4.66 13.6 3.41 9.95 2.86 8.33 3.75 10.93z" fill="#4e5959"/><path d="m148.02 24.44c-15.8 0-29.86 10.04-34.98 24.99l-.77 2.25-6.6 19.26-8.08 23.55-6.6 19.26-8.07 23.55h-64.64l8.07-23.55 6.6-19.26 8.08-23.55 6.6-19.26.77-2.25c5.12-14.95 19.18-24.99 34.98-24.99z" fill="#333d3d"/><g><path d="m188.21 249.69v180.31h-119.98c-3.16-3.4-6.22-6.89-9.19-10.46-3.92-4.72-7.67-9.57-11.25-14.57v-155.28c0-13.76 11.16-24.92 24.92-24.92h90.58c13.76 0 24.92 11.16 24.92 24.92z" fill="#4e5959"/><path d="m84.66 224.77c-13.76 0-24.92 11.16-24.92 24.92v170.68c-.24-.27-.47-.55-.7-.83-3.92-4.72-7.67-9.57-11.25-14.57v-155.28c0-13.76 11.16-24.92 24.92-24.92z" fill="#333d3d"/><path d="m69.075 430.002v-180.31c0-2.007 1.632-3.639 3.639-3.639h90.575c2.008 0 3.64 1.633 3.64 3.639v180.31z" fill="#ededed"/><circle cx="140.824" cy="327.311" fill="#d1d1d1" r="16.277"/></g><path d="m171.82 453.55v24.98h-42.46c-12.79-7.3-24.89-15.66-36.18-24.98z" fill="#598f98"/><path d="m181.81 430.54v70.54c-6.79-2.05-13.45-4.37-19.98-6.96v-63.58z" fill="#6aa2b2"/><path d="m198.69 430.54c0 6.08-4.93 11.01-11.01 11.01h-108.04c-7.29-6.92-14.17-14.27-20.6-22.01h128.64c3.04 0 5.79 1.23 7.78 3.22 2 1.99 3.23 4.74 3.23 7.78z" fill="#598f98"/><g><path d="m241.97 203.665h75.933v104.669h-75.933z" fill="#b2e5f7"/><path d="m317.903 193.665h-75.933c-5.522 0-10 4.477-10 10v104.669c0 5.523 4.478 10 10 10h75.933c5.522 0 10-4.477 10-10v-104.669c0-5.523-4.478-10-10-10zm-10 20v21.868h-55.933v-21.868zm-55.933 84.67v-42.802h55.933v42.802z" fill="#4e5959"/><g fill="#333d3d"><path d="m307.903 213.665h7.612v21.868h-7.612z"/><path d="m307.903 255.533h7.612v42.802h-7.612z"/><path d="m239.583 308.335v-104.67c0-5.523 4.478-10 10-10h-7.612c-5.522 0-10 4.477-10 10v104.669c0 5.523 4.478 10 10 10h7.612c-5.523.001-10-4.476-10-9.999z"/></g></g><g><path d="m361.134 203.665h75.933v104.669h-75.933z" fill="#b2e5f7"/><path d="m437.066 193.665h-75.933c-5.522 0-10 4.477-10 10v104.669c0 5.523 4.478 10 10 10h75.933c5.522 0 10-4.477 10-10v-104.669c0-5.523-4.477-10-10-10zm-10 20v21.868h-55.933v-21.868zm-55.932 84.67v-42.802h55.933v42.802z" fill="#4e5959"/><g fill="#333d3d"><path d="m427.066 213.665h7.612v21.868h-7.612z"/><path d="m427.066 255.533h7.612v42.802h-7.612z"/><path d="m358.746 308.335v-104.67c0-5.523 4.478-10 10-10h-7.612c-5.522 0-10 4.477-10 10v104.669c0 5.523 4.478 10 10 10h7.612c-5.522.001-10-4.476-10-9.999z"/></g></g><path d="m485.65 113.75h-459.3l6.6-19.26h446.09l2.86 8.33z" fill="#333d3d"/><path d="m470.97 70.94h-429.94l6.6-19.26h416.75l5.7 16.65z" fill="#333d3d"/></g></svg>