<svg id="Capa_1" enable-background="new 0 0 512 512" height="512" viewBox="0 0 512 512" width="512" xmlns="http://www.w3.org/2000/svg"><g><path d="m512 256c0 55.19-17.47 106.3-47.17 148.1-46.39 65.3-122.64 22.133-208.83 22.133-73.01 0-138.88 1.037-185.52-48.003-8.42-8.85-16.21 35.86-23.31 25.87-29.7-41.8-47.17-92.91-47.17-148.1 0-141.38 114.62-256 256-256s256 114.62 256 256z" fill="#b2e5f7"/><path d="m464.83 230.65v173.45c-5.27 7.42-10.93 14.55-16.94 21.35-4.66 5.275-22.049 2.835-27.127 7.71s2.152 17.065-3.313 21.51c-29.53 24.03-64.51 41.61-102.81 50.58-18.83 4.42-38.47-44.62-58.64-44.62s-39.81 49.04-58.64 44.62c-38.3-8.97-73.28-26.55-102.81-50.58-3.641-2.961 1.519-19.116-1.953-22.27-6.951-6.315-22.272.086-28.487-6.95-6.01-6.8-11.67-13.93-16.94-21.35v-173.45z" fill="#7761b5"/><path d="m47.174 230.649h417.653v54.631h-417.653z" fill="#614fa3"/><path d="m70.48 230.65v201.75c-8.42-8.85-16.21-18.31-23.31-28.3v-173.45z" fill="#614fa3"/><path d="m468.94 265.91h-425.88c-18.25 0-31.07-17.96-25.16-35.22l18.61-54.29c3.69-10.75 13.79-17.96 25.16-17.96h388.66c11.37 0 21.47 7.21 25.16 17.96l18.61 54.29c5.91 17.26-6.91 35.22-25.16 35.22z" fill="#f4d84f"/><g fill="#efc24d"><path d="m427.23 265.91h-20.48l-23.7-107.47h20.48z"/><path d="m128.95 158.44-23.7 107.47h-20.48l23.7-107.47z"/><path d="m246 207.67h20v58.24h-20z"/><path d="m47.593 230.693c-5.913 17.258 6.909 35.204 25.153 35.204h-29.69c-18.243 0-31.066-17.946-25.153-35.204l18.613-54.289c3.686-10.749 13.788-17.976 25.153-17.976h29.691c-11.365 0-21.467 7.228-25.153 17.976z"/></g><g><path d="m181.39 322.6v117.01c0 8.32-6.75 15.06-15.07 15.06h-71.77c-10.93-8.89-21.12-18.67-30.44-29.22v-102.85c0-11.49 9.32-20.81 20.81-20.81h75.65c11.5 0 20.82 9.32 20.82 20.81z" fill="#ededed"/><path d="m81.884 433.16v-110.556c0-1.679 1.361-3.039 3.039-3.039h75.647c1.679 0 3.04 1.361 3.04 3.04v110.555c0 2.081-1.687 3.769-3.769 3.769h-74.19c-2.079-.001-3.767-1.688-3.767-3.769z" fill="#598f98"/><path d="m163.611 322.6v110.56c0 2.079-1.69 3.761-3.77 3.761h-9.353c2.08 0 3.77-1.681 3.77-3.761v-110.56c0-1.681-1.363-3.044-3.044-3.044h9.353c1.682 0 3.044 1.363 3.044 3.044z" fill="#6aa2b2"/><path d="m70.483 360.453h105.49v17.777h-105.49z" fill="#ededed"/></g><path d="m164.903 80.872h182.194v161.294h-182.194z" fill="#7761b5"/><path d="m164.903 80.872h182.194v54.552h-182.194z" fill="#614fa3"/><path d="m164.903 80.872h16.485v161.294h-16.485z" fill="#614fa3"/><g><path d="m447.89 322.6v102.85c-9.32 10.55-19.51 20.33-30.44 29.22h-71.77c-8.32 0-15.07-6.74-15.07-15.06v-117.01c0-11.49 9.32-20.81 20.82-20.81h75.65c11.49 0 20.81 9.32 20.81 20.81z" fill="#ededed"/><path d="m348.389 433.16v-110.556c0-1.679 1.361-3.039 3.039-3.039h75.647c1.679 0 3.04 1.361 3.04 3.04v110.555c0 2.081-1.687 3.769-3.769 3.769h-74.19c-2.079-.001-3.767-1.688-3.767-3.769z" fill="#598f98"/><path d="m430.116 322.6v110.56c0 2.079-1.69 3.761-3.77 3.761h-9.353c2.08 0 3.77-1.681 3.77-3.761v-110.56c0-1.681-1.363-3.044-3.044-3.044h9.353c1.681 0 3.044 1.363 3.044 3.044z" fill="#6aa2b2"/><path d="m336.988 360.453h105.49v17.777h-105.49z" fill="#ededed"/></g><g><path d="m295.722 130.885h-79.445c-12.074 0-21.861 9.788-21.861 21.861v56.048c0 8.737 7.083 15.82 15.82 15.82h91.527c8.737 0 15.82-7.083 15.82-15.82v-56.048c.001-12.073-9.787-21.861-21.861-21.861z" fill="#ededed"/><path d="m213.086 202.022v-49.276c0-1.763 1.429-3.192 3.192-3.192h79.444c1.763 0 3.193 1.43 3.193 3.193v49.275c0 2.186-1.772 3.958-3.958 3.958h-77.914c-2.185 0-3.957-1.772-3.957-3.958z" fill="#598f98"/><path d="m298.915 152.743v49.28c0 2.184-1.775 3.95-3.959 3.95h-9.823c2.184 0 3.959-1.766 3.959-3.95v-49.28c0-1.766-1.431-3.197-3.197-3.197h9.823c1.766 0 3.197 1.431 3.197 3.197z" fill="#6aa2b2"/></g><g><path d="m314.64 320.59v184.66c-5.85 1.37-11.78 2.55-17.78 3.5-13.31 2.14-26.96 3.25-40.86 3.25s-27.55-1.11-40.86-3.25c-6-.95-11.93-2.13-17.78-3.5v-184.66c0-11.5 9.32-20.82 20.82-20.82h75.64c11.5 0 20.82 9.32 20.82 20.82z" fill="#ededed"/><path d="m296.86 320.59v188.16c-13.31 2.14-26.96 3.25-40.86 3.25s-27.55-1.11-40.86-3.25v-188.16c0-1.68 1.36-3.04 3.04-3.04h75.64c1.68 0 3.04 1.36 3.04 3.04z" fill="#e0e0e0"/><circle cx="275.062" cy="426.233" fill="#efc24d" r="13.594"/></g><g><path d="m345.04 117.85h-178.08c-16.43 0-27.61-16.66-21.39-31.86l19.78-48.32c3.55-8.68 12-14.35 21.38-14.35h138.54c9.38 0 17.83 5.67 21.38 14.35l19.78 48.32c6.22 15.2-4.96 31.86-21.39 31.86z" fill="#f4d84f"/></g><g fill="#efc24d"><path d="m316.52 117.85h-20.28l-15.79-94.53h20.28z"/><path d="m231.55 23.32-15.79 94.53h-20.28l15.79-94.53z"/></g><g><path d="m179.104 85.993c-6.22 15.2 4.96 31.86 21.39 31.86h-33.54c-16.42 0-27.61-16.66-21.38-31.86l19.77-48.32c3.55-8.68 12-14.35 21.39-14.35h33.53c-9.38 0-17.83 5.67-21.38 14.35z" fill="#efc24d"/></g></g></svg>