<svg id="Capa_1" enable-background="new 0 0 512 512" height="512" viewBox="0 0 512 512" width="512" xmlns="http://www.w3.org/2000/svg"><g><path d="m512 256c0 78.16-35.03 148.13-90.24 195.09-44.66 37.98-102.54 2.759-165.76 2.759s-121.1 35.221-165.76-2.759c-55.21-46.96-90.24-116.93-90.24-195.09 0-141.38 114.62-256 256-256s256 114.62 256 256z" fill="#b2e5f7"/><g><path d="m421.76 136.54v314.55c-4.33 3.68-8.78 7.22-13.35 10.61-10.46 7.77-21.54 14.75-33.14 20.87-21.9 11.55-45.68 20.03-70.76 24.83-15.71 3.02-31.93 4.6-48.51 4.6s-32.8-1.58-48.51-4.6c-25.08-4.8-48.86-13.28-70.76-24.83-11.28-5.95-22.07-12.72-32.27-20.23-4.88-3.58-9.62-7.34-14.22-11.25v-314.55l9.28-6.58 33.18-23.52 123.3-87.39 123.3 87.39 33.18 23.52z" fill="#ededed"/><path d="m421.758 136.535v42.617l-165.758-117.485-165.758 117.485v-42.617l165.758-117.484z" fill="#e0e0e0"/><path d="m440.195 169.642c-3.907 0-7.851-1.168-11.281-3.6l-172.914-122.552-172.913 122.552c-8.805 6.24-21 4.162-27.241-4.643-6.24-8.804-4.161-21 4.643-27.241l184.212-130.56c6.77-4.797 15.83-4.797 22.597 0l184.212 130.56c8.805 6.24 10.883 18.436 4.644 27.241-3.809 5.374-9.838 8.243-15.959 8.243z" fill="#c9535d"/><g fill="#b53e4e"><path d="m75.955 161.406c1.612 2.276 3.625 4.103 5.882 5.452-8.676 5.227-20.048 2.941-25.988-5.452-6.243-8.812-4.162-21.005 4.641-27.249l184.212-130.556c6.36-4.504 14.743-4.778 21.357-.811-.43.254-.84.518-1.251.811l-184.212 130.557c-8.803 6.243-10.884 18.436-4.641 27.248z"/><path d="m450.263 166.868c-3.058 1.827-6.546 2.775-10.073 2.775-3.908 0-7.845-1.163-11.275-3.595l-172.915-122.558 10.053-7.132 182.969 129.689c.41.293.821.557 1.241.821z"/></g></g><path d="m90.24 306.04h331.52v35.92h-331.52z" fill="#e0e0e0"/><g><g><path d="m122.491 167.965h65.014v89.619h-65.014z" fill="#6aa2b2"/><path d="m187.505 159.403h-65.014c-4.728 0-8.562 3.833-8.562 8.562v89.619c0 4.729 3.834 8.562 8.562 8.562h65.014c4.728 0 8.562-3.833 8.562-8.562v-89.619c0-4.728-3.834-8.562-8.562-8.562zm-8.562 17.125v18.723h-47.89v-18.723zm-47.89 72.494v-36.647h47.89v36.647z" fill="#e0e0e0"/></g><g><path d="m325.334 167.965h65.014v89.619h-65.014z" fill="#6aa2b2"/><path d="m390.348 159.403h-65.014c-4.728 0-8.562 3.833-8.562 8.562v89.619c0 4.729 3.834 8.562 8.562 8.562h65.014c4.728 0 8.562-3.833 8.562-8.562v-89.619c0-4.728-3.834-8.562-8.562-8.562zm-8.562 17.125v18.723h-47.89v-18.723zm-47.89 72.494v-36.647h47.89v36.647z" fill="#e0e0e0"/></g></g><g><path d="m286.365 159.403h-60.731c-9.23 0-16.712 7.482-16.712 16.712v120.898h94.154v-120.898c.001-9.23-7.481-16.712-16.711-16.712z" fill="#e0e0e0"/><path d="m223.195 297.013v-120.898c0-1.345 1.095-2.44 2.44-2.44h60.73c1.346 0 2.441 1.095 2.441 2.44v120.898z" fill="#d1d1d1"/><circle cx="271.303" cy="238.268" fill="#ededed" r="10.914"/></g><g><g><path d="m180.271 473.752h-48.596c-10.159 0-18.395-8.236-18.395-18.395v-73.948h66.99v92.343z" fill="#6aa2b2"/><path d="m171.449 390.232v19.292h-49.346v-19.292zm-49.346 74.698v-37.761h49.346v37.761zm58.167-92.34h-66.99c-4.87 0-8.82 3.95-8.82 8.82v80.93c10.2 7.51 20.99 14.28 32.27 20.23h43.54c4.87 0 8.82-3.95 8.82-8.82v-92.34c0-4.87-3.95-8.82-8.82-8.82z" fill="#e0e0e0"/></g><g><path d="m381.189 473.752h-48.596v-92.343h66.99v73.948c.001 10.16-8.235 18.395-18.394 18.395z" fill="#6aa2b2"/><path d="m399.58 372.59h-66.99c-4.87 0-8.82 3.95-8.82 8.82v92.34c0 4.87 3.95 8.82 8.82 8.82h42.68c11.6-6.12 22.68-13.1 33.14-20.87v-80.29c0-4.87-3.95-8.82-8.83-8.82zm-8.82 92.34h-49.34v-37.76h49.34zm0-55.41h-49.34v-19.29h49.34z" fill="#e0e0e0"/></g></g><g><path d="m304.51 389.81v117.59c-4.85.93-9.76 1.73-14.71 2.38-11.06 1.47-22.35-29.168-33.8-29.168s-22.74 30.638-33.8 29.168c-4.95-.65-9.86-1.45-14.71-2.38v-117.59c0-9.51 7.71-17.22 17.22-17.22h62.58c9.51 0 17.22 7.71 17.22 17.22z" fill="#e0e0e0"/><path d="m289.8 389.81v119.97c-11.06 1.47-22.35 2.22-33.8 2.22s-22.74-.75-33.8-2.22v-119.97c0-1.39 1.13-2.52 2.51-2.52h62.58c1.39 0 2.51 1.13 2.51 2.52z" fill="#d1d1d1"/><circle cx="271.768" cy="453.849" fill="#ededed" r="11.245"/></g><g><g><path d="m103.919 226.06h18.36v80.953h-18.36z" fill="#b53e4e"/><g fill="#a32a40"><path d="m103.919 226.06h18.36v18.36h-18.36z"/><path d="m103.919 226.06h8.562v80.953h-8.562z"/></g></g><g><path d="m175.37 226.06h18.36v80.953h-18.36z" fill="#b53e4e"/><g fill="#a32a40"><path d="m175.37 226.06h18.36v18.36h-18.36z"/><path d="m175.37 226.06h8.562v80.953h-8.562z"/></g></g><g><path d="m246.82 226.06h18.36v80.953h-18.36z" fill="#b53e4e"/><g fill="#a32a40"><path d="m246.82 226.06h18.36v18.36h-18.36z"/><path d="m246.82 226.06h8.562v80.953h-8.562z"/></g></g><g><path d="m318.27 226.06h18.36v80.953h-18.36z" fill="#b53e4e"/><g fill="#a32a40"><path d="m318.27 226.06h18.36v18.36h-18.36z"/><path d="m318.27 226.06h8.562v80.953h-8.562z"/></g></g><g><path d="m389.72 226.06h18.36v80.953h-18.36z" fill="#b53e4e"/><g fill="#a32a40"><path d="m389.72 226.06h18.36v18.36h-18.36z"/><path d="m389.72 226.06h8.562v80.953h-8.562z"/></g></g></g><path d="m423.267 293.079h-334.534c-9.919 0-17.96 8.041-17.96 17.96 0 9.919 8.041 17.96 17.96 17.96h334.534c9.919 0 17.96-8.041 17.96-17.96 0-9.919-8.041-17.96-17.96-17.96z" fill="#c9535d"/><path d="m441.227 311.039c0 9.92-8.04 17.96-17.96 17.96h-334.54c-4.96 0-9.45-2.01-12.7-5.26s-5.26-7.74-5.26-12.7c0-2.31.44-4.51 1.23-6.54.91 2.33 2.29 4.41 4.03 6.15 3.25 3.25 7.74 5.26 12.7 5.26h334.54c7.61 0 14.11-4.73 16.73-11.41.79 2.03 1.23 4.23 1.23 6.54z" fill="#b53e4e"/><path d="m432.247 217.384h-352.494c-4.96 0-8.98 4.021-8.98 8.98 0 4.96 4.021 8.98 8.98 8.98h352.494c4.96 0 8.98-4.021 8.98-8.98 0-4.96-4.02-8.98-8.98-8.98z" fill="#c9535d"/><path d="m441.233 226.364c0 4.96-4.02 8.98-8.98 8.98h-352.5c-2.48 0-4.73-1.01-6.35-2.63s-2.63-3.87-2.63-6.35c0-1.47.36-2.86.99-4.09.42.84.98 1.6 1.64 2.26 1.62 1.62 3.87 2.63 6.35 2.63h352.5c3.49 0 6.51-1.99 7.99-4.89.63 1.23.99 2.62.99 4.09z" fill="#b53e4e"/><path d="m432.247 255.231h-352.494c-4.96 0-8.98 4.021-8.98 8.98 0 4.96 4.021 8.98 8.98 8.98h352.494c4.96 0 8.98-4.021 8.98-8.98 0-4.959-4.02-8.98-8.98-8.98z" fill="#c9535d"/><g fill="#b53e4e"><path d="m441.233 264.211c0 4.96-4.02 8.98-8.98 8.98h-352.5c-2.48 0-4.73-1.01-6.35-2.63s-2.63-3.87-2.63-6.35c0-1.47.36-2.86.99-4.09.42.84.98 1.6 1.64 2.26 1.62 1.62 3.87 2.63 6.35 2.63h352.5c3.49 0 6.51-1.99 7.99-4.89.63 1.23.99 2.62.99 4.09z"/><path d="m123.613 323.739c3.25 3.25 7.74 5.26 12.7 5.26h-47.58c-4.96 0-9.45-2.01-12.7-5.26s-5.26-7.74-5.26-12.7c0-9.92 8.04-17.96 17.96-17.96h47.58c-9.92 0-17.96 8.04-17.96 17.96 0 4.96 2.01 9.45 5.26 12.7z"/><path d="m120.983 232.709c1.62 1.63 3.87 2.63 6.35 2.63h-47.58c-2.48 0-4.73-1-6.35-2.63s-2.63-3.87-2.63-6.35c0-4.96 4.02-8.98 8.98-8.98h47.58c-4.96 0-8.98 4.02-8.98 8.98 0 2.48 1.01 4.72 2.63 6.35z"/></g></g></svg>