<svg id="Capa_1" enable-background="new 0 0 512 512" height="512" viewBox="0 0 512 512" width="512" xmlns="http://www.w3.org/2000/svg"><g><path d="m512 256c0 38.21-8.38 74.47-23.4 107.04-3.91 8.5-50.615 16.75-55.405 24.72-44.76 74.44-84.005 78.123-177.195 78.123-54.86 0-80.07 10.477-121.74-18.913-29.11-20.52-79.37-28.59-97.78-59.21-23.16-38.49-36.48-83.57-36.48-131.76 0-141.38 114.62-256 256-256s256 114.62 256 256z" fill="#b2e5f7"/><path d="m166.99 290.82c0 14.63-11.86 26.5-26.5 26.5h-133.09c-4.84-19.64-7.4-40.18-7.4-61.32 0-34.6 6.87-67.6 19.32-97.71h68.4c7.32 0 13.95 2.97 18.74 7.76 4.8 4.8 7.77 11.43 7.77 18.74 0 14.64-11.87 26.51-26.51 26.51h-16.66c-14.64 0-26.5 11.87-26.5 26.5v.01c0 14.63 11.86 26.5 26.5 26.5h69.43c7.32 0 13.95 2.97 18.74 7.77 4.79 4.79 7.76 11.42 7.76 18.74z" fill="#d0f5ff"/><path d="m512 256c0 16-1.47 31.66-4.28 46.85h-7.62c-7.32 0-13.95-2.97-18.74-7.76-4.8-4.8-7.77-11.43-7.77-18.74 0-14.64-11.86-26.51-26.5-26.51h-75.58c-7.32 0-13.95-2.97-18.74-7.76-4.79-4.8-7.76-11.42-7.76-18.74 0-14.64 11.86-26.51 26.5-26.51h31.12c7.32 0 13.95-2.97 18.75-7.76 4.79-4.8 7.76-11.43 7.76-18.74 0-14.64 11.86-26.51 26.5-26.51h30.53c16.55 33.88 25.83 71.94 25.83 112.18z" fill="#d0f5ff"/><g><path d="m415.776 333.859c-6.969 6.969-5.902 18.554 2.223 24.133l28.407 19.506 13.009-13.009-19.506-28.407c-5.579-8.125-17.164-9.192-24.133-2.223z" fill="#78b57f"/><path d="m450.328 311.973c-9.856 0-17.293 8.946-15.493 18.636l6.294 33.879h18.398l6.294-33.879c1.8-9.69-5.637-18.636-15.493-18.636z" fill="#97d6a8"/><path d="m484.88 333.859c6.969 6.969 5.902 18.554-2.223 24.133l-28.407 19.506-13.009-13.009 19.506-28.407c5.579-8.125 17.164-9.192 24.133-2.223z" fill="#78b57f"/></g><g><path d="m44.675 333.859c-6.969 6.969-5.902 18.554 2.223 24.133l28.407 19.506 13.009-13.009-19.506-28.407c-5.579-8.125-17.163-9.192-24.133-2.223z" fill="#78b57f"/><path d="m79.227 311.973c-9.856 0-17.293 8.946-15.493 18.636l6.294 33.879h18.398l6.294-33.879c1.8-9.69-5.637-18.636-15.493-18.636z" fill="#97d6a8"/><path d="m113.779 333.859c6.969 6.969 5.902 18.554-2.223 24.133l-28.406 19.506-13.009-13.009 19.506-28.407c5.579-8.125 17.163-9.192 24.132-2.223z" fill="#78b57f"/></g><path d="m425.66 148.1v54l-9.5 42.709 9.5 54.691v67.84h-339.32v-67.84l20-38.18-20-61.145v-52.075l9.5-6.73 33.96-24.07 126.2-89.45 126.2 89.45 33.96 24.07z" fill="#f4d84f"/><g fill="#efc24d"><path d="m416.16 141.37h-320.32l33.96-24.07h252.4z"/><path d="m86.34 178.04h339.32v24.06h-339.32z"/><path d="m86.34 238.77h339.32v24.06h-339.32z"/><path d="m86.34 299.5h339.32v24.07h-339.32z"/><path d="m425.66 148.1v43.62l-169.66-120.25-169.66 120.25v-43.62l169.66-120.25z"/></g><g><path d="m360.485 319.5c-9.982 0-18.074-8.092-18.074-18.074v-101.251c0-9.982 8.092-18.074 18.074-18.074h47.1c9.982 0 18.074 8.092 18.074 18.074v101.251c0 9.982-8.092 18.074-18.074 18.074z" fill="#ededed"/><path d="m374.071 319.505h-13.59c-9.98 0-18.07-8.09-18.07-18.07v-101.26c0-9.98 8.09-18.07 18.07-18.07h13.59c-9.98 0-18.08 8.09-18.08 18.07v101.26c0 9.98 8.1 18.07 18.08 18.07z" fill="#d1d1d1"/><g fill="#598f98"><path d="m405.66 216.29v23.99h-43.25v-23.99c0-7.84 6.35-14.19 14.19-14.19h14.87c7.84 0 14.19 6.35 14.19 14.19z"/><path d="m362.41 261.32h43.25v23.99c0 7.84-6.35 14.19-14.19 14.19h-14.87c-7.84 0-14.19-6.35-14.19-14.19z"/></g></g><path d="m444.531 181.986c-3.999 0-8.036-1.196-11.547-3.684l-176.984-125.437-176.984 125.437c-9.013 6.387-21.495 4.26-27.882-4.753-6.387-9.012-4.259-21.495 4.752-27.882l188.549-133.634c6.929-4.91 16.203-4.91 23.129 0l188.549 133.634c9.013 6.387 11.14 18.87 4.753 27.882-3.898 5.501-10.069 8.437-16.335 8.437z" fill="#84382a"/><path d="m347.98 238.77v139.25h-183.96l5-139.25 15.47-14.51 71.51-50.68z" fill="#efc24d"/><path d="m289.467 100.168h-60.641c-8.844 0-16.013 7.169-16.013 16.013v31.381c0 8.844 7.169 16.013 16.013 16.013h60.641c8.844 0 16.013-7.169 16.013-16.013v-31.381c0-8.843-7.169-16.013-16.013-16.013z" fill="#ededed"/><g><path d="m104.415 319.5c-9.982 0-18.074-8.092-18.074-18.074v-101.251c0-9.982 8.092-18.074 18.074-18.074h47.1c9.982 0 18.074 8.092 18.074 18.074v101.251c0 9.982-8.092 18.074-18.074 18.074z" fill="#ededed"/><path d="m149.59 216.29v23.99h-43.25v-23.99c0-7.84 6.35-14.19 14.19-14.19h14.87c7.84 0 14.19 6.35 14.19 14.19z" fill="#598f98"/><path d="m106.34 261.32h43.25v23.99c0 7.84-6.35 14.19-14.19 14.19h-14.87c-7.84 0-14.19-6.35-14.19-14.19z" fill="#598f98"/><path d="m118 319.505h-13.59c-9.98 0-18.07-8.09-18.07-18.07v-101.26c0-9.98 8.09-18.07 18.07-18.07h13.59c-9.98 0-18.08 8.09-18.08 18.07v101.26c0 9.98 8.1 18.07 18.08 18.07z" fill="#d1d1d1"/></g><path d="m247.442 105.538h23.408v52.668h-23.408z" fill="#598f98" transform="matrix(0 1 -1 0 391.019 -127.274)"/><path d="m184.49 224.26v153.76h-20.47v-139.25z" fill="#e89f4b"/><path d="m347.98 238.77v28.11h-.01c-3 0-6.03-.89-8.66-2.76l-83.31-59.05-83.31 59.05c-2.64 1.87-5.67 2.76-8.67 2.76v-28.11l91.98-65.19z" fill="#e89f4b"/><path d="m347.972 253.771c-3 0-6.027-.897-8.661-2.763l-83.311-59.046-83.31 59.046c-6.759 4.79-16.122 3.195-20.912-3.564-4.791-6.759-3.195-16.121 3.564-20.912l91.984-65.194c5.196-3.683 12.15-3.683 17.348 0l91.984 65.194c6.759 4.79 8.354 14.153 3.564 20.912-2.923 4.125-7.552 6.327-12.25 6.327z" fill="#aa6951"/><g fill="#934e3c"><path d="m171.991 247.444c-4.791-6.759-3.195-16.121 3.564-20.912l90.551-64.178-1.432-1.015c-5.197-3.683-12.151-3.683-17.348 0l-91.984 65.194c-6.759 4.791-8.354 14.153-3.564 20.912s14.152 8.354 20.912 3.564l1.526-1.081c-.814-.732-1.566-1.554-2.225-2.484z"/><path d="m266.106 184.799-10.106 7.163 83.311 59.046c2.634 1.866 5.661 2.763 8.661 2.763 3.639 0 7.226-1.336 10.021-3.848z"/></g><path d="m71.716 173.557c1.65 2.33 3.71 4.2 6.02 5.58-8.88 5.35-20.52 3.01-26.6-5.58-6.39-9.02-4.26-21.5 4.75-27.89l188.55-133.63c6.51-4.61 15.09-4.89 21.86-.83-.44.26-.86.53-1.28.83l-188.55 133.63c-9.01 6.39-11.14 18.87-4.75 27.89z" fill="#70231b"/><path d="m454.836 179.147c-3.13 1.87-6.7 2.84-10.31 2.84-4 0-8.03-1.19-11.54-3.68l-176.986-125.442 10.29-7.3 187.276 132.742c.42.3.84.57 1.27.84z" fill="#70231b"/><path d="m287.915 244.809h-63.831c-9.701 0-17.565 7.864-17.565 17.565v127.069h98.96v-127.07c.001-9.7-7.863-17.564-17.564-17.564z" fill="#934e3c"/><path d="m221.52 374.443v-112.07c0-1.414 1.15-2.565 2.564-2.565h63.831c1.415 0 2.565 1.151 2.565 2.565v112.07z" fill="#aa6951"/><path d="m441.241 389.443c-44.76 74.44-102.14 73.903-195.33 73.903-44.07 0-75.441 37.514-111.651 17.904-31.46-17.03-58.94-40.47-80.71-68.56-6.16-7.95-11.86-16.27-17.07-24.93 6.64-14.58 21.34-24.72 38.41-24.72h150.34l216.011 26.403c17.07 0-6.64-14.58 0 0z" fill="#ededed"/><path d="m174.26 412.69v68.56h-40c-31.46-17.03-58.94-40.47-80.71-68.56z" fill="#e0e0e0"/><circle cx="272.084" cy="317.073" fill="#934e3c" r="11.471"/><path d="m488.6 363.04c-3.91 8.5-8.29 16.75-13.08 24.72-7.99 13.29-17.16 25.8-27.36 37.38-9.54 10.84-29.029 12.411-40.269 21.501-4.5 3.64-9.13 7.13-13.88 10.47-6.32 4.45-12.85 8.61-19.57 12.48-.31.18-.62.36-.94.53-4.21 2.4.549 13.139-3.801 15.289-25.21 12.53-52.79 21.02-81.88 24.63-8.77 1.08-19.06-13.032-28.09-12.862-.46.02-.92.02-1.38.03-1.24.02-2.48.03-3.73.03-7.83 0-15.57-.35-23.22-1.04-.76-.07-1.52-.14-2.28-.22-11.45-1.13-21.3 11.752-32.25 9.152-32.19-7.6-62.02-21.29-88.23-39.78 2.96-1.9 6.47-3 10.24-3h15.16c10.5 0 19-8.51 19-19.01v-11.64c0-10.5 8.51-19.01 19.01-19.01h15.16c10.5 0 19.01-8.51 19.01-19v-11.64c0-10.5 8.51-19.01 19.01-19.01z" fill="#d1d1d1"/><g><path d="m403.05 465.57c-6.32 4.45-12.85 8.61-19.57 12.48-.31.18-.62.36-.94.53-4.21 2.4-8.49 4.68-12.84 6.83l-24.63-16.92c-13.19-9.06-14.92-27.86-3.61-39.18 11.31-11.31 30.12-9.58 39.18 3.61z" fill="#78b57f"/><path d="m422.7 424.04-5.77 31.06c-10.5 8.49-21.68 16.18-33.45 22.95-.31.18-.62.36-.94.53l-10.14-54.54c-2.92-15.73 9.15-30.26 25.15-30.26s28.07 14.53 25.15 30.26z" fill="#97d6a8"/><path d="m448.16 425.14c-18.46 20.97-40.31 38.88-64.68 52.91l30.99-45.13c7.71-11.23 22.49-14.15 33.69-7.78z" fill="#78b57f"/></g><g><path d="m259.73 511.97c-1.24.02-2.48.03-3.73.03-7.83 0-15.57-.35-23.22-1.04-12.24-1.1-24.23-3.06-35.91-5.83l-3.44-2.36c-13.19-9.06-14.92-27.86-3.61-39.18 11.32-11.31 30.12-9.58 39.18 3.61z" fill="#78b57f"/><path d="m271.06 458.32-9.95 53.62c-.46.02-.92.02-1.38.03-1.24.02-2.48.03-3.73.03-7.83 0-15.57-.35-23.22-1.04-.76-.07-1.52-.14-2.28-.22l-9.74-52.42c-2.92-15.73 9.15-30.26 25.15-30.26s28.08 14.53 25.15 30.26z" fill="#97d6a8"/><path d="m298.4 502.77-10.58 7.27c-10.42 1.29-21.04 1.96-31.82 1.96-7.83 0-15.57-.35-23.22-1.04l30.05-43.76c9.05-13.19 27.86-14.92 39.17-3.61 11.32 11.32 9.59 30.12-3.6 39.18z" fill="#78b57f"/></g></g></svg>