<svg id="Capa_1" enable-background="new 0 0 512 512" height="512" viewBox="0 0 512 512" width="512" xmlns="http://www.w3.org/2000/svg"><g><path d="m512 256c0 50.58-14.67 97.73-39.99 137.44-45.45 71.28-125.21-41.41-216.01-41.41-94.16 0-176.46 109.12-220.91 33.39-22.3-37.97-35.09-82.2-35.09-129.42 0-141.38 114.62-256 256-256s256 114.62 256 256z" fill="#6aa2b2"/><path d="m472.01 259.06v134.38c-12.52 19.64-27.65 37.46-44.91 52.96-11.85 10.67-24.7 20.24-38.4 28.55-7.79 4.74-15.86 9.07-24.17 12.96-32.95 15.46-69.73 24.09-108.53 24.09-40.73 0-79.24-9.51-113.43-26.45-8.32-4.12-16.39-8.68-24.17-13.66-13.75-8.77-26.61-18.83-38.4-30-16.08-15.23-30.19-32.53-41.89-51.47-1.03-1.65-2.03-3.32-3.02-5v-126.36c0-9.22.57-18.3 1.69-27.22 3.66-29.49 13.2-57.16 27.41-81.79 7.98-13.83 17.43-26.7 28.15-38.4 35.88-39.24 85.91-65.33 142.01-70.21 6.33-.56 12.73-.84 19.2-.84s12.87.28 19.2.84c56.1 4.88 106.13 30.97 142.01 70.21 10.72 11.7 20.17 24.57 28.15 38.4 14.21 24.63 23.75 52.3 27.41 81.79 1.12 8.92 1.69 18 1.69 27.22z" fill="#b2e5f7"/><g fill="#a2dae8"><path d="m258.317 352.03h213.693v38.39h-213.693"/><path d="m472.01 259.06v11.17h-436.92v-11.17c0-9.22.57-18.3 1.69-27.22h433.54c1.12 8.92 1.69 18 1.69 27.22z"/><path d="m442.91 150.05h-378.72c7.98-13.83 17.43-26.7 28.15-38.4h322.42c10.72 11.7 20.17 24.57 28.15 38.4z"/><path d="m364.53 352.68v135.23c-9.68 4.54-19.7 8.5-30 11.81-24.74 7.98-51.13-51-78.53-51-29.21 0-57.27 58.39-83.43 49.37-10.31-3.55-20.33-7.75-30-12.54v-132.87c0-61.19 49.79-110.97 110.98-110.97s110.98 49.78 110.98 110.97z"/></g><path d="m334.53 352.68v147.04c-24.74 7.98-51.13 12.28-78.53 12.28-29.21 0-57.27-4.89-83.43-13.91v-145.41c0-44.72 36.26-80.98 80.98-80.98s80.98 36.26 80.98 80.98z" fill="#333d3d"/><path d="m272.75 41.44v89.41h-38.4v-89.41c6.33-.56 12.73-.84 19.2-.84s12.87.28 19.2.84z" fill="#a2dae8"/><path d="m318.724 173.996h123.292v38.4h-123.292z" fill="#a2dae8" transform="matrix(0 1 -1 0 573.566 -187.174)"/><path d="m309.71 47.89c-12.82 3.39-25.18 7.93-36.96 13.48-13.63 6.44-26.49 14.24-38.4 23.25-10.71 8.08-20.66 17.14-29.7 27.03-10.72 11.7-20.17 24.57-28.15 38.4-14.21 24.63-23.75 52.3-27.41 81.79-1.12 8.92-1.69 18-1.69 27.22v228.82c-1.62-.76-3.23-1.54-4.83-2.33-8.32-4.12-16.39-8.68-24.17-13.66-13.75-8.77-26.61-18.83-38.4-30-16.08-15.23-30.19-32.53-41.89-51.47-1.03-1.65-2.03-3.32-3.02-5v-126.36c0-9.22.57-18.3 1.69-27.22 3.66-29.49 13.2-57.16 27.41-81.79 7.98-13.83 17.43-26.7 28.15-38.4 35.88-39.24 85.91-65.33 142.01-70.21 6.33-.56 12.73-.84 19.2-.84s12.87.28 19.2.84c12.66 1.1 25.01 3.28 36.96 6.45z" fill="#a2dae8"/><path d="m149.09 231.84c-1.12 8.92-1.69 18-1.69 27.22v11.17h-112.31v-11.17c0-9.22.57-18.3 1.69-27.22z" fill="#91c8d0"/><path d="m272.75 41.44v19.93c-13.63 6.44-26.49 14.24-38.4 23.25v-43.18c6.33-.56 12.73-.84 19.2-.84s12.87.28 19.2.84z" fill="#91c8d0"/><path d="m204.65 111.65c-10.72 11.7-20.17 24.57-28.15 38.4h-112.31c7.98-13.83 17.43-26.7 28.15-38.4z" fill="#91c8d0"/><path d="m65.084 173.996h123.292v38.4h-123.292z" fill="#91c8d0" transform="matrix(0 1 -1 0 319.926 66.466)"/><g><path d="m427.1 367.98v78.42c-11.85 10.67-24.7 20.24-38.4 28.55v-106.97z" fill="#a2dae8"/><path d="m118.4 367.98v103.91c-13.75-8.77-26.61-18.83-38.4-30v-73.91z" fill="#91c8d0"/></g><path d="m147.4 352.03v38.39h-109.29c-1.03-1.65-2.03-3.32-3.02-5v-33.39z" fill="#91c8d0"/></g></svg>