<svg id="Capa_1" enable-background="new 0 0 512 512" height="512" viewBox="0 0 512 512" width="512" xmlns="http://www.w3.org/2000/svg"><g><path d="m512 256c0 49.64-14.13 95.97-38.58 135.21-45.2 72.52-125.68 29.435-217.42 29.435-69.82 0-115.627 30.387-161.817-14.953-14.5-14.22-44.803 2.849-55.603-14.481-24.45-39.241-38.58-85.571-38.58-135.211s14.13-95.97 38.58-135.21c.79-1.27 1.59-2.53 2.41-3.78 45.61-70.42 124.87-117.01 215.01-117.01s169.4 46.59 215.01 117.01c.82 1.25 1.62 2.51 2.41 3.78 24.45 39.24 38.58 85.57 38.58 135.21z" fill="#b2e5f7"/><g><path d="m473.42 117.01v274.2c-5.09 8.17-10.64 16.04-16.6 23.56-3.45 4.35-7.03 8.59-10.76 12.71-18.09 20.05-36.174 12.264-59.754 25.794-1.8 1.02-6.756 26.986-8.576 27.976-6.47 3.51-13.11 6.74-19.9 9.68-4.4 1.91-8.86 3.7-13.38 5.37-7.74 2.86-15.67 5.34-23.75 7.44-20.67 5.4-42.35 8.26-64.7 8.26-24.2 0-47.62-3.36-69.81-9.64-6.32-1.78-12.53-3.8-18.64-6.06-11.51-4.23-22.62-9.27-33.28-15.05-11.577-6.268-13.495-20.374-23.911-28.29-10.556-8.023-20.639-13.385-29.815-22.918-1.92-1.99-12.754-.502-14.604-2.552-3.72-4.12-7.31-8.36-10.76-12.72-5.96-7.52-11.51-15.39-16.6-23.56v-274.2h434.84z" fill="#f4d84f"/><path d="m357.83 117.01v373.92c-11.93 5.19-24.33 9.49-37.13 12.81v-386.73z" fill="#efc24d"/><path d="m38.582 117.007h434.836v24.364h-434.836z" fill="#efc24d"/><path d="m76.69 117.01v321.69c-14.5-14.22-27.31-30.16-38.11-47.49v-274.2z" fill="#efc24d"/><path d="m478.21 86.413h-444.42c-11.777 0-21.325 9.548-21.325 21.325 0 11.777 9.548 21.325 21.325 21.325h444.42c11.777 0 21.325-9.548 21.325-21.325 0-11.778-9.547-21.325-21.325-21.325z" fill="#e89f4b"/><path d="m38.58 234.73h434.84v42.65h-434.84z" fill="#efc24d"/><path d="m473.42 372.11v19.1c-5.09 8.17-10.64 16.04-16.6 23.56h-401.64c-5.96-7.52-11.51-15.39-16.6-23.56v-19.1z" fill="#efc24d"/><path d="m478.21 224.726h-444.42c-11.777 0-21.325 9.548-21.325 21.325 0 11.777 9.548 21.325 21.325 21.325h444.42c11.777 0 21.325-9.548 21.325-21.325 0-11.777-9.547-21.325-21.325-21.325z" fill="#e89f4b"/><path d="m478.21 363.039h-444.42c-11.777 0-21.325 9.548-21.325 21.325 0 11.777 9.548 21.325 21.325 21.325h444.42c11.777 0 21.325-9.548 21.325-21.325 0-11.777-9.547-21.325-21.325-21.325z" fill="#e89f4b"/><g fill="#d88330"><path d="m68.055 122.821c3.86 3.86 9.19 6.24 15.08 6.24h-49.35c-5.89 0-11.22-2.38-15.08-6.24-3.85-3.86-6.24-9.19-6.24-15.08 0-11.78 9.54-21.33 21.32-21.33h49.35c-11.78 0-21.33 9.55-21.33 21.33 0 5.89 2.39 11.22 6.25 15.08z"/><path d="m68.055 261.131c3.86 3.86 9.19 6.25 15.08 6.25h-49.35c-5.89 0-11.22-2.39-15.08-6.25-3.85-3.86-6.24-9.19-6.24-15.08 0-11.78 9.54-21.32 21.32-21.32h49.35c-11.78 0-21.33 9.54-21.33 21.32 0 5.89 2.39 11.22 6.25 15.08z"/><path d="m68.055 399.441c3.86 3.86 9.19 6.25 15.08 6.25h-49.35c-5.89 0-11.22-2.39-15.08-6.25-3.85-3.86-6.24-9.19-6.24-15.08 0-11.77 9.54-21.32 21.32-21.32h49.35c-11.78 0-21.33 9.55-21.33 21.32 0 5.89 2.39 11.22 6.25 15.08z"/><path d="m364.7 122.821c3.86 3.86 9.19 6.24 15.08 6.24h-49.35c-5.89 0-11.22-2.38-15.08-6.24-3.85-3.86-6.24-9.19-6.24-15.08 0-11.78 9.54-21.33 21.32-21.33h49.35c-11.78 0-21.33 9.55-21.33 21.33 0 5.89 2.39 11.22 6.25 15.08z"/><path d="m364.7 261.131c3.86 3.86 9.19 6.25 15.08 6.25h-49.35c-5.89 0-11.22-2.39-15.08-6.25-3.85-3.86-6.24-9.19-6.24-15.08 0-11.78 9.54-21.32 21.32-21.32h49.35c-11.78 0-21.33 9.54-21.33 21.32 0 5.89 2.39 11.22 6.25 15.08z"/><path d="m364.7 399.441c3.86 3.86 9.19 6.25 15.08 6.25h-49.35c-5.89 0-11.22-2.39-15.08-6.25-3.85-3.86-6.24-9.19-6.24-15.08 0-11.77 9.54-21.32 21.32-21.32h49.35c-11.78 0-21.33 9.55-21.33 21.32 0 5.89 2.39 11.22 6.25 15.08z"/></g><path d="m344.45 45.76v450.54c-7.74 2.86-15.67 5.34-23.75 7.44-20.67 5.4-42.35 8.26-64.7 8.26-24.2 0-47.62-3.36-69.81-9.64-6.32-1.78-12.53-3.8-18.64-6.06v-450.54z" fill="#e89f4b"/><path d="m186.19 45.76v456.6c-6.32-1.78-12.53-3.8-18.64-6.06v-450.54z" fill="#d88330"/><path d="m167.555 45.758h176.89v49.409h-176.89z" fill="#d88330"/><path d="m346.319 30.18h-180.638c-11.777 0-21.325 9.548-21.325 21.325 0 11.777 9.548 21.325 21.325 21.325h180.639c11.777 0 21.325-9.548 21.325-21.325-.001-11.777-9.548-21.325-21.326-21.325z" fill="#f4d84f"/><path d="m200.416 66.585c3.86 3.86 9.18 6.25 15.07 6.25h-49.81c-5.89 0-11.22-2.39-15.08-6.25s-6.24-9.19-6.24-15.08c0-11.78 9.54-21.32 21.32-21.32h49.81c-11.77 0-21.32 9.54-21.32 21.32 0 5.89 2.39 11.22 6.25 15.08z" fill="#efc24d"/><g><g><g><path d="m126.569 206.835h-49.346c-8.579 0-15.533-6.954-15.533-15.533v-29.61c0-8.579 6.954-15.533 15.533-15.533h49.346c8.579 0 15.533 6.954 15.533 15.533v29.61c0 8.579-6.954 15.533-15.533 15.533z" fill="#e89f4b"/><path d="m86.42 206.832h-9.2c-8.58 0-15.53-6.96-15.53-15.53v-29.61c0-8.58 6.95-15.54 15.53-15.54h9.2c-8.58 0-15.53 6.96-15.53 15.54v29.61c0 8.57 6.95 15.53 15.53 15.53z" fill="#d88330"/><path d="m122.485 161.158c2.55 0 4.617 2.067 4.617 4.617v21.441c0 2.55-2.067 4.617-4.617 4.617h-41.178c-2.55 0-4.617-2.067-4.617-4.617v-21.441c0-2.55 2.067-4.617 4.617-4.617z" fill="#598f98"/><path d="m112.212 161.156h10.27c2.55 0 4.62 2.07 4.62 4.62v21.44c0 2.55-2.07 4.62-4.62 4.62h-10.27c2.55 0 4.61-2.07 4.61-4.62v-21.44c0-2.55-2.06-4.62-4.61-4.62z" fill="#6aa2b2"/></g><g><path d="m126.569 345.067h-49.346c-8.579 0-15.533-6.954-15.533-15.533v-29.61c0-8.579 6.954-15.533 15.533-15.533h49.346c8.579 0 15.533 6.954 15.533 15.533v29.61c0 8.579-6.954 15.533-15.533 15.533z" fill="#e89f4b"/><path d="m86.42 345.064h-9.2c-8.58 0-15.53-6.96-15.53-15.53v-29.61c0-8.58 6.95-15.54 15.53-15.54h9.2c-8.58 0-15.53 6.96-15.53 15.54v29.61c0 8.57 6.95 15.53 15.53 15.53z" fill="#d88330"/><path d="m122.485 299.39c2.55 0 4.617 2.067 4.617 4.617v21.441c0 2.55-2.067 4.617-4.617 4.617h-41.178c-2.55 0-4.617-2.067-4.617-4.617v-21.441c0-2.55 2.067-4.617 4.617-4.617z" fill="#598f98"/><path d="m112.212 299.389h10.27c2.55 0 4.62 2.07 4.62 4.62v21.44c0 2.55-2.07 4.62-4.62 4.62h-10.27c2.55 0 4.61-2.07 4.61-4.62v-21.44c0-2.55-2.06-4.62-4.61-4.62z" fill="#6aa2b2"/></g><g><path d="m142.1 438.16v29.61c0 5.77-3.15 10.81-7.83 13.48-7.34-3.97-14.47-8.3-21.36-12.95-.02-.02-.05-.03-.07-.04-5.429-3.675-3.697-12.259-8.82-16.325-6.768-5.372-20.273-6.369-26.46-12.385-4-3.89-7.88-7.91-11.62-12.06 2.82-3 6.83-4.87 11.28-4.87h49.35c8.58 0 15.53 6.96 15.53 15.54z" fill="#e89f4b"/><path d="m86.42 422.62c-6.97 0-12.87 4.6-14.83 10.93-1.92-1.99-3.8-4.01-5.65-6.06 2.82-3 6.83-4.87 11.28-4.87z" fill="#d88330"/><path d="m127.1 442.24v21.44c0 2.55-2.06 4.62-4.61 4.62h-9.58c-12.63-8.53-24.46-18.16-35.35-28.75.83-1.17 2.2-1.93 3.75-1.93h41.17c2.56 0 4.62 2.07 4.62 4.62z" fill="#598f98"/><path d="m127.1 442.24v21.44c0 2.55-2.07 4.62-4.62 4.62h-9.57c-.02-.02-.05-.03-.07-.04 2.25-.31 3.98-2.24 3.98-4.58v-21.44c0-2.55-2.06-4.62-4.61-4.62h10.27c2.55 0 4.62 2.07 4.62 4.62z" fill="#6aa2b2"/></g></g><g><g><path d="m434.777 206.835h-49.346c-8.579 0-15.533-6.954-15.533-15.533v-29.61c0-8.579 6.954-15.533 15.533-15.533h49.346c8.579 0 15.533 6.954 15.533 15.533v29.61c0 8.579-6.954 15.533-15.533 15.533z" fill="#e89f4b"/><path d="m394.628 206.832h-9.2c-8.58 0-15.53-6.96-15.53-15.53v-29.61c0-8.58 6.95-15.54 15.53-15.54h9.2c-8.58 0-15.53 6.96-15.53 15.54v29.61c-.001 8.57 6.949 15.53 15.53 15.53z" fill="#d88330"/><path d="m430.693 161.158c2.55 0 4.617 2.067 4.617 4.617v21.441c0 2.55-2.067 4.617-4.617 4.617h-41.178c-2.55 0-4.617-2.067-4.617-4.617v-21.441c0-2.55 2.067-4.617 4.617-4.617z" fill="#598f98"/><path d="m420.42 161.156h10.27c2.55 0 4.62 2.07 4.62 4.62v21.44c0 2.55-2.07 4.62-4.62 4.62h-10.27c2.55 0 4.61-2.07 4.61-4.62v-21.44c0-2.55-2.06-4.62-4.61-4.62z" fill="#6aa2b2"/></g><g><path d="m434.777 345.067h-49.346c-8.579 0-15.533-6.954-15.533-15.533v-29.61c0-8.579 6.954-15.533 15.533-15.533h49.346c8.579 0 15.533 6.954 15.533 15.533v29.61c0 8.579-6.954 15.533-15.533 15.533z" fill="#e89f4b"/><path d="m394.628 345.064h-9.2c-8.58 0-15.53-6.96-15.53-15.53v-29.61c0-8.58 6.95-15.54 15.53-15.54h9.2c-8.58 0-15.53 6.96-15.53 15.54v29.61c-.001 8.57 6.949 15.53 15.53 15.53z" fill="#d88330"/><path d="m430.693 299.39c2.55 0 4.617 2.067 4.617 4.617v21.441c0 2.55-2.067 4.617-4.617 4.617h-41.178c-2.55 0-4.617-2.067-4.617-4.617v-21.441c0-2.55 2.067-4.617 4.617-4.617z" fill="#598f98"/><path d="m420.42 299.389h10.27c2.55 0 4.62 2.07 4.62 4.62v21.44c0 2.55-2.07 4.62-4.62 4.62h-10.27c2.55 0 4.61-2.07 4.61-4.62v-21.44c0-2.55-2.06-4.62-4.61-4.62z" fill="#6aa2b2"/></g><g><path d="m446.06 427.48c-3.74 4.15-7.62 8.17-11.62 12.06-3.06 2.98-23.25 5.89-26.46 8.7-8.2 7.22.19 13.92-8.89 20.06-6.89 4.65-14.02 8.98-21.36 12.95-4.68-2.67-7.83-7.71-7.83-13.48v-29.61c0-8.58 6.95-15.54 15.53-15.54h49.35c4.44 0 8.45 1.87 11.28 4.86z" fill="#e89f4b"/><path d="m379.1 438.16v29.61c0 4.03 1.54 7.7 4.06 10.46-1.8 1.02-3.61 2.03-5.43 3.02-4.68-2.67-7.83-7.71-7.83-13.48v-29.61c0-8.58 6.95-15.54 15.53-15.54h9.2c-8.58 0-15.53 6.96-15.53 15.54z" fill="#d88330"/><path d="m434.44 439.54c-10.89 10.59-22.72 20.22-35.35 28.76h-9.58c-2.55 0-4.61-2.07-4.61-4.62v-21.44c0-2.55 2.06-4.62 4.61-4.62h41.18c1.54 0 2.91.76 3.75 1.92z" fill="#598f98"/><path d="m425.03 448.24v-6c0-2.55-2.06-4.62-4.61-4.62h10.27c1.54 0 2.91.76 3.75 1.92-3.06 2.98-6.2 5.89-9.41 8.7z" fill="#6aa2b2"/></g></g></g><g><g><path d="m304.787 161.492h-97.573c-8.791 0-15.918-7.127-15.918-15.918v-36.918c0-8.791 7.127-15.918 15.918-15.918h97.573c8.791 0 15.918 7.127 15.918 15.918v36.918c0 8.791-7.127 15.918-15.918 15.918z" fill="#ededed"/><path d="m218.625 161.496h-11.42c-8.79 0-15.91-7.13-15.91-15.92v-36.92c0-8.79 7.12-15.92 15.91-15.92h11.42c-8.79 0-15.92 7.13-15.92 15.92v36.92c0 8.79 7.13 15.92 15.92 15.92z" fill="#d1d1d1"/><path d="m214.303 146.492c-4.422 0-8.007-3.585-8.007-8.007v-22.74c0-4.422 3.585-8.007 8.007-8.007h83.394c4.422 0 8.007 3.585 8.007 8.007v22.739c0 4.422-3.585 8.008-8.008 8.008z" fill="#598f98"/><path d="m305.705 115.745v22.74c0 4.42-3.58 8-8 8h-11.42c4.42 0 8.01-3.58 8.01-8v-22.74c0-4.43-3.59-8.01-8.01-8.01h11.42c4.42 0 8 3.58 8 8.01z" fill="#6aa2b2"/></g><g><path d="m304.787 247.876h-97.573c-8.791 0-15.918-7.127-15.918-15.918v-36.918c0-8.791 7.127-15.918 15.918-15.918h97.573c8.791 0 15.918 7.127 15.918 15.918v36.918c0 8.791-7.127 15.918-15.918 15.918z" fill="#ededed"/><path d="m218.625 247.88h-11.42c-8.79 0-15.91-7.13-15.91-15.92v-36.92c0-8.79 7.12-15.92 15.91-15.92h11.42c-8.79 0-15.92 7.13-15.92 15.92v36.92c0 8.79 7.13 15.92 15.92 15.92z" fill="#d1d1d1"/><path d="m214.303 232.876c-4.422 0-8.007-3.585-8.007-8.007v-22.74c0-4.422 3.585-8.007 8.007-8.007h83.394c4.422 0 8.007 3.585 8.007 8.007v22.739c0 4.422-3.585 8.008-8.008 8.008z" fill="#598f98"/><path d="m305.705 202.129v22.74c0 4.42-3.58 8-8 8h-11.42c4.42 0 8.01-3.58 8.01-8v-22.74c0-4.43-3.59-8.01-8.01-8.01h11.42c4.42 0 8 3.58 8 8.01z" fill="#6aa2b2"/></g><g><path d="m304.787 334.26h-97.573c-8.791 0-15.918-7.127-15.918-15.918v-36.918c0-8.791 7.127-15.918 15.918-15.918h97.573c8.791 0 15.918 7.127 15.918 15.918v36.918c0 8.792-7.127 15.918-15.918 15.918z" fill="#ededed"/><path d="m218.625 334.264h-11.42c-8.79 0-15.91-7.13-15.91-15.92v-36.92c0-8.79 7.12-15.92 15.91-15.92h11.42c-8.79 0-15.92 7.13-15.92 15.92v36.92c0 8.79 7.13 15.92 15.92 15.92z" fill="#d1d1d1"/><path d="m214.303 319.26c-4.422 0-8.007-3.585-8.007-8.007v-22.74c0-4.422 3.585-8.007 8.007-8.007h83.394c4.422 0 8.007 3.585 8.007 8.007v22.739c0 4.422-3.585 8.008-8.008 8.008z" fill="#598f98"/><path d="m305.705 288.513v22.74c0 4.42-3.58 8-8 8h-11.42c4.42 0 8.01-3.58 8.01-8v-22.74c0-4.43-3.59-8.01-8.01-8.01h11.42c4.42 0 8 3.58 8 8.01z" fill="#6aa2b2"/></g><g><path d="m304.787 420.645h-97.573c-8.791 0-15.918-7.127-15.918-15.918v-36.918c0-8.791 7.127-15.918 15.918-15.918h97.573c8.791 0 15.918 7.127 15.918 15.918v36.918c0 8.791-7.127 15.918-15.918 15.918z" fill="#ededed"/><path d="m218.625 420.648h-11.42c-8.79 0-15.91-7.13-15.91-15.92v-36.92c0-8.79 7.12-15.92 15.91-15.92h11.42c-8.79 0-15.92 7.13-15.92 15.92v36.92c0 8.79 7.13 15.92 15.92 15.92z" fill="#d1d1d1"/><path d="m214.303 405.645c-4.422 0-8.007-3.585-8.007-8.007v-22.74c0-4.422 3.585-8.007 8.007-8.007h83.394c4.422 0 8.007 3.585 8.007 8.007v22.739c0 4.422-3.585 8.008-8.008 8.008z" fill="#598f98"/><path d="m305.705 374.897v22.74c0 4.42-3.58 8-8 8h-11.42c4.42 0 8.01-3.58 8.01-8v-22.74c0-4.43-3.59-8.01-8.01-8.01h11.42c4.42 0 8 3.58 8 8.01z" fill="#6aa2b2"/></g><g><path d="m304.787 507.029h-97.573c-8.791 0-15.918-7.127-15.918-15.918v-36.918c0-8.791 7.127-15.918 15.918-15.918h97.573c8.791 0 15.918 7.127 15.918 15.918v36.918c0 8.791-7.127 15.918-15.918 15.918z" fill="#ededed"/><path d="m218.625 507.032h-11.42c-8.79 0-15.91-7.13-15.91-15.92v-36.92c0-8.79 7.12-15.92 15.91-15.92h11.42c-8.79 0-15.92 7.13-15.92 15.92v36.92c0 8.79 7.13 15.92 15.92 15.92z" fill="#d1d1d1"/><path d="m214.303 492.029c-4.422 0-8.007-3.585-8.007-8.007v-22.74c0-4.422 3.585-8.007 8.007-8.007h83.394c4.422 0 8.007 3.585 8.007 8.007v22.739c0 4.422-3.585 8.008-8.008 8.008z" fill="#598f98"/><path d="m305.705 461.282v22.74c0 4.42-3.58 8-8 8h-11.42c4.42 0 8.01-3.58 8.01-8v-22.74c0-4.43-3.59-8.01-8.01-8.01h11.42c4.42 0 8 3.58 8 8.01z" fill="#6aa2b2"/></g></g></g></g></svg>