<svg id="Capa_1" enable-background="new 0 0 512 512" height="512" viewBox="0 0 512 512" width="512" xmlns="http://www.w3.org/2000/svg"><g><path d="m512 256c0 63.59-23.19 121.77-61.58 166.54-46.95 54.76-135.998 27.39-213.788 27.39-63.86 0-69.222 13.572-114.062-25.107-9.78-8.43-52.59 7.517-60.99-2.283-38.39-44.77-61.58-102.95-61.58-166.54 0-141.38 114.62-256 256-256s256 114.62 256 256z" fill="#b2e5f7"/><path d="m450.42 162.98v259.56c-13.31 15.52-28.44 29.43-45.07 41.39-5.17 3.72-10.48 7.25-15.92 10.58-17.05 10.44-35.41 18.93-54.78 25.17-5.23 1.69-10.54 3.22-15.91 4.57-17.61 4.44-35.94 7.05-54.78 7.63-2.64.08-5.3.12-7.96.12s-5.32-.04-7.96-.12c-18.84-.58-37.17-3.19-54.78-7.63-5.37-1.35-10.68-2.87-15.91-4.56-19.37-6.25-37.73-14.74-54.78-25.18-5.44-3.33-10.75-6.85-15.92-10.57-6.13-4.41-12.05-9.09-17.76-14.01-9.78-8.43-18.91-17.59-27.31-27.39v-259.56z" fill="#f4d84f"/><g fill="#efc24d"><path d="m122.57 191.71v282.8c-5.44-3.33-10.75-6.85-15.92-10.57v-272.23z"/><path d="m193.26 191.71v312.54c-5.37-1.35-10.68-2.87-15.91-4.56v-307.98z"/><path d="m263.96 191.71v320.17c-2.64.08-5.3.12-7.96.12s-5.32-.04-7.96-.12v-320.17z"/><path d="m334.65 191.71v307.97c-5.23 1.69-10.54 3.22-15.91 4.57v-312.54z"/><path d="m405.35 191.71v272.22c-5.17 3.72-10.48 7.25-15.92 10.58v-282.8z"/></g><path d="m88.89 162.98v286.95c-9.78-8.43-18.91-17.59-27.31-27.39v-259.56z" fill="#efc24d"/><path d="m61.579 162.977h388.841v39.209h-388.841z" fill="#efc24d"/><path d="m243.107 7.551-205.931 132.604c-19.975 12.862-10.865 43.836 12.893 43.836h411.864c23.758 0 32.868-30.973 12.893-43.836l-205.933-132.604c-7.852-5.055-17.934-5.055-25.786 0z" fill="#e89f4b"/><path d="m87.234 183.988h-37.175c-23.752 0-32.857-30.973-12.884-43.833l205.933-132.602c7.845-5.05 17.934-5.05 25.779 0l5.698 3.671-200.246 128.931c-19.973 12.86-10.856 43.833 12.895 43.833z" fill="#d88330"/><g><path d="m224.136 70.062h63.728v87.846h-63.728z" fill="#598f98" transform="matrix(0 1 -1 0 369.986 -142.015)"/><path d="m308.316 145.849v-63.728c0-4.635-3.757-8.393-8.393-8.393h-87.846c-4.635 0-8.393 3.758-8.393 8.393v63.728c0 4.635 3.757 8.393 8.393 8.393h87.846c4.635 0 8.393-3.758 8.393-8.393zm-16.786-8.392h-26.746v-46.943h26.746zm-71.06-46.943h27.53v46.943h-27.53z" fill="#ededed"/><g fill="#e0e0e0"><path d="m247.999 90.514h8.785v46.943h-8.785z"/><path d="m291.53 90.514h8.785v46.943h-8.785z"/><path d="m212.469 145.849v-63.728c0-4.635 3.757-8.393 8.393-8.393h-8.785c-4.635 0-8.393 3.758-8.393 8.393v63.728c0 4.635 3.757 8.393 8.393 8.393h8.785c-4.636 0-8.393-3.758-8.393-8.393z"/></g></g><path d="m85.015 229.513h341.97v186.089h-341.97z" fill="#598f98"/><g fill="#6aa2b2"><path d="m163.047 333.204 86.959-74.384c3.87-3.31 15.858 10.705 11.988 14.015l-86.959 74.384c-1.738 1.487-15.859-10.704-11.988-14.015z"/><path d="m177.432 394.747-6.45-7.541c-5.707-6.671-4.924-16.706 1.747-22.412l74.88-64.051 6.451 7.541c5.707 6.671 4.925 16.706-1.747 22.413z"/><path d="m335.626 333.204 86.959-74.384c3.87-3.31 15.858 10.705 11.988 14.015l-86.959 74.384c-1.738 1.487-15.858-10.704-11.988-14.015z"/><path d="m350.012 394.747-8.609-10.064c-4.515-5.278-3.896-13.216 1.382-17.731l77.402-66.209 8.609 10.064c4.515 5.278 3.896 13.217-1.382 17.731z"/></g><path d="m426.985 220.291h-341.97c-5.093 0-9.221 4.128-9.221 9.221v186.088c0 5.093 4.128 9.221 9.221 9.221h341.97c5.092 0 9.221-4.128 9.221-9.221v-186.087c.001-5.093-4.128-9.222-9.221-9.222zm-161.764 18.443h68.517v167.646h-68.517zm-18.442 167.646h-68.516v-167.646h68.516zm-152.543-167.646h65.583v167.646h-65.583zm323.528 167.646h-65.583v-167.646h65.583z" fill="#ededed"/><g fill="#e0e0e0"><path d="m85.961 415.601v-186.088c0-5.093 4.128-9.221 9.221-9.221h-10.167c-5.093 0-9.221 4.128-9.221 9.221v186.088c0 5.093 4.128 9.221 9.221 9.221h10.168c-5.093.001-9.222-4.128-9.222-9.221z"/><path d="m333.738 238.734h10.168v167.646h-10.168z"/><path d="m246.779 238.734h10.168v167.646h-10.168z"/><path d="m159.819 238.734h10.168v167.646h-10.168z"/><path d="m417.764 238.734h10.168v167.646h-10.168z"/></g></g></svg>