<svg id="Capa_1" enable-background="new 0 0 512 512" height="512" viewBox="0 0 512 512" width="512" xmlns="http://www.w3.org/2000/svg"><g><path d="m512 256c0 11.01-.7 21.86-2.05 32.5-6.42 50.72-27.69 96.81-59.3 133.78-3.16 3.7-34.486-14.36-37.856-10.85-5 5.23-10.23 10.24-15.66 15.02-12.03 10.61-25.08 20.11-38.96 28.32-9.49 5.62-19.37 10.65-29.6 15.02-25.08 10.73-24.154 11.839-52.594 14.029-1 .07-2 .14-3.01.21-5.61.37-11.27.56-16.97.56-.45 0-.91 0-1.36-.01-47.01-.24-91.01-13.16-128.79-35.5-17.46-10.32-33.58 4.751-48.06-9.289-47.97-46.53-77.79-111.68-77.79-183.79 0-6.66.25-13.26.76-19.79 3.53-46.27 19.37-89.09 44.25-125.22 46.16-67.04 123.44-110.99 210.99-110.99 68.15 0 130.07 26.63 175.95 70.05 49.3 46.66 80.05 112.72 80.05 185.95z" fill="#598f98"/><g fill="#6aa2b2"><path d="m512 256c0 11.01-.7 21.86-2.05 32.5l-242.42-81.48v-81.71l164.42-55.26c49.3 46.66 80.05 112.72 80.05 185.95z"/><path d="m87.61 125.31v81.71l-86.85 29.19c3.53-46.27 19.37-89.09 44.25-125.22z"/></g><g><path d="m272.97 206.09v305.35c-5.61.37-11.27.56-16.97.56-69.27 0-132.12-27.52-178.21-72.21v-233.7z" fill="#ededed"/><path d="m77.788 206.087h195.182v27.968h-195.182z" fill="#e0e0e0"/><path d="m125.85 206.09v270.4c-17.46-10.32-33.58-22.66-48.06-36.7v-233.7z" fill="#e0e0e0"/><path d="m87.002 89.746h181.14v111.002h-181.14z" fill="#efc24d"/><path d="m138.546 89.746h78.051v111.002h-78.051z" fill="#f4d84f"/><g fill="#ededed"><path d="m78.425 125.31h17.153v80.778h-17.153z"/><path d="m252.811 125.31h17.153v80.778h-17.153z"/><path d="m165.618 125.31h17.153v80.778h-17.153z"/></g><g fill="#e0e0e0"><path d="m78.425 125.31h17.153v19.937h-17.153z"/><path d="m252.811 125.31h17.153v19.937h-17.153z"/><path d="m165.618 125.31h17.153v19.937h-17.153z"/></g><path d="m165.357 8.524-106.495 93.638c-12.81 11.264-4.844 32.389 12.214 32.389h212.992c17.058 0 25.025-21.125 12.214-32.389l-106.496-93.638c-6.985-6.141-17.444-6.141-24.429 0z" fill="#c9535d"/><path d="m177.562 3.912c-1.746.011-3.47 1.551-4.858 4.608l-42.462 93.642c-5.107 11.266-1.93 32.389 4.869 32.389h-64.04c-17.057 0-25.026-21.123-12.209-32.389l106.491-93.642c3.491-3.068 7.85-4.608 12.209-4.608z" fill="#b53e4e"/><path d="m274.647 219.799h-198.535c-7.573 0-13.712-6.139-13.712-13.712 0-7.573 6.139-13.712 13.712-13.712h198.535c7.573 0 13.712 6.139 13.712 13.712 0 7.573-6.139 13.712-13.712 13.712z" fill="#c9535d"/><path d="m131.309 219.804h-55.192c-7.569 0-13.717-6.137-13.717-13.717 0-3.784 1.54-7.211 4.023-9.694s5.91-4.012 9.694-4.012h55.192c-3.784 0-7.222 1.529-9.705 4.012-2.472 2.483-4.012 5.91-4.012 9.694 0 7.58 6.137 13.717 13.717 13.717z" fill="#b53e4e"/><path d="m175.38 256.001c-12.008 0-21.743 9.735-21.743 21.743v60.799h43.486v-60.799c-.001-12.008-9.735-21.743-21.743-21.743z" fill="#333d3d"/><path d="m197.122 346.043h-43.485c-4.143 0-7.5-3.358-7.5-7.5v-60.799c0-16.125 13.118-29.243 29.243-29.243 16.124 0 29.242 13.118 29.242 29.243v60.799c0 4.143-3.357 7.5-7.5 7.5zm-35.985-15h28.485v-53.299c0-7.854-6.389-14.243-14.242-14.243s-14.243 6.389-14.243 14.243z" fill="#c9535d"/></g><g><path d="m450.65 338.22v84.06c-42.91 50.18-104.86 83.56-174.67 88.95-1 .07-2 .14-3.01.21-5.61.37-11.27.56-16.97.56-.45 0-.91 0-1.36-.01v-173.77l18.93-12.56 79.08-52.46z" fill="#ededed"/><g fill="#e0e0e0"><path d="m268.142 389.764h182.511v15.023h-182.511z"/><path d="m440.85 433.1c-5 5.23-10.23 10.24-15.66 15.02h-157.05v-15.02z"/><path d="m268.142 346.428h182.511v15.023h-182.511z"/><path d="m386.23 476.44c-9.49 5.62-19.37 10.65-29.6 15.02h-88.49v-15.02z"/><path d="m275.98 325.66v185.57c-1 .07-2 .14-3.01.21-5.61.37-11.27.56-16.97.56-.45 0-.91 0-1.36-.01v-173.77l18.93-12.56z"/><path d="m450.652 338.224v32.25l-98-65.02-98.01 65.03v-32.26l98.01-65.02z"/></g><path d="m474.56 369.088c-2.849 0-5.728-.81-8.278-2.502l-113.632-75.381-113.632 75.381c-6.904 4.58-16.213 2.695-20.792-4.208s-2.695-16.212 4.208-20.792l121.924-80.882c5.025-3.334 11.559-3.334 16.584 0l121.924 80.882c6.903 4.58 8.787 13.888 4.208 20.792-2.888 4.353-7.656 6.71-12.514 6.71z" fill="#c9535d"/><g fill="#b53e4e"><path d="m233.166 362.379c-4.579-6.903-2.695-16.212 4.208-20.792l121.924-80.882c.269-.179.544-.343.822-.502-4.901-2.818-11.006-2.653-15.762.502l-121.924 80.882c-6.903 4.58-8.787 13.888-4.208 20.792 4.4 6.633 13.161 8.615 19.965 4.698-1.956-1.124-3.694-2.692-5.025-4.698z"/><path d="m481.222 366.586-121.102-80.337-7.47 4.956 113.632 75.381c2.551 1.692 5.43 2.502 8.278 2.502 2.612 0 5.187-.703 7.469-2.009-.272-.157-.542-.318-.807-.493z"/></g></g><g><g><g><path d="m366.327 458.361h-27.355c-7.997 0-14.48-6.483-14.48-14.48v-60.793c0-7.997 6.483-14.48 14.48-14.48h27.355c7.997 0 14.48 6.483 14.48 14.48v60.793c0 7.997-6.483 14.48-14.48 14.48z" fill="#f4d84f"/><path d="m366.327 360.134h-27.355c-12.657 0-22.954 10.297-22.954 22.954v60.792c0 12.657 10.297 22.954 22.954 22.954h27.355c12.657 0 22.954-10.297 22.954-22.954v-60.792c0-12.657-10.297-22.954-22.954-22.954zm6.007 22.954v24.039h-13.329v-30.046h7.322c3.312 0 6.007 2.695 6.007 6.007zm-33.362-6.007h7.323v30.046h-13.329v-24.039c-.001-3.312 2.694-6.007 6.006-6.007zm-6.007 66.799v-24.043h13.329v30.05h-7.323c-3.311 0-6.006-2.695-6.006-6.007zm33.362 6.007h-7.322v-30.05h13.329v24.043c0 3.312-2.695 6.007-6.007 6.007z" fill="#c9535d"/><g fill="#b53e4e"><path d="m380.562 443.88v-24.043h-8.228v24.043c0 3.004-2.219 5.492-5.101 5.931v.076h7.323c3.311 0 6.006-2.695 6.006-6.007z"/><path d="m372.334 383.088v24.039h8.228v-24.039c0-3.312-2.695-6.007-6.007-6.007h-7.323v.076c2.883.439 5.102 2.927 5.102 5.931z"/><path d="m354.522 449.887v-30.05h-8.228v29.974c.296.045.597.076.906.076z"/><path d="m324.246 443.88v-60.792c0-12.657 10.297-22.954 22.954-22.954h-8.228c-12.657 0-22.954 10.297-22.954 22.954v60.792c0 12.657 10.297 22.954 22.954 22.954h8.228c-12.657 0-22.954-10.297-22.954-22.954z"/><path d="m354.522 377.081h-7.322c-.309 0-.609.031-.906.076v29.97h8.228z"/></g></g></g></g><g fill="#ededed"><path d="m363.034 50.671h-3.05c-7.56 0-13.689-6.129-13.689-13.689v-3.358c0-4.055-3.287-7.343-7.343-7.343-4.055 0-7.343 3.287-7.343 7.343v3.358c0 7.56-6.129 13.689-13.689 13.689h-3.05c-4.02 0-7.526 3.098-7.647 7.117-.124 4.158 3.209 7.568 7.339 7.568h3.358c7.56 0 13.689 6.129 13.689 13.689v3.358c0 4.055 3.287 7.343 7.343 7.343 4.055 0 7.343-3.287 7.343-7.343v-3.358c0-7.56 6.129-13.689 13.689-13.689h3.358c4.13 0 7.464-3.41 7.339-7.568-.121-4.018-3.627-7.117-7.647-7.117z"/><path d="m63.298 265.862h-3.05c-7.56 0-13.689-6.129-13.689-13.689v-3.358c0-4.055-3.287-7.343-7.343-7.343-4.055 0-7.343 3.287-7.343 7.343v3.358c0 7.56-6.129 13.689-13.689 13.689h-3.05c-4.02 0-7.526 3.098-7.647 7.117-.124 4.158 3.209 7.568 7.339 7.568h3.358c7.56 0 13.689 6.129 13.689 13.689v3.358c0 4.055 3.287 7.343 7.343 7.343 4.055 0 7.343-3.287 7.343-7.343v-3.358c0-7.56 6.129-13.689 13.689-13.689h3.358c4.13 0 7.464-3.41 7.339-7.568-.12-4.019-3.626-7.117-7.647-7.117z"/></g></g></svg>