<svg id="Capa_1" enable-background="new 0 0 512 512" height="512" viewBox="0 0 512 512" width="512" xmlns="http://www.w3.org/2000/svg"><g><path d="m512 256c0 50.454-14.596 97.499-39.795 137.143-45.416 71.448-125.274 72.979-216.205 72.979s-170.789-1.531-216.205-72.979c-25.199-39.644-39.795-86.689-39.795-137.143 0-141.385 114.615-256 256-256s256 114.615 256 256z" fill="#b2e5f7"/><g><path d="m472.2 335.51v57.63c-7.07 11.13-14.99 21.68-23.65 31.56-5.885 6.714-12.115 13.115-18.663 19.178-1.7 1.574-10.741-4.617-12.484-3.089-1.714 1.503 3.872 10.725 2.118 12.182-8.079 6.713-16.578 12.937-25.451 18.628-31.103 19.97-66.802 33.383-105.16 38.305-10.775 1.383-21.759-10.579-32.911-10.579s-22.136 11.961-32.911 10.579c-38.358-4.922-74.056-18.334-105.16-38.305-8.87-5.69-17.37-11.92-25.45-18.63-1.926-1.599 4.786-11.835 2.912-13.489-1.571-1.387-11.735 5.817-13.272 4.389-6.55-6.05-12.78-12.45-18.67-19.17-8.66-9.88-16.58-20.43-23.65-31.56v-57.739l226.46-28.7z" fill="#6aa2b2"/><path d="m472.197 335.514h-432.394v-211.844l226.461-48.696 205.933 48.811z" fill="#f4d84f"/><path d="m489.65 182.51h-148.34l-48.83-48.84-36.48-36.48-36.48 36.48-48.83 48.84h-148.34l26.647-141.829c3.139-16.707 17.729-28.811 34.728-28.811h344.55c16.999 0 31.589 12.104 34.728 28.811z" fill="#6aa2b2"/><path d="m432.24 182.51h-90.93l-48.83-48.84-36.48-36.48-36.48 36.48-48.83 48.84h-90.93l24.18-170.64h304.12z" fill="#598f98"/><path d="m363.2 182.51h-21.89l-48.83-48.84-36.48-36.48-36.48 36.48-48.83 48.84h-21.89l14.71-170.64h184.98z" fill="#6aa2b2"/><path d="m292.48 133.67-36.48-36.48-36.48 36.48 3.72-121.8h65.52z" fill="#598f98"/><path d="m493.724 187.514h-144.744c-3.813 0-7.483-1.452-10.264-4.062l-82.716-77.615-82.717 77.615c-2.78 2.609-6.45 4.062-10.264 4.062h-144.743c-8.284 0-15-6.716-15-15s6.716-15 15-15h138.808l88.652-83.185c5.771-5.416 14.756-5.416 20.527 0l88.652 83.185h138.808c8.284 0 15 6.716 15 15 .001 8.284-6.715 15-14.999 15z" fill="#ededed"/><g fill="#e0e0e0"><path d="m267.228 75.233-.964-.905c-5.771-5.416-14.756-5.416-20.527 0l-88.652 83.185h22.455z"/><path d="m25.732 172.514c0-8.284 6.716-15 15-15h-22.456c-8.284 0-15 6.716-15 15s6.716 15 15 15h22.455c-8.283 0-14.999-6.716-14.999-15z"/><path d="m267.228 95.301-11.228 10.536 82.717 77.615c2.78 2.609 6.45 4.062 10.264 4.062h22.455c-3.813 0-7.483-1.452-10.264-4.062z"/></g><path d="m473.716 346.009h-435.432c-7.326 0-13.265-5.939-13.265-13.265 0-7.326 5.939-13.265 13.265-13.265h435.432c7.326 0 13.265 5.939 13.265 13.265 0 7.326-5.939 13.265-13.265 13.265z" fill="#ededed"/><path d="m71.189 346.004h-32.91c-7.32 0-13.26-5.94-13.26-13.26 0-3.67 1.48-6.98 3.88-9.38 2.4-2.41 5.72-3.89 9.38-3.89h32.91c-3.66 0-6.97 1.48-9.37 3.89-2.4 2.4-3.89 5.71-3.89 9.38 0 7.32 5.94 13.26 13.26 13.26z" fill="#e0e0e0"/></g><g><g><path d="m144.756 206.721h-59.445c-12.074 0-21.861 9.788-21.861 21.861v56.048c0 8.737 7.083 15.82 15.82 15.82h71.527c8.737 0 15.82-7.083 15.82-15.82v-56.048c0-12.073-9.788-21.861-21.861-21.861z" fill="#efc24d"/><path d="m82.119 277.858v-49.276c0-1.763 1.429-3.192 3.192-3.192h59.444c1.763 0 3.193 1.43 3.193 3.193v49.275c0 2.186-1.772 3.958-3.958 3.958h-57.913c-2.186 0-3.958-1.772-3.958-3.958z" fill="#598f98"/><path d="m147.948 228.579v49.28c0 2.184-1.775 3.95-3.959 3.95h-9.823c2.184 0 3.959-1.766 3.959-3.95v-49.28c0-1.766-1.431-3.197-3.197-3.197h9.823c1.766 0 3.197 1.431 3.197 3.197z" fill="#6aa2b2"/></g><g><path d="m285.722 206.721h-59.445c-12.074 0-21.861 9.788-21.861 21.861v56.048c0 8.737 7.083 15.82 15.82 15.82h71.527c8.737 0 15.82-7.083 15.82-15.82v-56.048c.001-12.073-9.787-21.861-21.861-21.861z" fill="#efc24d"/><path d="m223.086 277.858v-49.276c0-1.763 1.429-3.192 3.192-3.192h59.444c1.763 0 3.193 1.43 3.193 3.193v49.275c0 2.186-1.772 3.958-3.958 3.958h-57.914c-2.185 0-3.957-1.772-3.957-3.958z" fill="#598f98"/><path d="m288.915 228.579v49.28c0 2.184-1.775 3.95-3.959 3.95h-9.823c2.184 0 3.959-1.766 3.959-3.95v-49.28c0-1.766-1.431-3.197-3.197-3.197h9.823c1.766 0 3.197 1.431 3.197 3.197z" fill="#6aa2b2"/></g><g><path d="m426.689 206.721h-59.445c-12.074 0-21.861 9.788-21.861 21.861v56.048c0 8.737 7.083 15.82 15.82 15.82h71.527c8.737 0 15.82-7.083 15.82-15.82v-56.048c.001-12.073-9.787-21.861-21.861-21.861z" fill="#efc24d"/><path d="m364.053 277.858v-49.276c0-1.763 1.429-3.192 3.192-3.192h59.444c1.763 0 3.193 1.43 3.193 3.193v49.275c0 2.186-1.772 3.958-3.958 3.958h-57.914c-2.186 0-3.957-1.772-3.957-3.958z" fill="#598f98"/><path d="m429.882 228.579v49.28c0 2.184-1.775 3.95-3.959 3.95h-9.823c2.184 0 3.959-1.766 3.959-3.95v-49.28c0-1.766-1.431-3.197-3.197-3.197h9.823c1.766 0 3.197 1.431 3.197 3.197z" fill="#6aa2b2"/></g></g><g><g><path d="m166.62 399.73v56.05c0 8.74-7.09 15.82-15.82 15.82h-32.87c-8.511-5.459-16.678-11.408-24.46-17.809-2.171-1.786 4.033-12.455 1.922-14.31-1.664-1.463-11.654 5.902-13.279 4.397-6.548-6.062-12.778-12.464-18.663-19.178v-24.97c0-12.07 9.79-21.86 21.86-21.86h59.45c12.07 0 21.86 9.79 21.86 21.86z" fill="#598f98"/><path d="m147.95 399.73v49.28c0 2.19-1.77 3.96-3.96 3.96h-51.51c-3.54-2.94-6.99-5.97-10.36-9.1v-44.14c0-1.76 1.43-3.19 3.19-3.19h59.45c1.76 0 3.19 1.43 3.19 3.19z" fill="#8cd6e3"/><path d="m147.948 399.73v49.28c0 2.184-1.775 3.95-3.959 3.95h-9.823c2.184 0 3.959-1.766 3.959-3.95v-49.28c0-1.766-1.431-3.197-3.197-3.197h9.823c1.766 0 3.197 1.431 3.197 3.197z" fill="#b2e5f7"/></g><g><path d="m307.58 399.73v107.06c-6.15 1.26-12.37 2.3-18.67 3.11-10.78 1.39-21.76 2.1-32.91 2.1s-22.13-.71-32.91-2.1c-6.3-.81-12.52-1.85-18.67-3.11v-107.06c0-12.07 9.78-21.86 21.86-21.86h59.44c12.08 0 21.86 9.79 21.86 21.86z" fill="#598f98"/><path d="m288.91 399.73v110.17c-10.78 1.39-21.76 2.1-32.91 2.1s-22.13-.71-32.91-2.1v-110.17c0-1.76 1.42-3.19 3.19-3.19h59.44c1.77 0 3.19 1.43 3.19 3.19z" fill="#ededed"/></g><g><path d="m448.55 399.73v24.97c-5.89 6.72-12.12 13.12-18.67 19.17-1.627 1.512-10.813-4.544-12.477-3.081-1.781 1.567 3.957 10.651 2.127 12.171l-.01.01c-8.08 6.71-16.58 12.94-25.45 18.63h-32.87c-8.73 0-15.82-7.08-15.82-15.82v-56.05c0-12.07 9.79-21.86 21.86-21.86h59.45c12.07 0 21.86 9.79 21.86 21.86z" fill="#598f98"/><path d="m429.88 399.73v44.14c-3.37 3.13-6.82 6.16-10.36 9.1h-51.51c-2.19 0-3.96-1.77-3.96-3.96v-49.28c0-1.76 1.43-3.19 3.19-3.19h59.45c1.76 0 3.19 1.43 3.19 3.19z" fill="#8cd6e3"/><path d="m429.88 399.73v44.14c-3.37 3.13-6.81 6.15-10.35 9.09h-3.43c2.18 0 3.96-1.77 3.96-3.95v-49.28c0-1.77-1.43-3.2-3.2-3.2h9.82c1.77 0 3.2 1.43 3.2 3.2z" fill="#b2e5f7"/></g></g><circle cx="275.133" cy="466.122" fill="#6aa2b2" r="7.091"/><circle cx="254.681" cy="164.384" fill="#598f98" r="30.299"/><path d="m254.681 202.182c-20.843 0-37.799-16.956-37.799-37.799s16.956-37.799 37.799-37.799 37.799 16.956 37.799 37.799-16.956 37.799-37.799 37.799zm0-60.597c-12.571 0-22.799 10.227-22.799 22.799s10.228 22.799 22.799 22.799 22.799-10.227 22.799-22.799-10.228-22.799-22.799-22.799z" fill="#efc24d"/></g></svg>