<svg id="Capa_1" enable-background="new 0 0 512 512" height="512" viewBox="0 0 512 512" width="512" xmlns="http://www.w3.org/2000/svg"><g><path d="m512 256c0 60.6-21.06 116.29-56.26 160.13-3.03 3.79-21.48-2.64-24.73.97-3.66 4.08-7.47 8.04-11.39 11.87-1.42 1.39-2.86 2.76-4.31 4.12-4.18 3.89-8.48 7.65-12.91 11.26-4.25 3.47-8.61 6.8-13.08 9.99-3.94 2.82-7.97 5.53-12.08 8.12-3.83 2.42-7.72 4.74-11.69 6.96-22.18 12.41-34.594-2.22-60.214 3.16-17.05 3.58-23.638 13.86-41.748 13.86s-35.78-1.88-52.83-5.46c-25.62-5.38-29.088-7.838-51.268-20.248-3.97-2.22-7.86-4.54-11.69-6.96-4.1-2.6-8.14-5.3-12.08-8.12-4.47-3.19-8.83-6.52-13.08-9.99-4.43-3.6-20.667 6.285-24.837 2.385-1.45-1.35-2.88-2.72-4.3-4.12-3.93-3.82-7.73-7.79-11.4-11.87-3.25-3.6-22.803-2.137-25.843-5.927-35.2-43.84-56.26-99.53-56.26-160.13 0-141.38 114.62-256 256-256s256 114.62 256 256z" fill="#b2e5f7"/><path d="m335.68 42.815h90.34v158.31h-90.34z" fill="#934e3c"/><path d="m335.68 42.815h90.34v29.111h-90.34z" fill="#84382a"/><path d="m335.68 42.815h27.279v158.31h-27.279z" fill="#84382a"/><g><path d="m430.61 209.08v220.238c-11.719 10.929-24.463 34.664-38.071 43.26-4.67 2.95-9.442 5.753-14.309 8.402-12.98 7.07-26.64 13.05-40.85 17.81-22.51 7.54-46.41 12.04-71.21 13.01-3.37.13-6.76.2-10.17.2s-6.8-.07-10.17-.2c-24.8-.97-48.7-5.47-71.21-13.01-19.545-6.547-38.039-15.391-55.161-26.208-13.609-8.598-26.352-39.596-38.069-50.525v-212.977l166.66-165.2 7.95-7.88 7.95 7.88z" fill="#934e3c"/><g fill="#84382a"><path d="m82.103 310.571h347.794v27.001h-347.794z"/><path d="m430.61 209.08v79.04l-174.61-173.07-174.61 173.07v-79.04l166.66-165.2c5.2-1.42 10.7-1.42 15.9 0z"/><path d="m82.103 226.087h347.794v27.001h-347.794z"/><path d="m82.103 395.055h347.794v27.001h-347.794z"/><path d="m380.85 479.54c-22.18 12.41-46.4 21.62-72.02 27h-105.66c-25.62-5.38-49.84-14.59-72.02-27z"/></g><g><g><circle cx="82.103" cy="281.83" fill="#e8cfa6" r="43.242"/><path d="m82.103 310.571c-15.848 0-28.741-12.893-28.741-28.741s12.893-28.741 28.741-28.741 28.742 12.893 28.742 28.741c-.001 15.848-12.894 28.741-28.742 28.741zm0-41.482c-7.025 0-12.741 5.716-12.741 12.741s5.716 12.741 12.741 12.741c7.026 0 12.742-5.716 12.742-12.741s-5.716-12.741-12.742-12.741z" fill="#e2b887"/></g><g><circle cx="82.103" cy="366.314" fill="#e8cfa6" r="43.242"/><path d="m82.103 395.055c-15.848 0-28.741-12.893-28.741-28.741s12.893-28.741 28.741-28.741 28.742 12.893 28.742 28.741c-.001 15.848-12.894 28.741-28.742 28.741zm0-41.482c-7.025 0-12.741 5.716-12.741 12.741s5.716 12.741 12.741 12.741c7.026 0 12.742-5.716 12.742-12.741s-5.716-12.741-12.742-12.741z" fill="#e2b887"/></g><g><path d="m125.34 450.8c0 7.94-2.14 15.38-5.88 21.78-13.61-8.6-26.36-18.44-38.07-29.37-9.01-8.41-17.41-17.46-25.13-27.08 7.21-5.38 16.15-8.57 25.84-8.57 23.88 0 43.24 19.36 43.24 43.24z" fill="#e8cfa6"/><path d="m82.1 422.06c-6.09 0-11.76 1.91-16.41 5.16 3.67 4.08 7.47 8.05 11.4 11.87 1.54-.66 3.23-1.03 5.01-1.03 7.03 0 12.74 5.71 12.74 12.74 0 1.28-.19 2.51-.54 3.67 4.25 3.47 8.61 6.8 13.08 9.99 2.21-4.07 3.46-8.72 3.46-13.66 0-15.85-12.89-28.74-28.74-28.74z" fill="#e2b887"/></g></g><path d="m430.61 319.39c-3.75 2.14-7.84 3.74-12.18 4.68 4.34.95 8.43 2.54 12.18 4.69v75.11c-3.75 2.15-7.85 3.74-12.19 4.69 4.34.95 8.44 2.54 12.19 4.69l-15.741 7.822c-11.719 10.929-8.721 42.911-22.33 51.506-4.67 2.95-9.442 5.753-14.309 8.402-7.6-7.8-12.28-18.44-12.28-30.18 0-20.71 14.56-38.01 34.01-42.24-19.45-4.23-34.01-21.53-34.01-42.25 0-20.7 14.56-38 34-42.24-19.44-4.23-34-21.53-34-42.24 0-23.88 19.36-43.24 43.24-43.24 7.79 0 15.11 2.06 21.42 5.67z" fill="#84382a"/><g><g><circle cx="429.897" cy="281.83" fill="#e8cfa6" r="43.242"/><path d="m429.897 310.571c-15.848 0-28.741-12.893-28.741-28.741s12.893-28.741 28.741-28.741 28.742 12.893 28.742 28.741-12.894 28.741-28.742 28.741zm0-41.482c-7.025 0-12.741 5.716-12.741 12.741s5.716 12.741 12.741 12.741c7.026 0 12.742-5.716 12.742-12.741s-5.716-12.741-12.742-12.741z" fill="#e2b887"/></g><g><circle cx="429.897" cy="366.314" fill="#e8cfa6" r="43.242"/><path d="m429.897 395.055c-15.848 0-28.741-12.893-28.741-28.741s12.893-28.741 28.741-28.741 28.742 12.893 28.742 28.741-12.894 28.741-28.742 28.741zm0-41.482c-7.025 0-12.741 5.716-12.741 12.741s5.716 12.741 12.741 12.741c7.026 0 12.742-5.716 12.742-12.741s-5.716-12.741-12.742-12.741z" fill="#e2b887"/></g><g><path d="m455.74 416.13c-3.03 3.79-6.18 7.48-9.43 11.09-3.66 4.08-7.47 8.04-11.39 11.87-1.42 1.39-2.86 2.76-4.31 4.12-4.18 3.89-8.48 7.65-12.91 11.26-4.25 3.47-8.61 6.8-13.08 9.99-3.94 2.82-7.97 5.53-12.08 8.12-3.74-6.4-5.88-13.84-5.88-21.78 0-23.88 19.36-43.24 43.24-43.24 9.69 0 18.63 3.19 25.84 8.57z" fill="#e8cfa6"/><path d="m429.9 422.06c-15.85 0-28.74 12.89-28.74 28.74 0 4.94 1.25 9.59 3.46 13.66 4.47-3.19 8.83-6.52 13.08-9.99-.35-1.16-.54-2.39-.54-3.67 0-7.03 5.71-12.74 12.74-12.74 1.78 0 3.48.37 5.02 1.03 3.92-3.83 7.73-7.79 11.39-11.87-4.65-3.25-10.32-5.16-16.41-5.16z" fill="#e2b887"/></g></g><path d="m456.444 264.682c-7.634 0-15.269-2.895-21.118-8.693l-179.326-177.748-179.327 177.748c-11.767 11.664-30.763 11.58-42.426-.188-11.664-11.767-11.58-30.762.188-42.426l200.446-198.681c11.693-11.59 30.544-11.591 42.238 0l200.445 198.681c11.768 11.664 11.852 30.659.188 42.426-5.865 5.918-13.586 8.881-21.308 8.881z" fill="#aa6951"/><g fill="#934e3c"><path d="m61.198 255.801c-11.664-11.767-11.58-30.762.188-42.426l200.445-198.681c2.306-2.285 4.892-4.113 7.644-5.497-11.208-5.636-25.206-3.809-34.594 5.497l-200.446 198.681c-11.768 11.664-11.852 30.659-.188 42.426 9.378 9.462 23.494 11.364 34.784 5.685-2.828-1.423-5.482-3.312-7.833-5.685z"/><path d="m462.276 255.989-192.801-191.104-13.475 13.356 179.326 177.748c5.85 5.798 13.484 8.693 21.118 8.693 4.626 0 9.248-1.072 13.474-3.197-2.751-1.384-5.336-3.211-7.642-5.496z"/></g><g><path d="m337.38 302.8v195.99c-8.05 2.7-16.28 5-24.67 6.89-15.05 3.42-30.61 5.5-46.54 6.12h-20.34c-15.93-.62-31.49-2.7-46.54-6.12-8.39-1.89-16.62-4.19-24.67-6.89v-195.99c0-15.95 12.93-28.89 28.89-28.89h104.98c15.96 0 28.89 12.94 28.89 28.89z" fill="#84382a"/><path d="m312.71 302.8v202.88c-15.05 3.42-30.61 5.5-46.54 6.12h-20.34c-15.93-.62-31.49-2.7-46.54-6.12v-202.88c0-2.32 1.89-4.22 4.22-4.22h104.98c2.33 0 4.22 1.9 4.22 4.22z" fill="#aa6951"/><circle cx="282.455" cy="392.773" fill="#934e3c" r="18.867"/></g></g><path d="m332.584 59.486h96.531c7.77 0 14.069-6.299 14.069-14.069 0-7.77-6.299-14.069-14.069-14.069h-96.531c-7.77 0-14.069 6.299-14.069 14.069 0 7.77 6.299 14.069 14.069 14.069z" fill="#aa6951"/><path d="m365.895 55.367c2.55 2.55 6.06 4.12 9.95 4.12h-43.26c-3.89 0-7.4-1.57-9.95-4.12-2.54-2.55-4.12-6.07-4.12-9.95 0-7.77 6.3-14.07 14.07-14.07h43.26c-7.77 0-14.07 6.3-14.07 14.07 0 3.88 1.58 7.4 4.12 9.95z" fill="#934e3c"/></g></svg>