<svg id="Capa_1" enable-background="new 0 0 512 512" height="512" viewBox="0 0 512 512" width="512" xmlns="http://www.w3.org/2000/svg"><g><path d="m512 256c0 70.46-28.47 134.27-74.52 180.56-46.37 46.6-110.56-.44-181.48-.44s-135.11 47.04-181.48.44c-46.05-46.29-74.52-110.1-74.52-180.56s28.47-134.27 74.52-180.56c11-11.05 23.01-21.11 35.87-30.02 41.34-28.64 91.51-45.42 145.61-45.42s104.27 16.78 145.61 45.42c12.86 8.91 24.87 18.97 35.87 30.02 46.05 46.29 74.52 110.1 74.52 180.56z" fill="#b2e5f7"/><path d="m437.48 45.42v391.14c-5.57 5.59-11.39 10.93-17.45 15.99-4.88 4.08-9.92 7.98-15.1 11.7-34.65 24.82-75.76 41.21-120.31 46.16-3.718.419-10.907-7.125-14.67-6.872-3.778.255-4.128 8.306-7.951 8.392-1.99.05-3.99.07-6 .07-6.54 0-13.03-.24-19.45-.73-2.852-.216-5.691-9.643-8.517-9.952-3.853-.421-7.682 8.236-11.483 7.642-.34-.04-.67-.1-1.01-.15-4.217-.666-12.496-11.379-16.638-12.25-4.944-1.039-5.735 7.722-10.572 6.4-29.55-8.08-56.97-21.32-81.23-38.71-1.73-1.23-3.44-2.49-5.13-3.78-3.4-2.55-6.74-5.19-10-7.93-6.06-5.05-11.88-10.39-17.45-15.98v-391.14z" fill="#ededed"/><path d="m101.97 56.24v404.23c-3.4-2.55-6.74-5.19-10-7.93-6.06-5.05-11.88-10.39-17.45-15.98v-380.32z" fill="#d1d1d1"/><g><g><path d="m334.095 109.601h75.933v104.669h-75.933z" fill="#6aa2b2"/><path d="m410.028 99.601h-75.933c-5.522 0-10 4.477-10 10v104.669c0 5.523 4.478 10 10 10h75.933c5.522 0 10-4.477 10-10v-104.669c0-5.523-4.478-10-10-10zm-10 20v21.868h-55.933v-21.868zm-55.933 84.669v-42.802h55.933v42.802z" fill="#e0e0e0"/></g><g><path d="m218.034 109.601h75.933v104.669h-75.933z" fill="#6aa2b2"/><path d="m293.966 99.601h-75.933c-5.522 0-10 4.477-10 10v104.669c0 5.523 4.478 10 10 10h75.933c5.522 0 10-4.477 10-10v-104.669c0-5.523-4.477-10-10-10zm-10 20v21.868h-55.933v-21.868zm-55.932 84.669v-42.802h55.933v42.802z" fill="#e0e0e0"/></g><g><path d="m101.972 109.601h75.933v104.669h-75.933z" fill="#6aa2b2"/><path d="m177.905 99.601h-75.933c-5.522 0-10 4.477-10 10v104.669c0 5.523 4.478 10 10 10h75.933c5.522 0 10-4.477 10-10v-104.669c0-5.523-4.478-10-10-10zm-10 20v21.868h-55.933v-21.868zm-55.933 84.669v-42.802h55.933v42.802z" fill="#e0e0e0"/></g></g><path d="m74.52 280.48h362.96v35.4h-362.96z" fill="#d1d1d1"/><path d="m74.52 40.106h362.96v35.4h-362.96z" fill="#d1d1d1"/><g><g><path d="m334.095 349.58h75.933v104.669h-75.933z" fill="#6aa2b2"/><path d="m410.03 339.58h-75.93c-5.53 0-10 4.48-10 10v104.67c0 5.52 4.47 10 10 10h70.83c5.18-3.72 10.22-7.62 15.1-11.7v-102.97c0-5.52-4.48-10-10-10zm-10 104.67h-55.93v-42.8h55.93zm0-62.8h-55.93v-21.87h55.93z" fill="#e0e0e0"/></g><g><path d="m218.034 349.58h75.933v104.669h-75.933z" fill="#6aa2b2"/><path d="m293.966 339.58h-75.933c-5.522 0-10 4.477-10 10v104.67c0 5.523 4.478 10 10 10h75.933c5.522 0 10-4.477 10-10v-104.67c0-5.523-4.477-10-10-10zm-10 20v21.868h-55.933v-21.868zm-55.932 84.67v-42.802h55.933v42.802z" fill="#e0e0e0"/></g><g><path d="m101.972 349.58h75.933v104.669h-75.933z" fill="#6aa2b2"/><path d="m177.9 339.58h-75.93c-5.52 0-10 4.48-10 10v102.96c4.89 4.1 9.94 8 15.13 11.71h70.8c5.53 0 10-4.48 10-10v-104.67c0-5.52-4.47-10-10-10zm-10 104.67h-55.93v-42.8h55.93zm0-62.8h-55.93v-21.87h55.93z" fill="#e0e0e0"/></g></g><g fill="#4e5959"><path d="m96.733 291.83c-5.522 0-10-4.477-10-10v-86.59c0-5.523 4.478-10 10-10s10 4.477 10 10v86.591c0 5.522-4.477 9.999-10 9.999z"/><path d="m176.367 291.83c-5.522 0-10-4.477-10-10v-86.59c0-5.523 4.478-10 10-10s10 4.477 10 10v86.591c0 5.522-4.477 9.999-10 9.999z"/><path d="m256 291.83c-5.522 0-10-4.477-10-10v-86.59c0-5.523 4.478-10 10-10s10 4.477 10 10v86.591c0 5.522-4.478 9.999-10 9.999z"/><path d="m335.633 291.83c-5.522 0-10-4.477-10-10v-86.59c0-5.523 4.478-10 10-10s10 4.477 10 10v86.591c0 5.522-4.478 9.999-10 9.999z"/><path d="m415.267 291.83c-5.522 0-10-4.477-10-10v-86.59c0-5.523 4.478-10 10-10s10 4.477 10 10v86.591c0 5.522-4.478 9.999-10 9.999z"/></g><path d="m445.733 27.718h-379.466c-9.777 0-17.703 7.926-17.703 17.703 0 9.777 7.926 17.703 17.703 17.703h379.466c9.777 0 17.703-7.926 17.703-17.703 0-9.777-7.926-17.703-17.703-17.703z" fill="#c9535d"/><path d="m103.454 57.931c3.21 3.21 7.63 5.19 12.52 5.19h-49.7c-4.89 0-9.32-1.98-12.52-5.19-3.21-3.2-5.19-7.62-5.19-12.51 0-9.78 7.93-17.71 17.71-17.71h49.7c-9.78 0-17.7 7.93-17.7 17.71 0 4.89 1.98 9.31 5.18 12.51z" fill="#b53e4e"/><g><g fill="#4e5959"><path d="m122.04 288.12h20v105.58h-20z"/><path d="m169.29 360.25h20v109.3h-20z"/><path d="m236.55 436.12v75.15c-6.74-.51-13.41-1.28-20-2.31v-72.84z"/></g><path d="m284.62 510.41c-7.45.84-14.99 1.35-22.62 1.52l-120.66-193.69-15.47-24.83 16.98-10.58 22.06 35.41z" fill="#c9535d"/><path d="m215.54 508.81c-9.25-1.46-18.32-3.42-27.21-5.85l-113.81-182.69-1.26-2.03-15.47-24.83 16.73-10.43.24-.15 22.06 35.41 25.22 40.48 20 32.11z" fill="#4e5959"/><path d="m164.91 318.24h-23.57l-15.47-24.83 16.98-10.58z" fill="#b53e4e"/><path d="m96.82 318.24h-23.56l-15.47-24.83 16.73-10.43.24-.15z" fill="#333d3d"/><path d="m122.04 288.12h20v30.12h-20z" fill="#333d3d"/></g><path d="m445.733 270.081h-379.466c-9.777 0-17.703 7.926-17.703 17.703 0 9.777 7.926 17.703 17.703 17.703h379.466c9.777 0 17.703-7.926 17.703-17.703 0-9.777-7.926-17.703-17.703-17.703z" fill="#c9535d"/><path d="m103.454 300.294c3.21 3.21 7.63 5.19 12.52 5.19h-49.7c-4.89 0-9.32-1.98-12.52-5.19-3.21-3.2-5.19-7.62-5.19-12.51 0-9.78 7.93-17.71 17.71-17.71h49.7c-9.78 0-17.7 7.93-17.7 17.71 0 4.89 1.98 9.31 5.18 12.51z" fill="#b53e4e"/><path d="m453.836 205.24h-395.672c-5.522 0-10-4.477-10-10s4.478-10 10-10h395.672c5.522 0 10 4.477 10 10s-4.478 10-10 10z" fill="#c9535d"/><path d="m101.974 205.24h-43.81c-5.52 0-10-4.48-10-10 0-5.53 4.48-10 10-10h43.81c-5.52 0-10 4.47-10 10 0 5.52 4.48 10 10 10z" fill="#b53e4e"/></g></svg>