<svg id="Capa_1" enable-background="new 0 0 512 512" height="512" viewBox="0 0 512 512" width="512" xmlns="http://www.w3.org/2000/svg"><g><path d="m512 256c0 70.76-28.71 134.81-75.11 181.15-9.14 9.12-18.96 17.56-29.39 25.22-39.88 29.33-88.57-28.06-141.36-26.01-3.37.13-6.75.2-10.14.2-67.28 0-128.5 23.01-174.19-19.44-12-11.14-22.93 3.05-32.61-10.2-30.93-42.32-49.2-94.49-49.2-150.92 0-48.53 13.51-93.9 36.96-132.57 29.04-47.88 73.34-85.48 126.15-106.05 28.8-11.22 60.12-17.38 92.89-17.38 61.12 0 117.23 21.42 161.25 57.16 6.85 5.56 13.4 11.46 19.64 17.69 46.4 46.34 75.11 110.39 75.11 181.15z" fill="#b2e5f7"/><path d="m249.33 149.91c0 14.64-11.86 26.51-26.5 26.51h-134.16c-7.32 0-13.95-2.97-18.75-7.76-4.79-4.8-7.76-11.43-7.76-18.75 0-14.2-11.16-25.8-25.2-26.48 29.04-47.88 73.34-85.48 126.15-106.05h6.95c7.32 0 13.95 2.97 18.74 7.76 4.8 4.8 7.77 11.43 7.77 18.75 0 14.64-11.87 26.5-26.51 26.5h-16.66c-14.64 0-26.5 11.87-26.5 26.51s11.86 26.5 26.5 26.5h69.43c7.32 0 13.95 2.97 18.74 7.76 4.79 4.8 7.76 11.43 7.76 18.75z" fill="#d0f5ff"/><path d="m512 256c0 13.16-.99 26.09-2.92 38.71h-26.49c-7.32 0-13.95-2.97-18.74-7.77-4.79-4.79-7.76-11.42-7.76-18.74 0-14.64-11.87-26.5-26.51-26.5h-75.58c-7.32 0-13.94-2.97-18.74-7.76-4.8-4.8-7.76-11.43-7.76-18.75 0-14.64 11.86-26.5 26.5-26.5h31.13c7.31 0 13.94-2.97 18.74-7.77 4.79-4.79 7.76-11.42 7.76-18.74 0-14.64 11.87-26.5 26.51-26.5h43.87c19.14 35.87 29.99 76.83 29.99 120.32z" fill="#d0f5ff"/><path d="m436.89 49.83v387.32c-9.138 9.122-18.962 17.558-29.388 25.224-25.352 18.64-54.264-10.612-85.525-2.295-17.917 4.767-36.605 50.975-55.838 51.724-3.363.131-6.743.197-10.139.197-84.95 0-160.23-41.38-206.8-105.08v-212.33l32.61-12.18 335.44-125.25z" fill="#7761b5"/><path d="m81.81 182.41v261.18c-12-11.14-22.93-23.42-32.61-36.67v-212.33z" fill="#614fa3"/><path d="m436.89 49.83v39.83l-387.69 144.75v-39.82z" fill="#614fa3"/><path d="m463.928 56.412-431.646 161.174c-11.069 4.133-23.392-1.49-27.525-12.558l-3.303-8.845c-4.133-11.069 1.49-23.392 12.558-27.525l431.647-161.174c11.069-4.133 23.392 1.49 27.525 12.558l3.303 8.845c4.133 11.068-1.49 23.392-12.559 27.525z" fill="#f4d84f"/><path d="m29.292 200.768 3.3 8.84c.91 2.42 2.21 4.59 3.8 6.44l-4.11 1.53c-11.07 4.14-23.4-1.48-27.53-12.55l-3.3-8.85c-4.13-11.07 1.49-23.39 12.56-27.52l431.64-161.18c8.65-3.23 18.06-.5 23.74 6.12l-427.54 159.64c-11.07 4.139-16.69 16.459-12.56 27.53z" fill="#efc24d"/><g><path d="m293.163 154.552h87.311v120.354h-87.311z" fill="#6aa2b2" transform="matrix(0 1 -1 0 551.548 -122.09)"/><path d="m408.495 258.385v-87.311c0-6.35-5.148-11.499-11.499-11.499h-120.354c-6.351 0-11.499 5.149-11.499 11.499v87.311c0 6.35 5.148 11.499 11.499 11.499h120.354c6.351-.001 11.499-5.149 11.499-11.499zm-22.997-11.499h-36.643v-64.314h36.643zm-97.358-64.314h37.717v64.314h-37.717z" fill="#ededed"/><g fill="#e0e0e0"><path d="m325.857 182.572h12.036v64.314h-12.036z"/><path d="m385.498 182.572h12.036v64.314h-12.036z"/><path d="m277.179 258.385v-87.311c0-6.35 5.148-11.499 11.499-11.499h-12.036c-6.351 0-11.499 5.149-11.499 11.499v87.311c0 6.35 5.148 11.499 11.499 11.499h12.036c-6.351-.001-11.499-5.149-11.499-11.499z"/></g></g><g><path d="m407.5 322.59v139.78c-6.89 5.07-14.03 9.79-21.42 14.15-29.55 17.48-62.9 29.18-98.52 33.55-7.06.87-14.2 1.45-21.42 1.73v-189.21c0-13.85 11.23-25.09 25.09-25.09h91.18c13.86 0 25.09 11.24 25.09 25.09z" fill="#ededed"/><path d="m306.81 297.5c-13.86 0-25.09 11.24-25.09 25.09v188.13c-5.15.521-10.34.88-15.58 1.08v-189.21c0-13.85 11.23-25.09 25.09-25.09z" fill="#e0e0e0"/><path d="m386.08 322.59v153.93c-29.55 17.48-62.9 29.18-98.52 33.55v-187.48c0-2.02 1.65-3.66 3.67-3.66h91.18c2.02 0 3.67 1.64 3.67 3.66z" fill="#614fa3"/><circle cx="359.796" cy="400.734" fill="#ededed" r="16.386"/></g><g><g><path d="m181.468 421.341h-42.444c-12.409 0-22.468-10.059-22.468-22.468v-94.325c0-12.409 10.059-22.468 22.468-22.468h42.444c12.409 0 22.468 10.059 22.468 22.468v94.325c0 12.409-10.059 22.468-22.468 22.468z" fill="#598f98"/><path d="m181.468 268.934h-42.444c-19.638 0-35.615 15.977-35.615 35.615v94.325c0 19.638 15.977 35.615 35.615 35.615h42.444c19.638 0 35.615-15.977 35.615-35.615v-94.325c0-19.639-15.977-35.615-35.615-35.615zm9.32 35.615v37.299h-20.681v-46.619h11.361c5.139 0 9.32 4.181 9.32 9.32zm-51.764-9.32h11.362v46.619h-20.682v-37.299c0-5.139 4.181-9.32 9.32-9.32zm-9.32 103.645v-37.305h20.682v46.625h-11.362c-5.139 0-9.32-4.181-9.32-9.32zm51.764 9.32h-11.361v-46.625h20.681v37.305c0 5.139-4.181 9.32-9.32 9.32z" fill="#ededed"/><g fill="#e0e0e0"><path d="m203.554 398.874v-37.305h-12.766v37.305c0 4.66-3.442 8.521-7.915 9.203v.117h11.362c5.138 0 9.319-4.181 9.319-9.32z"/><path d="m190.788 304.549v37.299h12.766v-37.299c0-5.139-4.181-9.32-9.32-9.32h-11.362v.117c4.474.681 7.916 4.542 7.916 9.203z"/><path d="m163.151 408.194v-46.625h-12.766v46.507c.46.07.927.118 1.405.118z"/><path d="m116.175 398.874v-94.325c0-19.638 15.977-35.615 35.615-35.615h-12.766c-19.638 0-35.615 15.977-35.615 35.615v94.325c0 19.638 15.977 35.615 35.615 35.615h12.766c-19.638 0-35.615-15.977-35.615-35.615z"/><path d="m163.151 295.229h-11.361c-.479 0-.946.048-1.405.118v46.501h12.766z"/></g></g><path d="m210.4 421.341h-100.308c-8.352 0-15.123 6.771-15.123 15.123 0 8.352 6.771 15.123 15.123 15.123h100.308c8.352 0 15.123-6.771 15.123-15.123 0-8.352-6.771-15.123-15.123-15.123z" fill="#4f408e"/></g></g></svg>