<svg id="Capa_1" enable-background="new 0 0 512 512" height="512" viewBox="0 0 512 512" width="512" xmlns="http://www.w3.org/2000/svg"><g><path d="m512 256c0 46.55-12.43 90.19-34.14 127.8-18.46 31.99-43.65 9.408-73.63 30.718-7.5 5.34-15.29 10.28-23.36 14.8-36.94 20.68-79.53 37.337-124.87 37.337s-87.93-16.657-124.87-37.337c-8.07-4.52-15.86-9.46-23.36-14.8-23.03-16.37-43.24-36.48-59.73-59.42-4.99-6.92-9.62 36.112-13.9 28.702-21.71-37.61-34.14-81.25-34.14-127.8s12.43-90.19 34.14-127.8c4.28-7.41 8.92-14.59 13.9-21.51 12.97-18.04 28.22-34.31 45.34-48.41 44.22-36.41 100.87-58.28 162.62-58.28s118.4 21.87 162.62 58.28c23.69 19.51 43.81 43.19 59.24 69.92 21.71 37.61 34.14 81.25 34.14 127.8z" fill="#b2e5f7"/><g><path d="m477.86 58.28v325.52c-6.24 10.81-13.24 21.12-20.94 30.85-2.43 3.07-4.93 6.09-7.5 9.05-2.44 2.81-4.94 5.57-7.5 8.28-16.27 17.19-32.214 12.922-52.684 25.072-1.88 1.12-15.776 21.408-17.686 22.478h-210.981c-8.068-4.516-45.306-9.457-52.805-14.792-29.976-21.326-55.163-48.95-73.624-80.938v-325.52z" fill="#c9535d"/><g fill="#b53e4e"><path d="m48.04 58.28v347.03c-4.99-6.92-9.62-14.1-13.9-21.51v-325.52z"/><path d="m34.136 50.279h443.728v53.104h-443.728z" transform="matrix(-1 0 0 -1 512 153.662)"/><path d="m34.136 283.726h443.728v37.466h-443.728z" transform="matrix(-1 0 0 -1 512 604.919)"/></g><path d="m25.872 86.623h460.256c8.213 0 14.872-6.658 14.872-14.872v-26.944c0-8.213-6.658-14.872-14.872-14.872h-460.256c-8.214 0-14.872 6.658-14.872 14.872v26.944c0 8.213 6.658 14.872 14.872 14.872z" fill="#ededed"/><path d="m379.05 129.627h70.371v135.855h-70.371z" fill="#e0e0e0" transform="matrix(-1 0 0 -1 828.471 395.109)"/><path d="m273.56 129.627h70.371v56.036h-70.371z" fill="#6aa2b2" transform="matrix(-1 0 0 -1 617.491 315.29)"/><path d="m168.069 129.627h70.371v135.855h-70.371z" fill="#e0e0e0" transform="matrix(-1 0 0 -1 406.51 395.109)"/><path d="m449.42 343.67v80.03c-19.38 22.34-42.57 41.29-68.55 55.83h-1.82v-135.86z" fill="#e0e0e0"/><path d="m168.069 343.672h70.371v135.855h-70.371z" fill="#e0e0e0" transform="matrix(-1 0 0 -1 406.51 823.199)"/><path d="m62.579 129.627h70.371v56.036h-70.371z" fill="#6aa2b2" transform="matrix(-1 0 0 -1 195.529 315.29)"/><g fill="#b53e4e"><path d="m371.55 265.482h15v-128.355h55.371v128.355h15v-135.855c0-4.142-3.358-7.5-7.5-7.5h-70.371c-4.142 0-7.5 3.358-7.5 7.5z"/><path d="m266.06 185.663v-56.036c0-4.142 3.358-7.5 7.5-7.5h70.371c4.142 0 7.5 3.358 7.5 7.5v56.036c0 4.142-3.358 7.5-7.5 7.5h-70.371c-4.142 0-7.5-3.358-7.5-7.5zm70.371-48.536h-55.371v41.036h55.371z"/><path d="m160.569 265.482h15v-128.355h55.371v128.355h15v-135.855c0-4.142-3.357-7.5-7.5-7.5h-70.371c-4.143 0-7.5 3.358-7.5 7.5z"/><path d="m55.079 185.663v-56.036c0-4.142 3.357-7.5 7.5-7.5h70.371c4.143 0 7.5 3.358 7.5 7.5v56.036c0 4.142-3.357 7.5-7.5 7.5h-70.371c-4.143 0-7.5-3.358-7.5-7.5zm70.371-48.536h-55.371v41.036h55.371z"/></g><g><path d="m273.56 343.672h70.371v56.036h-70.371z" fill="#6aa2b2" transform="matrix(-1 0 0 -1 617.491 743.38)"/><path d="m62.579 343.672h70.371v56.036h-70.371z" fill="#6aa2b2" transform="matrix(-1 0 0 -1 195.529 743.38)"/><g fill="#b53e4e"><path d="m456.92 343.67v70.98c-2.43 3.07-4.93 6.09-7.5 9.05-2.44 2.81-4.94 5.57-7.5 8.28v-80.81h-55.37v125.08c-1.88 1.12-3.77 2.21-5.68 3.28h-9.32v-135.86c0-4.14 3.36-7.5 7.5-7.5h70.37c4.14 0 7.5 3.36 7.5 7.5z"/><path d="m266.06 399.708v-56.036c0-4.142 3.358-7.5 7.5-7.5h70.371c4.142 0 7.5 3.358 7.5 7.5v56.036c0 4.142-3.358 7.5-7.5 7.5h-70.371c-4.142 0-7.5-3.358-7.5-7.5zm70.371-48.536h-55.371v41.036h55.371z"/><path d="m160.569 479.527h15v-128.355h55.371v128.355h15v-135.855c0-4.142-3.357-7.5-7.5-7.5h-70.371c-4.143 0-7.5 3.358-7.5 7.5z"/><path d="m55.079 399.708v-56.036c0-4.142 3.357-7.5 7.5-7.5h70.371c4.143 0 7.5 3.358 7.5 7.5v56.036c0 4.142-3.357 7.5-7.5 7.5h-70.371c-4.143 0-7.5-3.358-7.5-7.5zm70.371-48.536h-55.371v41.036h55.371z"/></g></g><path d="m430.927 427.73c6.811 0 10.061-8.779 4.87-13.201-5.232-4.456-13.441.221-12.253 6.989.623 3.548 3.771 6.212 7.383 6.212z" fill="#525362"/><path d="m218.977 427.73c6.465 0 9.871-8.026 5.408-12.688-4.703-4.913-13.228-1.191-12.899 5.556.193 3.946 3.54 7.132 7.491 7.132z" fill="#525362"/><path d="m430.927 205.243c6.811 0 10.061-8.779 4.87-13.201-5.232-4.456-13.441.221-12.253 6.989.623 3.548 3.771 6.212 7.383 6.212z" fill="#525362"/><g><g><path d="m46.313 210.243h19.665v65.382h-19.665z" fill="#4e5959"/><g fill="#333d3d"><path d="m46.313 210.243h19.665v19.665h-19.665z"/><path d="m46.313 210.243h7.7v65.382h-7.7z"/></g></g><g><path d="m112.931 210.243h19.665v65.382h-19.665z" fill="#4e5959"/><g fill="#333d3d"><path d="m112.931 210.243h19.665v19.665h-19.665z"/><path d="m112.931 210.243h7.7v65.382h-7.7z"/></g></g><g><path d="m179.549 210.243h19.665v65.382h-19.665z" fill="#4e5959"/><g fill="#333d3d"><path d="m179.549 210.243h19.665v19.665h-19.665z"/><path d="m179.549 210.243h7.7v65.382h-7.7z"/></g></g><g><path d="m246.167 210.243h19.665v65.382h-19.665z" fill="#4e5959"/><g fill="#333d3d"><path d="m246.167 210.243h19.665v19.665h-19.665z"/><path d="m246.167 210.243h7.7v65.382h-7.7z"/></g></g><g><path d="m312.786 210.243h19.665v65.382h-19.665z" fill="#4e5959"/><g fill="#333d3d"><path d="m312.786 210.243h19.665v19.665h-19.665z"/><path d="m312.786 210.243h7.7v65.382h-7.7z"/></g></g><g><path d="m379.404 210.243h19.665v65.382h-19.665z" fill="#4e5959"/><g fill="#333d3d"><path d="m379.404 210.243h19.665v19.665h-19.665z"/><path d="m379.404 210.243h7.7v65.382h-7.7z"/></g></g><g><path d="m446.022 210.243h19.665v65.382h-19.665z" fill="#4e5959"/><g fill="#333d3d"><path d="m446.022 210.243h19.665v19.665h-19.665z"/><path d="m446.022 210.243h7.7v65.382h-7.7z"/></g></g></g><path d="m218.977 205.243c6.465 0 9.871-8.026 5.408-12.688-4.703-4.913-13.228-1.191-12.899 5.556.193 3.946 3.54 7.132 7.491 7.132z" fill="#525362"/><path d="m28.593 300.667h454.815c9.716 0 17.593-7.877 17.593-17.593 0-9.716-7.877-17.593-17.593-17.593h-454.815c-9.716 0-17.593 7.876-17.593 17.593 0 9.717 7.877 17.593 17.593 17.593z" fill="#ededed"/><path d="m82.36 86.627h-56.49c-8.21 0-14.87-6.66-14.87-14.87v-26.95c0-8.21 6.66-14.87 14.87-14.87h56.49c-8.21 0-14.87 6.66-14.87 14.87v26.95c0 8.21 6.66 14.87 14.87 14.87z" fill="#e0e0e0"/><path d="m72.64 295.517c3.19 3.18 7.58 5.15 12.44 5.15h-56.49c-4.85 0-9.25-1.97-12.44-5.15-3.18-3.18-5.15-7.58-5.15-12.44 0-9.72 7.88-17.59 17.59-17.59h56.49c-9.71 0-17.59 7.87-17.59 17.59 0 4.86 1.97 9.26 5.15 12.44z" fill="#e0e0e0"/><path d="m404.23 464.73c-7.5 5.34-15.29 10.28-23.36 14.8-36.94 20.68-79.53 32.47-124.87 32.47s-87.93-11.79-124.87-32.47c-8.07-4.52-15.86-9.46-23.36-14.8z" fill="#ededed"/><path d="m22.523 220.493h466.954c6.364 0 11.523-5.159 11.523-11.523 0-6.364-5.159-11.523-11.523-11.523h-466.954c-6.364 0-11.523 5.159-11.523 11.523 0 6.364 5.159 11.523 11.523 11.523z" fill="#ededed"/><path d="m75.01 217.12c2.09 2.08 4.97 3.37 8.15 3.37h-60.64c-3.18 0-6.06-1.29-8.14-3.37-2.09-2.09-3.38-4.97-3.38-8.15 0-6.36 5.16-11.52 11.52-11.52h60.64c-6.37 0-11.52 5.16-11.52 11.52 0 3.18 1.29 6.06 3.37 8.15z" fill="#e0e0e0"/></g></g></svg>