<svg id="Capa_1" enable-background="new 0 0 512 512" height="512" viewBox="0 0 512 512" width="512" xmlns="http://www.w3.org/2000/svg"><g><path d="m512 256c0 71.96-29.7 137-77.5 183.51-46.12 44.85-109.08-22.982-178.5-22.982-59.14 0-113.59 36.828-156.93 3.158-6.81-5.28-13.34 27.675-19.57 21.745-48.97-46.631-79.5-112.471-79.5-185.431 0-141.38 114.62-256 256-256s256 114.62 256 256z" fill="#b2e5f7"/><g><path d="m434.5 89.78v349.73c-46.12 44.85-109.08 72.49-178.5 72.49-68.42 0-130.57-26.85-176.5-70.57v-351.65l19.57-7.85 157.93-63.39z" fill="#7761b5"/><path d="m434.499 89.781v49.087l-177.498-71.238-177.498 71.238v-49.087l177.498-71.238z" fill="#614fa3"/><path d="m99.07 81.93v376.34c-6.81-5.28-13.34-10.91-19.57-16.84v-351.65z" fill="#614fa3"/><path d="m470.356 134.533-213.36-85.634-213.358 85.634c-8.954 3.594-19.125-.752-22.719-9.705l-3.921-9.77c-3.593-8.953.752-19.125 9.705-22.718l223.526-89.716c4.343-1.743 9.192-1.743 13.535 0l223.526 89.715c8.953 3.594 13.298 13.765 9.705 22.718l-3.921 9.77c-3.593 8.954-13.765 13.3-22.718 9.706z" fill="#ededed"/><path d="m492.796 125.493c-3.82 8.5-13.7 12.55-22.44 9.04l-213.36-85.634 22.5-9.03z" fill="#e0e0e0"/><path d="m276.859 7.884c-.76.19-1.5.44-2.23.73l-223.53 89.72c-8.95 3.59-13.29 13.76-9.7 22.72l3.92 9.77c.36.89.78 1.73 1.26 2.53l-2.95 1.18c-8.95 3.59-19.12-.75-22.71-9.71l-3.92-9.77c-3.6-8.95.75-19.12 9.7-22.71l223.53-89.72c4.34-1.74 9.19-1.74 13.53 0z" fill="#e0e0e0"/><circle cx="256.997" cy="135.726" fill="#598f98" r="47.769"/><g><g fill="#598f98"><path d="m164.265 319.893h-32.283c-9.438 0-17.089-7.651-17.089-17.089v-71.744c0-9.438 7.651-17.089 17.089-17.089h32.283c9.438 0 17.089 7.651 17.089 17.089v71.744c0 9.438-7.651 17.089-17.089 17.089z"/><path d="m273.138 319.893h-32.283c-9.438 0-17.089-7.651-17.089-17.089v-71.744c0-9.438 7.651-17.089 17.089-17.089h32.283c9.438 0 17.089 7.651 17.089 17.089v71.744c0 9.438-7.651 17.089-17.089 17.089z"/><path d="m382.011 319.893h-32.283c-9.438 0-17.089-7.651-17.089-17.089v-71.744c0-9.438 7.651-17.089 17.089-17.089h32.283c9.438 0 17.089 7.651 17.089 17.089v71.744c0 9.438-7.651 17.089-17.089 17.089z"/></g><path d="m164.265 203.972h-32.283c-14.937 0-27.089 12.152-27.089 27.089v71.744c0 14.937 12.152 27.089 27.089 27.089h32.283c14.937 0 27.089-12.152 27.089-27.089v-71.744c0-14.937-12.152-27.089-27.089-27.089zm7.089 27.089v28.37h-15.73v-35.458h8.642c3.907-.001 7.088 3.179 7.088 7.088zm-39.372-7.089h8.641v35.458h-15.73v-28.37c0-3.908 3.18-7.088 7.089-7.088zm-7.089 78.832v-28.374h15.73v35.463h-8.641c-3.909 0-7.089-3.18-7.089-7.089zm39.372 7.089h-8.642v-35.463h15.73v28.374c.001 3.909-3.18 7.089-7.088 7.089z" fill="#ededed"/><g fill="#e0e0e0"><path d="m181.064 302.804v-28.374h-9.71v28.374c0 3.545-2.618 6.481-6.02 7v.089h8.642c3.907 0 7.088-3.18 7.088-7.089z"/><path d="m171.354 231.061v28.37h9.71v-28.37c0-3.909-3.18-7.089-7.089-7.089h-8.642v.089c3.402.518 6.021 3.455 6.021 7z"/><path d="m150.333 309.893v-35.463h-9.71v35.373c.35.053.705.09 1.069.09z"/><path d="m114.603 302.804v-71.744c0-14.937 12.152-27.089 27.089-27.089h-9.71c-14.937 0-27.089 12.152-27.089 27.089v71.744c0 14.937 12.152 27.089 27.089 27.089h9.71c-14.937 0-27.089-12.152-27.089-27.089z"/><path d="m150.333 223.972h-8.641c-.364 0-.719.036-1.069.09v35.369h9.71z"/></g><path d="m273.138 203.972h-32.283c-14.937 0-27.089 12.152-27.089 27.089v71.744c0 14.937 12.152 27.089 27.089 27.089h32.283c14.937 0 27.089-12.152 27.089-27.089v-71.744c0-14.937-12.152-27.089-27.089-27.089zm7.089 27.089v28.37h-15.73v-35.458h8.642c3.908-.001 7.088 3.179 7.088 7.088zm-39.372-7.089h8.642v35.458h-15.73v-28.37c-.001-3.908 3.179-7.088 7.088-7.088zm-7.089 78.832v-28.374h15.73v35.463h-8.642c-3.908 0-7.088-3.18-7.088-7.089zm39.372 7.089h-8.642v-35.463h15.73v28.374c.001 3.909-3.179 7.089-7.088 7.089z" fill="#ededed"/><path d="m382.011 203.972h-32.283c-14.937 0-27.089 12.152-27.089 27.089v71.744c0 14.937 12.152 27.089 27.089 27.089h32.283c14.937 0 27.089-12.152 27.089-27.089v-71.744c0-14.937-12.152-27.089-27.089-27.089zm7.089 27.089v28.37h-15.73v-35.458h8.641c3.909-.001 7.089 3.179 7.089 7.088zm-39.371-7.089h8.642v35.458h-15.73v-28.37c-.001-3.908 3.179-7.088 7.088-7.088zm-7.089 78.832v-28.374h15.73v35.463h-8.642c-3.908 0-7.088-3.18-7.088-7.089zm39.371 7.089h-8.641v-35.463h15.73v28.374c0 3.909-3.18 7.089-7.089 7.089z" fill="#ededed"/><g fill="#e0e0e0"><path d="m289.937 302.804v-28.374h-9.71v28.374c0 3.545-2.618 6.481-6.02 7v.089h8.642c3.907 0 7.088-3.18 7.088-7.089z"/><path d="m280.227 231.061v28.37h9.71v-28.37c0-3.909-3.18-7.089-7.089-7.089h-8.642v.089c3.402.518 6.021 3.455 6.021 7z"/><path d="m259.206 309.893v-35.463h-9.71v35.373c.35.053.705.09 1.069.09z"/><path d="m223.476 302.804v-71.744c0-14.937 12.152-27.089 27.089-27.089h-9.71c-14.937 0-27.089 12.152-27.089 27.089v71.744c0 14.937 12.152 27.089 27.089 27.089h9.71c-14.937 0-27.089-12.152-27.089-27.089z"/><path d="m259.206 223.972h-8.641c-.364 0-.719.036-1.069.09v35.369h9.71z"/></g><g fill="#e0e0e0"><path d="m398.81 302.804v-28.374h-9.71v28.374c0 3.545-2.618 6.481-6.02 7v.089h8.642c3.908 0 7.088-3.18 7.088-7.089z"/><path d="m389.1 231.061v28.37h9.71v-28.37c0-3.909-3.18-7.089-7.089-7.089h-8.642v.089c3.403.518 6.021 3.455 6.021 7z"/><path d="m368.08 309.893v-35.463h-9.71v35.373c.35.053.705.09 1.069.09z"/><path d="m332.35 302.804v-71.744c0-14.937 12.152-27.089 27.089-27.089h-9.71c-14.937 0-27.089 12.152-27.089 27.089v71.744c0 14.937 12.152 27.089 27.089 27.089h9.71c-14.937 0-27.089-12.152-27.089-27.089z"/><path d="m368.08 223.972h-8.641c-.364 0-.719.036-1.069.09v35.369h9.71z"/></g></g><g><g fill="#598f98"><path d="m164.265 461.99h-32.283c-9.438 0-17.089-7.651-17.089-17.089v-71.744c0-9.438 7.651-17.089 17.089-17.089h32.283c9.438 0 17.089 7.651 17.089 17.089v71.744c0 9.439-7.651 17.089-17.089 17.089z"/><path d="m273.138 461.99h-32.283c-9.438 0-17.089-7.651-17.089-17.089v-71.744c0-9.438 7.651-17.089 17.089-17.089h32.283c9.438 0 17.089 7.651 17.089 17.089v71.744c0 9.439-7.651 17.089-17.089 17.089z"/><path d="m382.011 461.99h-32.283c-9.438 0-17.089-7.651-17.089-17.089v-71.744c0-9.438 7.651-17.089 17.089-17.089h32.283c9.438 0 17.089 7.651 17.089 17.089v71.744c0 9.439-7.651 17.089-17.089 17.089z"/></g><path d="m164.265 346.069h-32.283c-14.937 0-27.089 12.152-27.089 27.089v71.744c0 14.937 12.152 27.089 27.089 27.089h32.283c14.937 0 27.089-12.152 27.089-27.089v-71.744c0-14.937-12.152-27.089-27.089-27.089zm7.089 27.089v28.37h-15.73v-35.458h8.642c3.907-.001 7.088 3.179 7.088 7.088zm-39.372-7.089h8.641v35.458h-15.73v-28.37c0-3.908 3.18-7.088 7.089-7.088zm-7.089 78.833v-28.374h15.73v35.463h-8.641c-3.909-.001-7.089-3.181-7.089-7.089zm39.372 7.088h-8.642v-35.463h15.73v28.374c.001 3.909-3.18 7.089-7.088 7.089z" fill="#ededed"/><g fill="#e0e0e0"><path d="m181.064 444.902v-28.374h-9.71v28.374c0 3.545-2.618 6.481-6.02 7v.089h8.642c3.907-.001 7.088-3.181 7.088-7.089z"/><path d="m171.354 373.158v28.37h9.71v-28.37c0-3.909-3.18-7.089-7.089-7.089h-8.642v.089c3.402.519 6.021 3.455 6.021 7z"/><path d="m150.333 451.99v-35.463h-9.71v35.373c.35.053.705.09 1.069.09z"/><path d="m114.603 444.902v-71.744c0-14.937 12.152-27.089 27.089-27.089h-9.71c-14.937 0-27.089 12.152-27.089 27.089v71.744c0 14.937 12.152 27.089 27.089 27.089h9.71c-14.937-.001-27.089-12.152-27.089-27.089z"/><path d="m150.333 366.069h-8.641c-.364 0-.719.036-1.069.09v35.369h9.71z"/></g><path d="m273.138 346.069h-32.283c-14.937 0-27.089 12.152-27.089 27.089v71.744c0 14.937 12.152 27.089 27.089 27.089h32.283c14.937 0 27.089-12.152 27.089-27.089v-71.744c0-14.937-12.152-27.089-27.089-27.089zm7.089 27.089v28.37h-15.73v-35.458h8.642c3.908-.001 7.088 3.179 7.088 7.088zm-39.372-7.089h8.642v35.458h-15.73v-28.37c-.001-3.908 3.179-7.088 7.088-7.088zm-7.089 78.833v-28.374h15.73v35.463h-8.642c-3.908-.001-7.088-3.181-7.088-7.089zm39.372 7.088h-8.642v-35.463h15.73v28.374c.001 3.909-3.179 7.089-7.088 7.089z" fill="#ededed"/><path d="m382.011 346.069h-32.283c-14.937 0-27.089 12.152-27.089 27.089v71.744c0 14.937 12.152 27.089 27.089 27.089h32.283c14.937 0 27.089-12.152 27.089-27.089v-71.744c0-14.937-12.152-27.089-27.089-27.089zm7.089 27.089v28.37h-15.73v-35.458h8.641c3.909-.001 7.089 3.179 7.089 7.088zm-39.371-7.089h8.642v35.458h-15.73v-28.37c-.001-3.908 3.179-7.088 7.088-7.088zm-7.089 78.833v-28.374h15.73v35.463h-8.642c-3.908-.001-7.088-3.181-7.088-7.089zm39.371 7.088h-8.641v-35.463h15.73v28.374c0 3.909-3.18 7.089-7.089 7.089z" fill="#ededed"/><g fill="#e0e0e0"><path d="m289.937 444.902v-28.374h-9.71v28.374c0 3.545-2.618 6.481-6.02 7v.089h8.642c3.907-.001 7.088-3.181 7.088-7.089z"/><path d="m280.227 373.158v28.37h9.71v-28.37c0-3.909-3.18-7.089-7.089-7.089h-8.642v.089c3.402.519 6.021 3.455 6.021 7z"/><path d="m259.206 451.99v-35.463h-9.71v35.373c.35.053.705.09 1.069.09z"/><path d="m223.476 444.902v-71.744c0-14.937 12.152-27.089 27.089-27.089h-9.71c-14.937 0-27.089 12.152-27.089 27.089v71.744c0 14.937 12.152 27.089 27.089 27.089h9.71c-14.937-.001-27.089-12.152-27.089-27.089z"/><path d="m259.206 366.069h-8.641c-.364 0-.719.036-1.069.09v35.369h9.71z"/></g><g fill="#e0e0e0"><path d="m398.81 444.902v-28.374h-9.71v28.374c0 3.545-2.618 6.481-6.02 7v.089h8.642c3.908-.001 7.088-3.181 7.088-7.089z"/><path d="m389.1 373.158v28.37h9.71v-28.37c0-3.909-3.18-7.089-7.089-7.089h-8.642v.089c3.403.519 6.021 3.455 6.021 7z"/><path d="m368.08 451.99v-35.463h-9.71v35.373c.35.053.705.09 1.069.09z"/><path d="m332.35 444.902v-71.744c0-14.937 12.152-27.089 27.089-27.089h-9.71c-14.937 0-27.089 12.152-27.089 27.089v71.744c0 14.937 12.152 27.089 27.089 27.089h9.71c-14.937-.001-27.089-12.152-27.089-27.089z"/><path d="m368.08 366.069h-8.641c-.364 0-.719.036-1.069.09v35.369h9.71z"/></g></g><path d="m257 77.96c-31.86 0-57.77 25.91-57.77 57.77 0 31.85 25.91 57.77 57.77 57.77 31.85 0 57.77-25.92 57.77-57.77 0-31.86-25.92-57.77-57.77-57.77zm-7.5 94.78c-14.82-2.99-26.52-14.69-29.52-29.51h29.52zm0-44.51h-29.52c3-14.82 14.7-26.52 29.52-29.52zm15-29.52c14.66 2.97 26.27 14.45 29.4 29.04.04.16.08.32.11.48h-29.51zm0 44.52h29.51c-.03.16-.07.32-.11.48-3.13 14.59-14.74 26.07-29.4 29.03z" fill="#ededed"/><g fill="#e0e0e0"><path d="m306.82 128.23h-12.81c-.03-.16-.07-.32-.11-.48-3.13-14.59-14.74-26.07-29.4-29.04h12.8c14.82 3 26.52 14.7 29.52 29.52z"/><path d="m306.82 143.23c-3 14.82-14.7 26.52-29.52 29.51h-12.8c14.66-2.96 26.27-14.44 29.4-29.03.04-.16.08-.32.11-.48z"/><path d="m212.036 135.727c0-29.688 22.515-54.208 51.365-57.405-2.104-.233-4.239-.363-6.404-.363-31.854 0-57.769 25.915-57.769 57.769s25.915 57.769 57.769 57.769c2.165 0 4.3-.13 6.404-.363-28.85-3.2-51.365-27.719-51.365-57.407z"/><path d="m249.497 143.227h9.498v29.518h-9.498z"/><path d="m249.497 98.708h9.498v29.518h-9.498z"/></g></g></g></svg>