<svg id="Capa_1" enable-background="new 0 0 512 512" height="512" viewBox="0 0 512 512" width="512" xmlns="http://www.w3.org/2000/svg"><g><path d="m512 256c0 44.1-11.151 85.596-30.787 121.821-43.318 79.913-127.928 101.533-225.213 101.533-97.202 0-181.751-21.527-225.102-101.329-19.705-36.274-30.898-77.842-30.898-122.025 0-141.385 114.615-256 256-256s256 114.615 256 256z" fill="#b2e5f7"/><g fill="#efc24d"><path d="m35.849 94.931h18.396v166.202h-18.396z"/><path d="m85.519 199.663h18.396v61.471h-18.396z"/><path d="m135.189 94.931h18.396v166.202h-18.396z"/><path d="m184.86 199.663h18.396v61.471h-18.396z"/></g><path d="m481.21 377.82c-43.32 79.91-127.93 134.18-225.21 134.18s-181.89-54.27-225.21-134.18c6.08-5.71 14.26-9.2 23.26-9.2 12.17 0 22.84 6.4 28.85 16.02 6-9.62 16.67-16.02 28.85-16.02 12.17 0 22.84 6.4 28.85 16.02 6-9.62 16.68-16.02 28.85-16.02s22.84 6.4 28.85 16.02c6-9.62 16.68-16.02 28.85-16.02s22.84 6.4 28.85 16.02c6.01-9.62 16.68-16.02 28.85-16.02s22.85 6.4 28.85 16.02c6.01-9.62 16.68-16.02 28.85-16.02s22.85 6.4 28.85 16.02c6.01-9.62 16.68-16.02 28.85-16.02 12.18 0 22.85 6.4 28.85 16.02 6.01-9.62 16.68-16.02 28.85-16.02 9 0 17.18 3.49 23.26 9.2z" fill="#598f98"/><path d="m413.58 300.46v36.12c0 11.41-9.25 20.65-20.65 20.65h-275.87c-11.41 0-20.66-9.24-20.66-20.65v-36.12z" fill="#aa6951"/><path d="m96.4 300.46h317.18v14.8h-317.18z" fill="#934e3c"/><path d="m246.349 225.223h-212.518c-4.774 0-8.644 3.87-8.644 8.644 0 4.774 3.87 8.644 8.644 8.644h212.518c4.774 0 8.644-3.87 8.644-8.644 0-4.774-3.87-8.644-8.644-8.644z" fill="#f4d84f"/><path d="m246.349 191.014h-212.518c-4.774 0-8.644 3.87-8.644 8.644 0 4.774 3.87 8.644 8.644 8.644h212.518c4.774 0 8.644-3.87 8.644-8.644 0-4.774-3.87-8.644-8.644-8.644z" fill="#f4d84f"/><path d="m58.797 239.988c1.56 1.56 3.72 2.53 6.11 2.53h-31.08c-2.39 0-4.55-.97-6.11-2.53-1.56-1.57-2.53-3.729-2.53-6.12 0-4.77 3.87-8.64 8.64-8.64h31.08c-4.77 0-8.64 3.87-8.64 8.64 0 2.39.97 4.55 2.53 6.12z" fill="#efc24d"/><path d="m58.797 205.778c1.56 1.56 3.72 2.53 6.11 2.53h-31.08c-2.39 0-4.55-.97-6.11-2.53-1.56-1.57-2.53-3.73-2.53-6.12 0-4.77 3.87-8.64 8.64-8.64h31.08c-4.77 0-8.64 3.87-8.64 8.64 0 2.39.97 4.55 2.53 6.12z" fill="#efc24d"/><path d="m159.423 357.237h-42.36c-11.41 0-20.66-9.25-20.66-20.66v-36.11h42.36v36.11c0 11.41 9.25 20.66 20.66 20.66z" fill="#934e3c"/><path d="m194.545 337.257h-35.493c-19.329 0-34.999 15.67-34.999 34.999v84.499h105.491v-84.499c0-19.329-15.669-34.999-34.999-34.999z" fill="#d1d1d1"/><path d="m348.795 357.257h-35.493c-19.329 0-34.999 15.67-34.999 34.999v84.499h105.491v-84.499c0-19.329-15.669-34.999-34.999-34.999z" fill="#e0e0e0"/><path d="m351.014 357.33c-18.3 1.15-32.78 16.35-32.78 34.93v84.49h-39.93v-84.49c0-19.33 15.67-35 35-35h35.49c.75 0 1.49.02 2.22.07z" fill="#d1d1d1"/><path d="m233.425 57.504h240.015v212.249h-240.015z" fill="#aa6951"/><path d="m233.425 57.504h240.015v85.604h-240.015z" fill="#934e3c"/><path d="m233.425 168.495h240.015v17.415h-240.015z" fill="#934e3c"/><path d="m233.425 212.352h240.015v17.415h-240.015z" fill="#934e3c"/><path d="m270.422 313.469h-28.841c-21.166 0-38.325 17.158-38.325 38.325v104.962h105.491v-104.963c0-21.166-17.159-38.324-38.325-38.324z" fill="#ededed"/><path d="m272.566 313.533c-20.18 1.11-36.19 17.82-36.19 38.26v104.96h-33.12v-104.96c0-21.16 17.15-38.32 38.32-38.32h28.84c.72 0 1.44.02 2.15.06z" fill="#e0e0e0"/><path d="m447.06 426.38c-46.88 52.54-115.11 85.62-191.06 85.62s-144.18-33.08-191.06-85.62c2.07-.44 4.22-.67 6.42-.67 11.13 0 20.88 5.86 26.38 14.65 5.49-8.79 15.24-14.65 26.37-14.65s20.89 5.86 26.38 14.65c5.49-8.79 15.25-14.65 26.38-14.65s20.88 5.86 26.38 14.65c5.49-8.79 15.24-14.65 26.37-14.65s20.89 5.86 26.38 14.65c5.49-8.79 15.25-14.65 26.38-14.65s20.88 5.86 26.37 14.65c5.5-8.79 15.25-14.65 26.38-14.65s20.89 5.86 26.38 14.65c5.49-8.79 15.25-14.65 26.38-14.65s20.88 5.86 26.37 14.65c5.5-8.79 15.25-14.65 26.38-14.65 2.2 0 4.35.23 6.42.67z" fill="#6aa2b2"/><path d="m460.09 9.137h-408.18c-11.933 0-22.547 7.582-26.416 18.87l-19.543 57.015c-6.212 18.125 7.256 36.979 26.416 36.979h447.265c19.16 0 32.629-18.855 26.416-36.979l-19.543-57.015c-3.868-11.288-14.483-18.87-26.415-18.87z" fill="#97d6a8"/><path d="m468.574 256.209h-427.162c-8.961 0-16.226 7.264-16.226 16.226v18.062c0 8.961 7.264 16.226 16.226 16.226h427.162c8.961 0 16.226-7.264 16.226-16.226v-18.062c0-8.962-7.264-16.226-16.226-16.226z" fill="#934e3c"/><path d="m58.704 85.027c-6.21 18.12 7.25 36.98 26.41 36.98h-52.74c-19.16 0-32.63-18.86-26.42-36.98l19.54-57.02c3.87-11.29 14.49-18.87 26.42-18.87h52.75c-11.94 0-22.55 7.58-26.42 18.87z" fill="#78b57f"/><path d="m94.164 306.727h-52.75c-8.96 0-16.22-7.27-16.22-16.23v-18.06c0-8.96 7.26-16.23 16.22-16.23h52.75c-8.96 0-16.23 7.27-16.23 16.23v18.06c0 8.96 7.27 16.23 16.23 16.23z" fill="#84382a"/><g><path d="m367.415 233.867h-28.69c-8.388 0-15.187-6.8-15.187-15.187v-63.76c0-8.388 6.8-15.187 15.187-15.187h28.69c8.388 0 15.187 6.8 15.187 15.187v63.76c0 8.388-6.799 15.187-15.187 15.187z" fill="#598f98"/><path d="m367.415 130.846h-28.69c-13.275 0-24.074 10.8-24.074 24.074v63.76c0 13.275 10.8 24.074 24.074 24.074h28.69c13.275 0 24.074-10.8 24.074-24.074v-63.76c.001-13.275-10.799-24.074-24.074-24.074zm6.3 24.074v25.213h-13.98v-31.513h7.68c3.474 0 6.3 2.826 6.3 6.3zm-34.99-6.3h7.68v31.513h-13.98v-25.213c0-3.474 2.826-6.3 6.3-6.3zm-6.3 70.06v-25.217h13.98v31.517h-7.68c-3.474 0-6.3-2.826-6.3-6.3zm34.99 6.3h-7.68v-31.517h13.98v25.217c0 3.474-2.826 6.3-6.3 6.3z" fill="#f4d84f"/><g fill="#efc24d"><path d="m382.345 218.68v-25.217h-8.629v25.217c0 3.15-2.327 5.76-5.35 6.221v.079h7.68c3.472 0 6.299-2.826 6.299-6.3z"/><path d="m373.715 154.92v25.213h8.629v-25.213c0-3.474-2.826-6.3-6.3-6.3h-7.68v.079c3.024.461 5.351 3.071 5.351 6.221z"/><path d="m355.034 224.98v-31.517h-8.63v31.437c.311.047.626.08.95.08z"/><path d="m323.28 218.68v-63.76c0-13.275 10.8-24.074 24.074-24.074h-8.63c-13.275 0-24.074 10.8-24.074 24.074v63.76c0 13.275 10.8 24.074 24.074 24.074h8.63c-13.275.001-24.074-10.799-24.074-24.074z"/><path d="m355.034 148.62h-7.68c-.324 0-.639.032-.95.08v31.433h8.63z"/></g></g><g><path d="m429.298 337.555c-15.07 0-27.28-12.22-27.28-27.29l-14.43-5-13.99 5c0 30.76 24.94 55.7 55.7 55.7l5-14.649zm55.7-27.29c0-30.76-24.94-55.7-55.7-55.7l-5 14.919 5 13.491c15.07 0 27.29 12.22 27.29 27.29l11.337 5z" fill="#c9535d"/><path d="m385.198 310.265 8.28-2.96-5.89-2.04-13.99 5c0 30.76 24.94 55.7 55.7 55.7l.38-1.13c-25.38-5.19-44.48-27.65-44.48-54.57zm44.1-27.29c15.07 0 27.3 12.22 27.3 27.29l11.33 5 6.97-2.04-6.71-2.96c0-15.07-12.22-27.29-27.29-27.29" fill="#b53e4e"/><path d="m456.588 310.265c0 15.07-12.22 27.28-27.29 27.28v28.42c30.76 0 55.7-24.94 55.7-55.7zm-27.29-55.7c-30.76 0-55.7 24.94-55.7 55.7h28.41c0-15.07 12.22-27.29 27.29-27.29z" fill="#ededed"/><path d="m373.598 310.275h11.6c0-26.78 18.91-49.15 44.1-54.49v-1.21c-30.76 0-55.7 24.94-55.7 55.7zm82.99 0c0 15.07-12.22 27.28-27.29 27.28h11.6c15.07 0 27.29-12.21 27.29-27.28z" fill="#e0e0e0"/></g><circle cx="429.72" cy="288.795" fill="#f4d84f" r="8.423"/></g></svg>