<svg id="Capa_1" enable-background="new 0 0 512 512" height="512" viewBox="0 0 512 512" width="512" xmlns="http://www.w3.org/2000/svg"><g><path d="m512 256c0 16-1.47 31.66-4.28 46.85-4.93 26.67-14 51.89-26.51 74.97-9.5 17.52-44.09 10.7-57.26 25.45-46.88 52.54-92 77.84-167.95 77.84s-125-7.73-171.88-60.27c-13.17-14.75-43.83-25.5-53.33-43.02-10.23-18.86-18.15-39.15-23.39-60.5-4.84-19.64-7.4-40.18-7.4-61.32 0-34.6 6.87-67.6 19.32-97.71 38.39-92.91 129.9-158.29 236.68-158.29 101.14 0 188.59 58.66 230.17 143.82 16.55 33.88 25.83 71.94 25.83 112.18z" fill="#b2e5f7"/><path d="m481.21 377.82c-43.32 79.91-127.93 134.18-225.21 134.18s-181.89-54.27-225.21-134.18c6.08-5.71 14.26-9.2 23.26-9.2 12.17 0 22.84 6.4 28.85 16.02 6-9.62 16.67-16.02 28.85-16.02 12.17 0 22.84 6.4 28.85 16.02 6-9.62 16.68-16.02 28.85-16.02s22.84 6.4 28.85 16.02c6-9.62 16.68-16.02 28.85-16.02s22.84 6.4 28.85 16.02c6.01-9.62 16.68-16.02 28.85-16.02s22.85 6.4 28.85 16.02c6.01-9.62 16.68-16.02 28.85-16.02s22.85 6.4 28.85 16.02c6.01-9.62 16.68-16.02 28.85-16.02 12.18 0 22.85 6.4 28.85 16.02 6.01-9.62 16.68-16.02 28.85-16.02 9 0 17.18 3.49 23.26 9.2z" fill="#78b57f"/><path d="m166.99 290.82c0 14.63-11.86 26.5-26.5 26.5h-133.09c-4.84-19.64-7.4-40.18-7.4-61.32 0-34.6 6.87-67.6 19.32-97.71h68.4c7.32 0 13.95 2.97 18.74 7.76 4.8 4.8 7.77 11.43 7.77 18.74 0 14.64-11.87 26.51-26.51 26.51h-16.66c-14.64 0-26.5 11.87-26.5 26.5v.01c0 14.63 11.86 26.5 26.5 26.5h69.43c7.32 0 13.95 2.97 18.74 7.77 4.79 4.79 7.76 11.42 7.76 18.74z" fill="#d0f5ff"/><path d="m512 256c0 16-1.47 31.66-4.28 46.85h-7.62c-7.32 0-13.95-2.97-18.74-7.76-4.8-4.8-7.77-11.43-7.77-18.74 0-14.64-11.86-26.51-26.5-26.51h-75.58c-7.32 0-13.95-2.97-18.74-7.76-4.79-4.8-7.76-11.42-7.76-18.74 0-14.64 11.86-26.51 26.5-26.51h31.12c7.32 0 13.95-2.97 18.75-7.76 4.79-4.8 7.76-11.43 7.76-18.74 0-14.64 11.86-26.51 26.5-26.51h30.53c16.55 33.88 25.83 71.94 25.83 112.18z" fill="#d0f5ff"/><path d="m440.64 210.04v220.32l-9.53 5.46-25.75 14.76-4.57 2.62-127.63 38.06-166.52-44.39-4.44-1.18-21.31-12.64-9.53-5.65v-217.36l9.53-33.42 25.75-90.29 5.75-20.16 49.61-14.8 25.76-7.69 55.36-16.52 12.88-3.84 5.35 1.6 7.53 2.24 55.36 16.52 25.76 7.69 49.61 14.8 5.75 20.16 25.75 90.29z" fill="#c9535d"/><g fill="#b53e4e"><path d="m187.76 43.68v437.43h-25.76v-429.74z"/><path d="m243.124 23.325h25.753v457.783h-25.753z"/><path d="m350 51.37v429.74h-25.76v-437.43z"/><path d="m431.11 176.62v259.2l-25.75 14.76v-364.25z"/><path d="m106.64 86.33v360.54l-4.44-1.18-21.31-12.64v-256.43z"/></g><path d="m440.64 210.04v28.96l-2.84-.55c-5.55-1.07-10.03-5.17-11.58-10.61l-38.78-135.97-131.44-39.21-131.44 39.21-38.78 135.97c-1.55 5.44-6.03 9.54-11.58 10.61l-2.84.55v-28.96l9.53-33.42 25.75-90.29 5.75-20.16 49.61-14.8 25.76-7.69 55.36-16.52 12.88-3.84 5.35 1.6 7.53 2.24 55.36 16.52 25.76 7.69 49.61 14.8 5.75 20.16 25.75 90.29z" fill="#b53e4e"/><path d="m487.898 234.151c-.942 0-1.897-.089-2.856-.274l-47.24-9.108c-5.554-1.071-10.034-5.175-11.585-10.615l-38.779-135.964-131.438-39.212-131.438 39.212-38.779 135.964c-1.551 5.439-6.031 9.544-11.585 10.615l-47.24 9.108c-8.134 1.568-16-3.754-17.568-11.889-1.569-8.135 3.754-16 11.889-17.569l38.185-7.362 38.505-135.004c1.405-4.927 5.228-8.795 10.137-10.26l143.606-42.843c2.798-.834 5.778-.834 8.576 0l143.606 42.843c4.909 1.465 8.731 5.333 10.137 10.26l38.505 135.004 38.185 7.362c8.134 1.568 13.458 9.434 11.889 17.569-1.383 7.175-7.667 12.163-14.712 12.163z" fill="#4e5959"/><g fill="#333d3d"><path d="m31.408 221.988c-1.569-8.135 3.754-16 11.889-17.569l38.185-7.362 38.505-135.004c1.405-4.927 5.228-8.795 10.137-10.26l136.886-40.838-6.721-2.005c-2.798-.834-5.778-.834-8.576 0l-143.608 42.844c-4.909 1.465-8.731 5.333-10.137 10.26l-38.505 135.003-38.185 7.362c-8.134 1.568-13.458 9.434-11.889 17.569 1.568 8.135 9.435 13.457 17.568 11.889l11.057-2.132c-3.318-2.141-5.799-5.571-6.606-9.757z"/><path d="m459.82 224.769c-5.554-1.071-10.034-5.175-11.585-10.615l-38.779-135.964-142.447-42.497-11.009 3.285 131.438 39.212 38.779 135.964c1.551 5.439 6.031 9.544 11.585 10.615l47.24 9.108c.959.185 1.915.274 2.856.274 2.936 0 5.733-.876 8.105-2.406z"/></g><path d="m256 271.519h-110.952v184.439h110.952 110.952v-184.439z" fill="#b53e4e"/><path d="m247.522 266.229c-.029.047-.063.088-.091.136l-.025.042c-.012.02-.024.039-.036.059l-46.846 77.873-46.907-77.975c-2.847-4.732-19.985 5.577-17.138 10.31l52.375 87.064-52.375 87.064c-2.847 4.732-1.318 10.877 3.414 13.724 1.613.97 3.39 1.432 5.146 1.432 3.393 0 6.702-1.728 8.578-4.847l46.907-77.975 46.846 77.873c.012.02.024.039.036.059l.025.042c.104.173.189.299.261.394.794 1.19 1.846 2.234 3.153 3.02 1.613.97 3.39 1.432 5.146 1.432 3.393 0 6.702-1.728 8.578-4.847l46.907-77.975 46.907 77.975c1.876 3.119 5.185 4.847 8.578 4.847 1.755 0 3.532-.462 5.146-1.432 4.732-2.847 6.261-8.991 3.414-13.724l-52.375-87.064 52.375-87.064c2.847-4.732-14.292-15.042-17.138-10.31l-46.907 77.975-46.846-77.873c-.012-.02-.024-.039-.036-.059l-.025-.042c-.028-.047-.062-.088-.091-.135zm8.478 170.33-43.806-72.82 43.806-72.82 43.806 72.82z" fill="#e0e0e0"/><path d="m366.952 261.52h-110.952-110.952c-5.523 0-10 4.477-10 10v184.438c0 5.523 4.477 10 10 10h110.952 110.952c5.523 0 10-4.477 10-10v-184.438c0-5.523-4.477-10-10-10zm-211.904 20h90.952v164.438h-90.952zm201.904 164.438h-90.952v-164.438h90.952z" fill="#f3f3f3"/><path d="m397.772 223.336h-283.544c-8.384 0-15.18 6.796-15.18 15.18 0 8.384 6.796 15.18 15.18 15.18h283.545c8.384 0 15.18-6.796 15.18-15.18 0-8.384-6.797-15.18-15.181-15.18z" fill="#a32a40"/><path d="m285.534 81.009h-59.068c-9.497 0-17.196 7.699-17.196 17.196v94.638c0 9.497 7.699 17.196 17.196 17.196h59.068c9.497 0 17.196-7.699 17.196-17.196v-94.638c0-9.497-7.699-17.196-17.196-17.196z" fill="#f3f3f3"/><path d="m211.484 118.795h89.031v53.46h-89.031z" fill="#b53e4e" transform="matrix(0 1 -1 0 401.525 -110.476)"/><path d="m447.06 426.38c-46.88 52.54-115.11 85.62-191.06 85.62s-144.18-33.08-191.06-85.62c2.07-.44 4.22-.67 6.42-.67 11.13 0 20.88 5.86 26.38 14.65 5.49-8.79 15.24-14.65 26.37-14.65s20.89 5.86 26.38 14.65c5.49-8.79 15.25-14.65 26.38-14.65s20.88 5.86 26.38 14.65c5.49-8.79 15.24-14.65 26.37-14.65s20.89 5.86 26.38 14.65c5.49-8.79 15.25-14.65 26.38-14.65s20.88 5.86 26.37 14.65c5.5-8.79 15.25-14.65 26.38-14.65s20.89 5.86 26.38 14.65c5.49-8.79 15.25-14.65 26.38-14.65s20.88 5.86 26.37 14.65c5.5-8.79 15.25-14.65 26.38-14.65 2.2 0 4.35.23 6.42.67z" fill="#97d6a8"/></g></svg>