<svg id="Capa_1" enable-background="new 0 0 512 512" height="512" viewBox="0 0 512 512" width="512" xmlns="http://www.w3.org/2000/svg"><g><path d="m512 256c0 84.1-40.56 158.73-103.18 205.4-42.65 31.78-95.54-38.601-152.82-38.601s-110.17 70.381-152.82 38.601c-62.62-46.67-103.18-121.3-103.18-205.4 0-141.38 114.62-256 256-256s256 114.62 256 256z" fill="#b2e5f7"/><g fill="#934e3c"><path d="m388.038 328.468h-32.41v-30h32.41c3.918 0 7.513-1.797 9.864-4.931 2.351-3.133 3.071-7.088 1.976-10.849l-18.359-63.034 28.803-8.389 18.359 63.033c3.761 12.911 1.289 26.486-6.782 37.243-8.071 10.758-20.413 16.927-33.861 16.927z"/><path d="m156.372 328.468h-32.41c-13.448 0-25.79-6.169-33.861-16.926s-10.543-24.332-6.782-37.244l18.359-63.033 28.803 8.389-18.359 63.033c-1.095 3.762-.375 7.716 1.976 10.85s5.946 4.931 9.864 4.931h32.41z"/></g><g fill="#84382a"><path d="m413.129 293.539c-2.35 3.13-5.95 4.93-9.87 4.93h-15.22c3.92 0 7.51-1.8 9.86-4.93 2.35-3.14 3.07-7.09 1.98-10.85l-18.36-63.04 28.8-8.38 1.19 4.09-14.76 4.29 18.35 63.04c1.1 3.76.38 7.709-1.97 10.85z"/><path d="m139.189 328.468h-15.23c-13.45 0-25.79-6.17-33.86-16.93s-10.54-24.33-6.78-37.24l18.36-63.03 14.03 4.08-17.17 58.95c-3.76 12.91-1.28 26.48 6.79 37.24s20.41 16.93 33.86 16.93z"/></g><path d="m408.82 461.4c-28.99 21.6-62.71 37.21-99.32 45-4.95 1.06-9.95 1.97-15 2.72-12.56 1.9-25.41 2.88-38.5 2.88s-25.94-.98-38.5-2.88c-5.05-.75-10.05-1.66-15-2.72-36.61-7.79-70.33-23.4-99.32-45l45.21-181.33 17.06-68.42h181.1l17.06 68.42z" fill="#aa6951"/><path d="m215.43 211.65-37.67 288.17c-27.11-8.69-52.25-21.78-74.58-38.42l62.27-249.75z" fill="#934e3c"/><path d="m363.61 280.07h-215.22l17.06-68.42h181.1z" fill="#934e3c"/><path d="m455.469 77.596h-2.974c2.492-6.375 3.875-13.307 3.875-20.565 0-31.222-25.31-56.531-56.531-56.531h-287.678c-31.221 0-56.531 25.31-56.531 56.531 0 7.258 1.383 14.189 3.875 20.565h-2.974c-31.221 0-56.531 25.31-56.531 56.531 0 31.18 25.243 56.461 56.407 56.528-.503 3.031-.777 6.14-.777 9.313 0 31.221 25.31 56.531 56.531 56.531h287.678c31.221 0 56.531-25.31 56.531-56.531 0-3.174-.274-6.282-.777-9.313 31.164-.067 56.407-25.348 56.407-56.528 0-31.221-25.31-56.531-56.531-56.531z" fill="#97d6a8"/><path d="m221.67 239.938c10.23 10.23 24.36 16.56 39.97 16.56h-149.48c-15.61 0-29.74-6.33-39.97-16.56s-16.56-24.36-16.56-39.97c0-3.18.28-6.28.78-9.31-15.58-.04-29.68-6.37-39.89-16.6-10.21-10.221-16.52-24.341-16.52-39.931 0-31.22 25.31-56.53 56.53-56.53h2.98c-1.24-3.19-2.22-6.52-2.87-9.96-.66-3.43-1.01-6.98-1.01-10.61 0-31.22 25.31-56.53 56.53-56.53h149.48c-31.22 0-56.53 25.31-56.53 56.53 0 3.63.34 7.18 1 10.61.66 3.44 1.63 6.77 2.88 9.96h-2.98c-31.22 0-56.53 25.31-56.53 56.53 0 15.59 6.31 29.71 16.52 39.93 10.2 10.23 24.31 16.56 39.89 16.6-.51 3.03-.78 6.13-.78 9.31 0 15.611 6.33 29.741 16.56 39.971z" fill="#78b57f"/><path d="m309.5 410.74v95.66c-17.26 3.67-35.15 5.6-53.5 5.6s-36.24-1.93-53.5-5.6v-95.66c0-29.55 23.95-53.5 53.5-53.5s53.5 23.95 53.5 53.5z" fill="#84382a"/><path d="m294.5 410.74v98.38c-12.56 1.9-25.41 2.88-38.5 2.88s-25.94-.98-38.5-2.88v-98.38c0-21.23 17.27-38.5 38.5-38.5s38.5 17.27 38.5 38.5z" fill="#934e3c"/><circle cx="280.1" cy="456.755" fill="#333d3d" r="7.771"/><g><g><path d="m319.697 442.359v-38.32c0-18.242 14.928-33.559 33.167-33.248 17.719.302 32.04 14.809 32.04 32.599v38.97c0 5.418-4.392 9.81-9.81 9.81h-45.588c-5.417-.002-9.809-4.393-9.809-9.811z" fill="#934e3c"/><path d="m328.197 404.039v38.32c0 5.42 4.39 9.81 9.81 9.81h-8.5c-5.42 0-9.81-4.39-9.81-9.81v-38.32c0-18.24 14.93-33.56 33.17-33.25 1.26.02 2.51.11 3.73.28-16.01 2.16-28.4 16.349-28.4 32.97z" fill="#84382a"/><path d="m352.301 385.786c-9.722 0-17.604 7.881-17.604 17.603v33.78h35.207v-33.78c0-9.722-7.881-17.603-17.603-17.603z" fill="#f4d84f"/></g><g><path d="m127.096 442.359v-38.32c0-18.242 14.928-33.559 33.167-33.248 17.719.302 32.04 14.809 32.04 32.599v38.97c0 5.418-4.392 9.81-9.81 9.81h-45.588c-5.417-.002-9.809-4.393-9.809-9.811z" fill="#934e3c"/><path d="m135.596 404.039v38.32c0 5.42 4.39 9.81 9.81 9.81h-8.5c-5.42 0-9.81-4.39-9.81-9.81v-38.32c0-18.24 14.93-33.56 33.17-33.25 1.26.02 2.51.11 3.73.28-16.01 2.16-28.4 16.349-28.4 32.97z" fill="#84382a"/><path d="m159.699 385.786c-9.722 0-17.604 7.881-17.604 17.603v33.78h35.207v-33.78c.001-9.722-7.881-17.603-17.603-17.603z" fill="#f4d84f"/></g></g><g fill="#934e3c"><path d="m303.701 321.398c-3.203 0-5.799-2.596-5.799-5.799v-30.27c0-3.203 2.596-5.799 5.799-5.799 3.203 0 5.799 2.596 5.799 5.799v30.27c0 3.203-2.596 5.799-5.799 5.799z"/><path d="m253.459 347.089c-3.203 0-5.799-2.596-5.799-5.799v-30.27c0-3.203 2.596-5.799 5.799-5.799 3.203 0 5.799 2.596 5.799 5.799v30.27c0 3.203-2.596 5.799-5.799 5.799z"/><path d="m325.496 347.089c-3.203 0-5.799-2.596-5.799-5.799v-30.27c0-3.203 2.596-5.799 5.799-5.799 3.203 0 5.799 2.596 5.799 5.799v30.27c0 3.203-2.596 5.799-5.799 5.799z"/></g></g></svg>