<svg id="Capa_1" enable-background="new 0 0 512.005 512.005" height="512" viewBox="0 0 512.005 512.005" width="512" xmlns="http://www.w3.org/2000/svg"><g><path d="m512.002 256.005c0 62.04-22.08 118.93-58.79 163.24-46.96 56.66-117.87 37.405-197.21 37.405-68.62 0-130.94 9.016-176.9-34.944-7.18-6.87-13.97 5.189-20.31-2.461-36.71-44.31-58.79-101.2-58.79-163.24 0-141.38 114.62-256 256-256s256 114.62 256 256z" fill="#b2e5f7"/><g><path d="m419.972 46.655v127.01c0 9.71-7.87 17.57-17.57 17.57h-57.7c-9.7 0-17.56-7.86-17.56-17.57v-127.01c0-4.98 2.07-9.47 5.4-12.67 3.15-3.02 7.44-4.89 12.16-4.89h57.7c9.7-.001 17.57 7.86 17.57 17.56z" fill="#ededed"/><path d="m419.972 115.485v58.18c0 9.71-7.87 17.57-17.57 17.57h-57.7c-9.7 0-17.56-7.86-17.56-17.57v-127.01c0-4.98 2.07-9.47 5.4-12.67z" fill="#e0e0e0"/><path d="m377.688 191.235h-32.99c-9.7 0-17.56-7.86-17.56-17.57v-127.01c0-9.7 7.86-17.56 17.56-17.56h32.99c-9.7 0-17.57 7.86-17.57 17.56v127.01c0 9.71 7.87 17.57 17.57 17.57z" fill="#e0e0e0"/><path d="m453.212 236.864v182.38c-4.26 5.14-8.72 10.12-13.38 14.91-15.12 15.61-32.21 29.29-50.88 40.65-9.94 6.06-20.32 11.46-31.09 16.13-31.22 13.56-65.66 21.07-101.86 21.07s-70.64-7.51-101.86-21.07c-10.77-4.67-21.15-10.07-31.09-16.13-18.67-11.36-35.76-25.04-50.88-40.65-1.09-1.11-2.16-2.24-3.22-3.38-3.5-3.74-6.89-7.58-10.16-11.53v-182.38z" fill="#97d6a8"/><g fill="#78b57f"><path d="m131.515 262.536h15.902v49.984h-15.902z"/><g><path d="m68.947 304.455h384.26v16.13h-384.26z"/><path d="m68.947 361.237h384.26v16.13h-384.26z"/><path d="m453.212 418.025v1.22c-4.26 5.14-8.72 10.12-13.38 14.91h-367.66c-1.09-1.11-2.16-2.24-3.22-3.38v-12.75z"/><path d="m388.952 474.805c-9.94 6.06-20.32 11.46-31.09 16.13h-203.72c-10.77-4.67-21.15-10.07-31.09-16.13z"/></g><path d="m79.102 236.864v204.18c-7.18-6.87-13.97-14.15-20.31-21.8v-182.38z"/><path d="m58.79 213.183h394.417v56.795h-394.417z"/></g><path d="m471.774 248.489h-431.543c-21.504 0-31.879-26.347-16.148-41.009l215.771-201.117c9.096-8.478 23.2-8.478 32.297 0l215.771 201.117c15.73 14.662 5.356 41.009-16.148 41.009z" fill="#aa6951"/><path d="m78.293 248.48h-38.06c-21.51 0-31.88-26.34-16.15-41l215.769-201.12c9.09-8.48 23.2-8.48 32.3 0l2.88 2.68-212.89 198.44c-15.73 14.66-5.36 41 16.151 41z" fill="#934e3c"/><path d="m255.999 68.365-193.253 180.13h386.506z" fill="#934e3c"/><path d="m261.757 62.183c-3.243-3.018-8.277-3.018-11.521 0l-199.876 186.306h24.776l87.426-81.491 81.491 81.491h23.898l81.48-81.491 87.426 81.491h24.776zm-14.201 165.922-72.628-72.628 72.628-67.696zm16.893 0v-140.324l72.617 67.696z" fill="#84382a"/><g><path d="m279.605 56.28c-3.25-3.02-8.28-3.02-11.53 0l-6.11 5.695 199.669 186.514h10.14c4.053 0 7.709-.937 10.871-2.553z" fill="#934e3c"/></g><path d="m99.529 309.455h66.461v103.602h-66.461z" fill="#6aa2b2"/><path d="m165.991 420.556h-66.462c-4.142 0-7.5-3.358-7.5-7.5v-103.601c0-4.142 3.358-7.5 7.5-7.5h66.461c4.142 0 7.5 3.358 7.5 7.5v103.602c.001 4.141-3.357 7.499-7.499 7.499zm-58.962-15h51.461v-88.602h-51.461z" fill="#ededed"/><path d="m222.768 309.455h66.461v103.602h-66.461z" fill="#6aa2b2"/><path d="m289.23 420.556h-66.461c-4.142 0-7.5-3.358-7.5-7.5v-103.601c0-4.142 3.358-7.5 7.5-7.5h66.461c4.142 0 7.5 3.358 7.5 7.5v103.602c0 4.141-3.358 7.499-7.5 7.499zm-58.962-15h51.461v-88.602h-51.461z" fill="#ededed"/><path d="m346.007 309.455h66.461v103.602h-66.461z" fill="#6aa2b2"/><path d="m412.469 420.556h-66.461c-4.142 0-7.5-3.358-7.5-7.5v-103.601c0-4.142 3.358-7.5 7.5-7.5h66.461c4.142 0 7.5 3.358 7.5 7.5v103.602c0 4.141-3.358 7.499-7.5 7.499zm-58.961-15h51.461v-88.602h-51.461z" fill="#ededed"/><path d="m307.337 262.536h15.902v49.984h-15.902z" fill="#78b57f"/><path d="m184.098 313.963h15.902v49.984h-15.902z" fill="#78b57f"/><path d="m339.329 430.806h15.902v49.984h-15.902z" fill="#78b57f"/><path d="m137.815 430.806h15.902v49.984h-15.902z" fill="#78b57f"/><g fill="#e0e0e0"><path d="m404.969 316.955h7.792v88.602h-7.792z"/><path d="m346.299 413.056v-103.601c0-4.142 3.358-7.5 7.5-7.5h-7.792c-4.142 0-7.5 3.358-7.5 7.5v103.602c0 4.142 3.358 7.5 7.5 7.5h7.792c-4.142-.001-7.5-3.359-7.5-7.501z"/></g><g fill="#e0e0e0"><path d="m281.73 316.955h7.792v88.602h-7.792z"/><path d="m223.06 413.056v-103.601c0-4.142 3.358-7.5 7.5-7.5h-7.792c-4.142 0-7.5 3.358-7.5 7.5v103.602c0 4.142 3.358 7.5 7.5 7.5h7.792c-4.142-.001-7.5-3.359-7.5-7.501z"/></g><g fill="#e0e0e0"><path d="m158.491 316.955h7.792v88.602h-7.792z"/><path d="m99.821 413.056v-103.601c0-4.142 3.358-7.5 7.5-7.5h-7.792c-4.142 0-7.5 3.358-7.5 7.5v103.602c0 4.142 3.358 7.5 7.5 7.5h7.792c-4.142-.001-7.5-3.359-7.5-7.501z"/></g><g><path d="m423.806 428.467h-89.136c-3.739 0-6.77-3.031-6.77-6.77v-11.871c0-3.739 3.031-6.77 6.77-6.77h89.136c3.739 0 6.77 3.031 6.77 6.77v11.871c.001 3.739-3.03 6.77-6.77 6.77z" fill="#aa6951"/><path d="m355.23 428.476h-20.56c-3.74 0-6.77-3.04-6.77-6.77v-11.88c0-3.73 3.03-6.77 6.77-6.77h20.56c-3.74 0-6.77 3.04-6.77 6.77v11.88c0 3.73 3.03 6.77 6.77 6.77z" fill="#934e3c"/></g><path d="m177.328 428.467h-89.136c-3.739 0-6.77-3.031-6.77-6.77v-11.871c0-3.739 3.031-6.77 6.77-6.77h89.136c3.739 0 6.77 3.031 6.77 6.77v11.871c0 3.739-3.031 6.77-6.77 6.77z" fill="#aa6951"/><path d="m108.752 428.476h-20.56c-3.74 0-6.77-3.04-6.77-6.77v-11.88c0-3.73 3.03-6.77 6.77-6.77h20.56c-3.74 0-6.77 3.04-6.77 6.77v11.88c0 3.73 3.03 6.77 6.77 6.77z" fill="#934e3c"/><path d="m300.567 428.467h-89.136c-3.739 0-6.77-3.031-6.77-6.77v-11.871c0-3.739 3.031-6.77 6.77-6.77h89.136c3.739 0 6.77 3.031 6.77 6.77v11.871c0 3.739-3.031 6.77-6.77 6.77z" fill="#aa6951"/><path d="m231.991 428.476h-20.56c-3.74 0-6.77-3.04-6.77-6.77v-11.88c0-3.73 3.03-6.77 6.77-6.77h20.56c-3.74 0-6.77 3.04-6.77 6.77v11.88c0 3.73 3.03 6.77 6.77 6.77z" fill="#934e3c"/></g></g></svg>