<svg id="Capa_1" enable-background="new 0 0 512 512" height="512" viewBox="0 0 512 512" width="512" xmlns="http://www.w3.org/2000/svg"><g><path d="m25.74 367.99c-16.49-33.83-25.74-71.83-25.74-111.99 0-141.38 114.62-256 256-256s256 114.62 256 256c0 40.16-9.25 78.16-25.74 111.99" fill="#b2e5f7"/><path d="m493.72 172.51h-475.44l30.12-87.87c5.12-14.95 19.18-24.99 34.98-24.99h345.24c15.8 0 29.86 10.04 34.98 24.99l.22.63 6.26 18.27 5.55 16.21 6.27 18.28z" fill="#84382a"/><g fill="#70231b"><path d="m470.08 103.54h-399.95v-18.27h393.69z"/><path d="m481.9 138.03h-411.77v-18.28h405.5z"/><path d="m129.516 59.651c-15.8 0-29.86 10.04-34.98 24.99l-30.12 87.87h-46.14l30.12-87.87c5.12-14.95 19.18-24.99 34.98-24.99z"/></g><path d="m466.14 172.51v208.51h-420.28v-208.51h117.16l92.98-87.24 92.98 87.24z" fill="#aa6951"/><path d="m466.14 183.15v30h-117.16c-3.81 0-7.48-1.45-10.26-4.06l-73.837-46.96c-5.42-3.447-12.346-3.447-17.766 0l-73.837 46.96c-2.78 2.61-6.45 4.06-10.26 4.06h-117.16v-30h111.22l88.66-83.18c5.77-5.42 14.75-5.42 20.52 0l88.66 83.18z" fill="#934e3c"/><path d="m64.418 263.239h76.295v24.389h-76.295z" fill="#84382a"/><path d="m380.589 263.239h76.295v24.389h-76.295z" fill="#84382a"/><path d="m64.418 275.433h76.295v12.195h-76.295z" fill="#70231b"/><path d="m380.589 275.433h76.295v12.195h-76.295z" fill="#70231b"/><g><g><path d="m34.182 172.514h41.868v172.035h-41.868z" fill="#ededed"/><g fill="#d1d1d1"><path d="m34.182 172.514h41.868v29.332h-41.868z"/><path d="m34.182 172.514h14.965v172.035h-14.965z"/></g></g><g><path d="m119.779 172.514h41.868v172.035h-41.868z" fill="#ededed"/><g fill="#d1d1d1"><path d="m119.779 172.514h41.868v29.332h-41.868z"/><path d="m119.779 172.514h14.965v172.035h-14.965z"/></g></g><g><path d="m350.353 172.514h41.868v172.035h-41.868z" fill="#ededed"/><g fill="#d1d1d1"><path d="m350.353 172.514h41.868v29.332h-41.868z"/><path d="m350.353 172.514h14.965v172.035h-14.965z"/></g></g><g><path d="m435.95 172.514h41.868v172.035h-41.868z" fill="#ededed"/><g fill="#d1d1d1"><path d="m435.95 172.514h41.868v29.332h-41.868z"/><path d="m435.95 172.514h14.965v172.035h-14.965z"/></g></g></g><path d="m493.724 187.514h-144.744c-3.813 0-7.483-1.452-10.264-4.062l-82.716-77.615-82.717 77.615c-2.78 2.609-6.45 4.062-10.264 4.062h-144.743c-8.284 0-15-6.716-15-15s6.716-15 15-15h138.808l88.652-83.185c5.771-5.416 14.756-5.416 20.527 0l88.652 83.185h138.808c8.284 0 15 6.716 15 15 .001 8.284-6.715 15-14.999 15z" fill="#f4d84f"/><g fill="#efc24d"><path d="m267.228 75.233-.964-.905c-5.771-5.416-14.756-5.416-20.527 0l-88.652 83.185h22.455z"/><path d="m25.732 172.514c0-8.284 6.716-15 15-15h-22.456c-8.284 0-15 6.716-15 15s6.716 15 15 15h22.455c-8.283 0-14.999-6.716-14.999-15z"/><path d="m267.228 95.301-11.228 10.536 82.717 77.615c2.78 2.609 6.45 4.062 10.264 4.062h22.455c-3.813 0-7.483-1.452-10.264-4.062z"/></g><g><path d="m290.411 196.826h-68.821c-10.459 0-18.938 8.479-18.938 18.938v137.003h106.697v-137.003c-.001-10.459-8.479-18.938-18.938-18.938z" fill="#d1d1d1"/><path d="m218.824 352.768v-137.004c0-1.525 1.24-2.765 2.765-2.765h68.821c1.526 0 2.766 1.241 2.766 2.765v137.003h-74.352z" fill="#ededed"/><circle cx="273.342" cy="274.741" fill="#d1d1d1" r="12.368"/></g><path d="m486.26 358.01v9.98c-2.52 5.18-5.21 10.25-8.06 15.22-7.23 12.6-33.04 24.52-42.25 35.66h-359.9c-9.21-11.14-35.02-23.06-42.25-35.66-2.85-4.97-5.54-10.04-8.06-15.22v-9.98c0-11.21 9.09-20.3 20.29-20.3h419.94c11.2 0 20.29 9.09 20.29 20.3z" fill="#84382a"/><path d="m83.21 337.72c-11.21 0-20.29 9.09-20.29 20.29v60.87h-4.4l-.01-.01c-9.21-11.14-17.48-23.06-24.71-35.66-2.85-4.97-5.54-10.04-8.06-15.22v-9.98c0-11.2 9.09-20.29 20.29-20.29z" fill="#70231b"/><path d="m478.2 383.21c-10.85 18.9-24.04 36.28-39.18 51.76-46.46 47.53-111.29 77.03-183.02 77.03s-136.56-29.5-183.02-77.03c-15.14-15.48-28.33-32.86-39.18-51.76.45-.02.9-.03 1.36-.03 13.31 0 24.97 7.01 31.55 17.52 6.57-10.51 18.23-17.52 31.54-17.52s24.99 7.01 31.55 17.52c6.57-10.51 18.24-17.52 31.55-17.52 13.32 0 24.98 7.01 31.56 17.52 6.56-10.51 18.23-17.52 31.54-17.52s24.98 7.01 31.55 17.52c6.57-10.51 18.24-17.52 31.55-17.52s24.98 7.01 31.54 17.52c6.58-10.51 18.24-17.52 31.56-17.52 13.31 0 24.98 7.01 31.55 17.52 6.56-10.51 18.24-17.52 31.55-17.52s24.97 7.01 31.54 17.52c6.58-10.51 18.24-17.52 31.55-17.52.46 0 .91.01 1.36.03z" fill="#78b57f"/><path d="m439.02 434.97c-46.46 47.53-111.29 77.03-183.02 77.03s-136.56-29.5-183.02-77.03c6.63-6.17 15.51-9.94 25.27-9.94 13.31 0 24.99 7.01 31.55 17.52 6.57-10.51 18.24-17.52 31.55-17.52 13.32 0 24.98 7.01 31.56 17.52 6.56-10.51 18.23-17.52 31.54-17.52s24.98 7.01 31.55 17.52c6.57-10.51 18.24-17.52 31.55-17.52s24.98 7.01 31.54 17.52c6.58-10.51 18.24-17.52 31.56-17.52 13.31 0 24.98 7.01 31.55 17.52 6.56-10.51 18.24-17.52 31.55-17.52 9.76 0 18.64 3.77 25.27 9.94z" fill="#97d6a8"/></g></svg>