<svg id="Capa_1" enable-background="new 0 0 512 512" height="512" viewBox="0 0 512 512" width="512" xmlns="http://www.w3.org/2000/svg"><g><path d="m54.25 413.58c-32.92-42.09-52.97-94.73-54.19-152-.04-1.86-.06-3.72-.06-5.58 0-22.62 2.93-44.55 8.45-65.44 4.89-18.58 11.83-36.34 20.55-53.01 9.07-17.36 20.07-33.54 32.73-48.26 19.97-23.26 44.04-42.89 71.1-57.76 36.54-20.1 78.52-31.53 123.17-31.53 134.12 0 244.15 103.14 255.1 234.43.6 7.11.9 14.31.9 21.57 0 10.18-.59 20.22-1.75 30.09-5.59 47.75-24.33 91.48-52.5 127.49" fill="#b2e5f7"/><g fill="#d0f5ff"><path d="m512 256c0 10.18-.59 20.22-1.75 30.09-1.77.38-3.61.58-5.49.58h-134.15c-7.32 0-13.95-2.97-18.75-7.76-4.79-4.79-7.76-11.42-7.76-18.74 0-14.64-11.87-26.51-26.5-26.51h-75.58c-7.32 0-13.95-2.96-18.74-7.76-4.8-4.8-7.77-11.42-7.77-18.74 0-14.64 11.87-26.51 26.51-26.51h31.12c7.32 0 13.95-2.97 18.74-7.76 4.8-4.79 7.77-11.42 7.77-18.74 0-14.64 11.86-26.51 26.5-26.51h125.85c7.32 0 13.94 2.97 18.74 7.76 4.8 4.8 7.76 11.43 7.76 18.75 0 14.64-11.86 26.5-26.5 26.5h-16.66c-14.64 0-26.51 11.87-26.51 26.51s11.87 26.5 26.51 26.5h69.42c2.18 0 4.31.26 6.34.77.6 7.11.9 14.31.9 21.57z"/><path d="m141.43 389.94c0 10.18-.59 20.22-1.75 30.09-1.77.38-3.61.58-5.49.58h-56.133c-1.94-2.31-21.947-4.65-23.807-7.03-32.92-42.09-52.97-94.73-54.19-152h81.37c7.32 0 13.94 2.97 18.74 7.76 4.8 4.8 7.76 11.43 7.76 18.75 0 14.64-11.86 26.5-26.5 26.5h-16.66c-14.64 0-26.51 11.87-26.51 26.51s11.87 26.5 26.51 26.5h69.42c2.18 0 4.31.26 6.34.77.6 7.11.9 14.31.9 21.57z"/><path d="m266.42 111.04c0 7.32-2.96 13.95-7.76 18.74-4.8 4.8-11.42 7.77-18.74 7.77h-75.58c-14.64 0-26.5 11.87-26.5 26.5 0 7.32-2.97 13.95-7.76 18.75-4.8 4.79-11.43 7.76-18.75 7.76h-102.88c4.89-18.58 11.83-36.34 20.55-53.01h17.6c14.64 0 26.5-11.87 26.5-26.51 0-9.01-4.5-16.97-11.37-21.75 19.97-23.26 44.04-42.89 71.1-57.76h22.95c14.64 0 26.51 11.86 26.51 26.5 0 7.32 2.97 13.95 7.77 18.75 4.79 4.79 11.42 7.76 18.74 7.76h31.12c14.64 0 26.5 11.87 26.5 26.5z"/></g><path d="m256 103.371-53.619-92.871 17.32-10 36.299 62.871 36.299-62.871 17.32 10z" fill="#aa6951"/><path d="m457.75 413.58c-21.06 26.94-47.41 49.55-77.48 66.27-6.26 3.49-19.668-6.61-26.238-3.65-7.64 3.44-15.48 6.52-23.5 9.21l-139.712 4.605c-8.02-2.69-15.86-5.771-23.5-9.21-6.57-2.96-29.33 2.535-35.59-.955-30.07-16.72-56.42-39.33-77.48-66.27l19.54-33.84 14.416-20.439 3.254-10.181 19.83-34.35 16.564-10.183 1.406-20.938 65.2-112.92 14.751-14.266 2.939-16.384 43.85-75.949 43.85 75.95-.878 16.561 18.568 14.089 65.2 112.92 2.505 15.704 15.465 15.416 19.83 34.35 3.243 13.375 14.427 17.245z" fill="#97d6a8"/><path d="m256 64.13-20.5 75.95-8.27 30.65-30.49 112.92-8.4 31.12-9.27 34.35-8.26 30.62-28.52 105.67c-3.57-1.77-7.09-3.63-10.56-5.56-30.07-16.72-56.42-39.33-77.48-66.27l19.54-33.84 17.67-30.62 19.83-34.35 17.97-31.12 65.2-112.92 17.69-30.65z" fill="#78b57f"/><path d="m438.21 379.738c-5.06-2.6-9.39-6.42-12.62-11.06-6.21 8.95-16.54 14.82-28.26 14.82-11.71 0-22.06-5.87-28.27-14.82-6.2 8.95-16.55 14.82-28.27 14.82-11.71 0-22.05-5.87-28.25-14.82-6.22 8.95-16.55 14.82-28.27 14.82s-22.06-5.87-28.27-14.82c-6.21 8.95-16.55 14.82-28.27 14.82s-22.05-5.87-28.26-14.82c-6.21 8.95-16.55 14.82-28.26 14.82-.47 0-.95-.01-1.41-.03-11.14-.45-20.91-6.2-26.86-14.79-6.21 8.95-16.56 14.82-28.27 14.82-11.72 0-22.05-5.87-28.26-14.82-3.23 4.64-7.56 8.46-12.62 11.06l17.67-30.62h329.08z" fill="#c9535d"/><path d="m179.07 349.118-8.26 30.62-1.01 3.73c-11.14-.45-20.91-6.2-26.86-14.79-6.21 8.95-16.56 14.82-28.27 14.82-11.72 0-22.05-5.87-28.26-14.82-3.23 4.64-7.56 8.46-12.62 11.06l17.67-30.62z" fill="#b53e4e"/><path d="m400.71 314.768h-289.42l17.97-31.12c5.52 2.58 10.23 6.59 13.68 11.56 6.2-8.95 16.55-14.81 28.27-14.81 9.25 0 17.64 3.65 23.81 9.61 1.65 1.57 3.14 3.31 4.44 5.2 6.22-8.95 16.55-14.81 28.27-14.81s22.06 5.86 28.27 14.81c6.21-8.95 16.55-14.81 28.27-14.81s22.05 5.86 28.26 14.81c6.21-8.95 16.55-14.81 28.26-14.81 11.72 0 22.07 5.86 28.27 14.81 3.45-4.97 8.16-8.98 13.68-11.56z" fill="#c9535d"/><path d="m195.02 290.008-6.68 24.76h-77.05l17.97-31.12c5.52 2.58 10.23 6.59 13.68 11.56 6.2-8.95 16.55-14.81 28.27-14.81 9.25-.001 17.64 3.65 23.81 9.61z" fill="#b53e4e"/><path d="m317.54 170.728h-123.08l17.69-30.65c4.68-2.38 9.97-3.73 15.58-3.73 2.93 0 5.77.37 8.49 1.06 8.14 2.07 15.12 7.05 19.78 13.76 6.21-8.95 16.55-14.82 28.27-14.82 5.61 0 10.9 1.35 15.58 3.73z" fill="#f4d84f"/><path d="m236.22 137.408-.72 2.67-8.27 30.65h-32.77l17.69-30.65c4.68-2.38 9.97-3.73 15.58-3.73 2.93 0 5.77.37 8.49 1.06z" fill="#efc24d"/><path d="m380.27 479.85c-6.26 3.49-12.69 6.72-19.26 9.68-7.64 3.44-22.458-6.81-30.478-4.12h-151.462c-8.02-2.69-20.44 7.56-28.08 4.12-6.57-2.96-13-6.19-19.26-9.68l112.81-195.4c5.09-8.82 17.83-8.82 22.92 0z" fill="#f4d84f"/><path d="m361.01 489.53c-32.04 14.44-67.59 22.47-105.01 22.47s-72.97-8.03-105.01-22.47l105.01-181.89z" fill="#333d3d"/></g></svg>