<svg id="Capa_1" enable-background="new 0 0 512 512" height="512" viewBox="0 0 512 512" width="512" xmlns="http://www.w3.org/2000/svg"><g><path d="m512 256c0 60.7-21.13 116.47-56.43 160.35-11.15 13.86-23.72-1.88-37.49 9.39-6.33 5.19-12.91 38.49-19.73 43.06-13.42 8.99-27.74 16.76-42.8 23.11-4.63 1.96-9.33-5.27-14.09-3.591-7.12 2.53-14.4 4.74-21.8 6.63-5.17 1.33-10.4 2.5-15.69 3.5-6.49 1.23-13.07 11.281-19.73 12.011-9.27 1.02-18.7 1.54-28.24 1.54-9.68 0-19.24-.54-28.65-1.59-12.05-1.34-23.86-14.686-35.36-17.646-.71-.18-1.42-.37-2.13-.56-6.69-1.78-13.271-2.839-19.731-5.149-4.95-1.76-9.829 6.505-14.629 4.445h-.01c-14.86-6.33-28.99-14.05-42.25-22.97-13.46-9.06-13.514-44.704-24.994-56.094-6.99-6.93-26.076 11.084-32.226 3.394-35.05-43.8-56.02-99.37-56.02-159.83 0-141.38 114.62-256 256-256s256 114.62 256 256z" fill="#b2e5f7"/><g fill="#84382a"><path d="m206.849 422.436h90.699v19.579h-90.699z"/><path d="m206.849 468.74h90.699v19.579h-90.699z"/><g><path d="m408.79 425.74v25.979l-53.24 40.19c-4.63 1.96-9.33 3.79-14.09 5.47-7.12 2.53-14.4 4.74-21.8 6.63l-5.28-6.99 77.2-58.29-82.22-62.08 12.49-16.55z"/><path d="m120.01 438.73 77.2 58.29-5.22 6.91c-.71-.18-1.42-.37-2.13-.56-6.69-1.78-13.27-3.83-19.73-6.14-4.95-1.76-9.83-3.67-14.63-5.73h-.01l-52.69-39.78v-25.98l86.94-65.64 12.49 16.55z"/></g></g><g><g><path d="m113.24 378.37v90.16c-13.46-9.06-26.01-19.36-37.49-30.75-6.99-6.93-13.58-14.26-19.73-21.95v-37.46z" fill="#934e3c"/><g fill="#84382a"><path d="m56.017 378.371h57.22v34.065h-57.22z"/><path d="m75.75 378.37v59.41c-6.99-6.93-13.58-14.26-19.73-21.95v-37.46z"/></g></g><g><path d="m227.35 378.37v132.04c-12.8-1.42-25.32-3.79-37.49-7.04-6.69-1.78-13.27-3.83-19.73-6.14v-118.86z" fill="#934e3c"/><g fill="#84382a"><path d="m170.129 378.371h57.22v34.065h-57.22z"/><path d="m189.86 378.37v125c-6.69-1.78-13.27-3.83-19.73-6.14v-118.86z"/></g></g><g><path d="m341.46 378.37v119.01c-12.1 4.29-24.63 7.69-37.49 10.13-6.49 1.23-13.07 2.22-19.73 2.95v-132.09z" fill="#934e3c"/><g fill="#84382a"><path d="m284.241 378.371h57.22v34.065h-57.22z"/><path d="m303.97 378.37v129.14c-6.49 1.23-13.07 2.22-19.73 2.95v-132.09z"/></g></g><g><path d="m455.57 378.37v37.98c-11.15 13.86-23.72 26.54-37.49 37.81-6.33 5.19-12.91 10.07-19.73 14.64v-90.43z" fill="#934e3c"/><g fill="#84382a"><path d="m398.352 378.371h57.22v34.065h-57.22z"/><path d="m418.08 378.37v75.79c-6.33 5.19-12.91 10.07-19.73 14.64v-90.43z"/></g></g></g><path d="m473.065 304.591v92.524h-434.544v-92.524l40.798-53.125 176.474-229.776z" fill="#aa6951"/><path d="m79.319 251.466v145.649h-40.798v-92.524z" fill="#934e3c"/><path d="m473.065 304.591v35.169c-.487.042-.985.062-1.493.062-2.737 0-5.308-1.265-6.957-3.442l-208.615-273.581-208.604 273.581c-1.659 2.177-4.23 3.442-6.967 3.442h-.01c-.643 0-1.275-.031-1.897-.103v-35.127l217.271-282.902z" fill="#934e3c"/><path d="m471.569 318.149c-2.73 0-5.303-1.274-6.959-3.445l-208.614-273.581-208.604 273.582c-1.655 2.171-4.229 3.445-6.959 3.445h-.01c-14.662 0-22.971-16.801-14.081-28.464l215.572-282.713c7.083-9.298 21.079-9.298 28.173 0l215.573 282.712c8.89 11.663.571 28.464-14.091 28.464z" fill="#e89f4b"/><g fill="#d88330"><path d="m46.523 289.686 215.574-282.713c1.161-1.524 2.521-2.773 3.993-3.798-7.513-5.225-18.253-3.976-24.175 3.798l-215.574 282.713c-8.89 11.663-.58 28.464 14.081 28.464h.011c2.73 0 5.303-1.274 6.959-3.445l1.049-1.375c-6.126-5.846-7.835-15.881-1.918-23.644z"/><path d="m266.086 27.889-10.091 13.234 208.615 273.582c1.655 2.171 4.229 3.445 6.959 3.445 4.904 0 9.093-1.886 12.171-4.824z"/></g><path d="m469.967 398.237h-428.344c-5.454 0-9.875-4.421-9.875-9.875 0-5.454 4.421-9.875 9.875-9.875h428.344c5.454 0 9.875 4.421 9.875 9.875 0 5.454-4.421 9.875-9.875 9.875z" fill="#934e3c"/><g><g><g><path d="m161.805 360.613h-29.224c-8.565 0-15.508-6.943-15.508-15.508v-86.711c0-8.565 6.943-15.508 15.508-15.508h29.224c8.565 0 15.508 6.943 15.508 15.508v86.711c0 8.565-6.943 15.508-15.508 15.508z" fill="#e89f4b"/><path d="m140.005 360.605h-7.422c-8.567 0-15.51-6.943-15.51-15.51v-86.701c0-8.567 6.943-15.51 15.51-15.51h7.422c-8.567 0-15.51 6.943-15.51 15.51v86.701c0 8.568 6.943 15.51 15.51 15.51z" fill="#d88330"/><path d="m132.581 347.756c-1.462 0-2.651-1.189-2.651-2.651v-86.711c0-1.462 1.189-2.651 2.651-2.651h29.224c1.462 0 2.651 1.189 2.651 2.651v86.711c0 1.462-1.189 2.651-2.651 2.651z" fill="#d88330"/><g fill="#934e3c"><path d="m156.276 271.577h-18.165c-2.252 0-4.078-1.826-4.078-4.078 0-2.252 1.826-4.078 4.078-4.078h18.165c2.252 0 4.078 1.826 4.078 4.078 0 2.252-1.826 4.078-4.078 4.078z"/><path d="m156.276 285.277h-18.165c-2.252 0-4.078-1.826-4.078-4.078 0-2.252 1.826-4.078 4.078-4.078h18.165c2.252 0 4.078 1.826 4.078 4.078 0 2.252-1.826 4.078-4.078 4.078z"/><path d="m156.276 298.977h-18.165c-2.252 0-4.078-1.826-4.078-4.078 0-2.252 1.826-4.078 4.078-4.078h18.165c2.252 0 4.078 1.826 4.078 4.078 0 2.252-1.826 4.078-4.078 4.078z"/><path d="m156.276 312.677h-18.165c-2.252 0-4.078-1.826-4.078-4.078 0-2.252 1.826-4.078 4.078-4.078h18.165c2.252 0 4.078 1.826 4.078 4.078 0 2.252-1.826 4.078-4.078 4.078z"/><path d="m156.276 326.377h-18.165c-2.252 0-4.078-1.826-4.078-4.078 0-2.252 1.826-4.078 4.078-4.078h18.165c2.252 0 4.078 1.826 4.078 4.078 0 2.252-1.826 4.078-4.078 4.078z"/><path d="m156.276 340.077h-18.165c-2.252 0-4.078-1.826-4.078-4.078 0-2.252 1.826-4.078 4.078-4.078h18.165c2.252 0 4.078 1.826 4.078 4.078 0 2.252-1.826 4.078-4.078 4.078z"/></g></g><g><path d="m221.461 360.613h-29.224c-8.565 0-15.508-6.943-15.508-15.508v-86.711c0-8.565 6.943-15.508 15.508-15.508h29.224c8.565 0 15.508 6.943 15.508 15.508v86.711c0 8.565-6.943 15.508-15.508 15.508z" fill="#e89f4b"/><path d="m199.661 360.605h-7.422c-8.567 0-15.51-6.943-15.51-15.51v-86.701c0-8.567 6.943-15.51 15.51-15.51h7.422c-8.567 0-15.51 6.943-15.51 15.51v86.701c0 8.568 6.942 15.51 15.51 15.51z" fill="#d88330"/><path d="m192.237 347.756c-1.462 0-2.651-1.189-2.651-2.651v-86.711c0-1.462 1.189-2.651 2.651-2.651h29.224c1.462 0 2.651 1.189 2.651 2.651v86.711c0 1.462-1.189 2.651-2.651 2.651z" fill="#d88330"/><g fill="#934e3c"><path d="m215.932 271.577h-18.165c-2.252 0-4.078-1.826-4.078-4.078 0-2.252 1.826-4.078 4.078-4.078h18.165c2.252 0 4.078 1.826 4.078 4.078 0 2.252-1.826 4.078-4.078 4.078z"/><path d="m215.932 285.277h-18.165c-2.252 0-4.078-1.826-4.078-4.078 0-2.252 1.826-4.078 4.078-4.078h18.165c2.252 0 4.078 1.826 4.078 4.078 0 2.252-1.826 4.078-4.078 4.078z"/><path d="m215.932 298.977h-18.165c-2.252 0-4.078-1.826-4.078-4.078 0-2.252 1.826-4.078 4.078-4.078h18.165c2.252 0 4.078 1.826 4.078 4.078 0 2.252-1.826 4.078-4.078 4.078z"/><path d="m215.932 312.677h-18.165c-2.252 0-4.078-1.826-4.078-4.078 0-2.252 1.826-4.078 4.078-4.078h18.165c2.252 0 4.078 1.826 4.078 4.078 0 2.252-1.826 4.078-4.078 4.078z"/><path d="m215.932 326.377h-18.165c-2.252 0-4.078-1.826-4.078-4.078 0-2.252 1.826-4.078 4.078-4.078h18.165c2.252 0 4.078 1.826 4.078 4.078 0 2.252-1.826 4.078-4.078 4.078z"/><path d="m215.932 340.077h-18.165c-2.252 0-4.078-1.826-4.078-4.078 0-2.252 1.826-4.078 4.078-4.078h18.165c2.252 0 4.078 1.826 4.078 4.078 0 2.252-1.826 4.078-4.078 4.078z"/></g></g></g><g><g><path d="m319.348 360.613h-29.224c-8.565 0-15.508-6.943-15.508-15.508v-86.711c0-8.565 6.943-15.508 15.508-15.508h29.224c8.565 0 15.508 6.943 15.508 15.508v86.711c0 8.565-6.943 15.508-15.508 15.508z" fill="#e89f4b"/><path d="m297.548 360.605h-7.422c-8.567 0-15.51-6.943-15.51-15.51v-86.701c0-8.567 6.943-15.51 15.51-15.51h7.422c-8.567 0-15.51 6.943-15.51 15.51v86.701c0 8.568 6.943 15.51 15.51 15.51z" fill="#d88330"/><path d="m290.124 347.756c-1.462 0-2.651-1.189-2.651-2.651v-86.711c0-1.462 1.189-2.651 2.651-2.651h29.224c1.462 0 2.651 1.189 2.651 2.651v86.711c0 1.462-1.189 2.651-2.651 2.651z" fill="#d88330"/><g fill="#934e3c"><path d="m313.819 271.577h-18.165c-2.252 0-4.078-1.826-4.078-4.078 0-2.252 1.826-4.078 4.078-4.078h18.165c2.252 0 4.078 1.826 4.078 4.078 0 2.252-1.826 4.078-4.078 4.078z"/><path d="m313.819 285.277h-18.165c-2.252 0-4.078-1.826-4.078-4.078 0-2.252 1.826-4.078 4.078-4.078h18.165c2.252 0 4.078 1.826 4.078 4.078 0 2.252-1.826 4.078-4.078 4.078z"/><path d="m313.819 298.977h-18.165c-2.252 0-4.078-1.826-4.078-4.078 0-2.252 1.826-4.078 4.078-4.078h18.165c2.252 0 4.078 1.826 4.078 4.078 0 2.252-1.826 4.078-4.078 4.078z"/><path d="m313.819 312.677h-18.165c-2.252 0-4.078-1.826-4.078-4.078 0-2.252 1.826-4.078 4.078-4.078h18.165c2.252 0 4.078 1.826 4.078 4.078 0 2.252-1.826 4.078-4.078 4.078z"/><path d="m313.819 326.377h-18.165c-2.252 0-4.078-1.826-4.078-4.078 0-2.252 1.826-4.078 4.078-4.078h18.165c2.252 0 4.078 1.826 4.078 4.078 0 2.252-1.826 4.078-4.078 4.078z"/><path d="m313.819 340.077h-18.165c-2.252 0-4.078-1.826-4.078-4.078 0-2.252 1.826-4.078 4.078-4.078h18.165c2.252 0 4.078 1.826 4.078 4.078 0 2.252-1.826 4.078-4.078 4.078z"/></g></g><g><path d="m379.004 360.613h-29.224c-8.565 0-15.508-6.943-15.508-15.508v-86.711c0-8.565 6.943-15.508 15.508-15.508h29.224c8.565 0 15.508 6.943 15.508 15.508v86.711c0 8.565-6.943 15.508-15.508 15.508z" fill="#e89f4b"/><path d="m357.204 360.605h-7.422c-8.567 0-15.51-6.943-15.51-15.51v-86.701c0-8.567 6.943-15.51 15.51-15.51h7.422c-8.567 0-15.51 6.943-15.51 15.51v86.701c0 8.568 6.942 15.51 15.51 15.51z" fill="#d88330"/><path d="m349.78 347.756c-1.462 0-2.651-1.189-2.651-2.651v-86.711c0-1.462 1.189-2.651 2.651-2.651h29.224c1.462 0 2.651 1.189 2.651 2.651v86.711c0 1.462-1.189 2.651-2.651 2.651z" fill="#d88330"/><g fill="#934e3c"><path d="m373.475 271.577h-18.165c-2.252 0-4.078-1.826-4.078-4.078 0-2.252 1.826-4.078 4.078-4.078h18.165c2.252 0 4.078 1.826 4.078 4.078 0 2.252-1.826 4.078-4.078 4.078z"/><path d="m373.475 285.277h-18.165c-2.252 0-4.078-1.826-4.078-4.078 0-2.252 1.826-4.078 4.078-4.078h18.165c2.252 0 4.078 1.826 4.078 4.078 0 2.252-1.826 4.078-4.078 4.078z"/><path d="m373.475 298.977h-18.165c-2.252 0-4.078-1.826-4.078-4.078 0-2.252 1.826-4.078 4.078-4.078h18.165c2.252 0 4.078 1.826 4.078 4.078 0 2.252-1.826 4.078-4.078 4.078z"/><path d="m373.475 312.677h-18.165c-2.252 0-4.078-1.826-4.078-4.078 0-2.252 1.826-4.078 4.078-4.078h18.165c2.252 0 4.078 1.826 4.078 4.078 0 2.252-1.826 4.078-4.078 4.078z"/><path d="m373.475 326.377h-18.165c-2.252 0-4.078-1.826-4.078-4.078 0-2.252 1.826-4.078 4.078-4.078h18.165c2.252 0 4.078 1.826 4.078 4.078 0 2.252-1.826 4.078-4.078 4.078z"/><path d="m373.475 340.077h-18.165c-2.252 0-4.078-1.826-4.078-4.078 0-2.252 1.826-4.078 4.078-4.078h18.165c2.252 0 4.078 1.826 4.078 4.078 0 2.252-1.826 4.078-4.078 4.078z"/></g></g></g></g><circle cx="255.793" cy="165.945" fill="#934e3c" r="43.457"/><circle cx="255.793" cy="165.945" fill="#333d3d" r="30.899"/></g></svg>