<svg id="Capa_1" enable-background="new 0 0 512.08 512.08" height="512" viewBox="0 0 512.08 512.08" width="512" xmlns="http://www.w3.org/2000/svg"><g><path d="m35.13 385.5c-22.3-37.97-35.09-82.2-35.09-129.42 0-141.38 114.62-256 256-256s256 114.62 256 256c0 47.22-12.79 91.45-35.09 129.42" fill="#b2e5f7"/><path d="m35.13 163.071h441.821v188.977h-441.821z" fill="#ededed"/><path d="m35.13 163.071h441.821v48.385h-441.821z" fill="#e0e0e0"/><path d="m35.13 163.071h21.731v188.977h-21.731z" fill="#e0e0e0"/><path d="m476.95 351.15v34.35c-8.386 14.288-18.123 27.689-29.036 40.033-3.233 3.657-18.733-2.351-22.167 1.116-3.372 3.406-6.84 6.718-10.398 9.932-8.333 7.526-10.074 13.666-19.348 20.055s-18.443 7.548-28.546 12.687c-3.292 1.675-2.337 3.224-5.709 4.758-3.298 1.502-6.398 18.044-9.769 19.408-29.627 11.988-62.015 18.59-95.936 18.59-32.169 0-62.948-5.936-91.309-16.773-3.368-1.287-8.392-19.168-11.691-20.591-28.32-12.21-15.497-27.495-37.427-48.565-3.427-3.289-43.575 7.957-46.816 4.482-12.798-13.721-24.108-28.854-33.668-45.132v-34.35z" fill="#c9535d"/><path d="m56.86 351.15v65.73c-8-9.88-15.26-20.37-21.73-31.38v-34.35z" fill="#b53e4e"/><path d="m488.78 190.76h-465.48c-15.01 0-25.83-14.39-21.67-28.81l21.6-74.82 1.73-6 2.34-8.1c2.78-9.66 11.62-16.3 21.66-16.3h414.16c10.04 0 18.88 6.64 21.66 16.3l2.34 8.1 6.07 21.03 8.56 29.65 6.07 21.03 2.63 9.11c4.16 14.42-6.66 28.81-21.67 28.81z" fill="#c9535d"/><g fill="#b53e4e"><path d="m507.82 152.84h-153.78l-97.999-15.661-98.011 15.661h-134.8v-21.03h478.52z"/><path d="m493.19 102.16h-469.96l5.094-21.03h458.796z"/><path d="m89.248 56.726c-10.05 0-18.88 6.65-21.67 16.3l-25.67 88.93c-4.16 14.41 6.66 28.8 21.67 28.8h-40.28c-15.01 0-25.83-14.39-21.67-28.8l25.67-88.93c2.78-9.65 11.62-16.3 21.66-16.3z"/></g><path d="m354.04 80.02v72.82h-196.01v-72.82l18.93-12.56 79.08-52.46z" fill="#ededed"/><path d="m179.37 67.46v85.38h-21.34v-72.82l18.93-12.56z" fill="#e0e0e0"/><path d="m354.04 80.02v32.25l-98-65.02-98.01 65.03v-32.26l98.01-65.02z" fill="#e0e0e0"/><path d="m377.947 110.884c-2.849 0-5.728-.81-8.278-2.502l-113.632-75.382-113.632 75.381c-6.904 4.58-16.213 2.695-20.792-4.208s-2.695-16.212 4.208-20.792l121.924-80.881c5.025-3.334 11.559-3.334 16.584 0l121.924 80.882c6.903 4.58 8.787 13.888 4.208 20.792-2.888 4.352-7.655 6.71-12.514 6.71z" fill="#a32a40"/><circle cx="256.041" cy="100.937" fill="#c9535d" r="36.241"/><circle cx="256.041" cy="100.937" fill="#4e5959" r="22.806"/><path d="m476.407 364.492h-440.733c-6.872 0-12.444-5.571-12.444-12.444 0-6.872 5.571-12.444 12.444-12.444h440.733c6.872 0 12.444 5.571 12.444 12.444-.001 6.873-5.572 12.444-12.444 12.444z" fill="#a32a40"/><g><g><path d="m361.98 213.209h75.933v104.669h-75.933z" fill="#6aa2b2"/><path d="m437.913 203.209h-75.933c-5.522 0-10 4.477-10 10v104.669c0 5.523 4.478 10 10 10h75.933c5.522 0 10-4.477 10-10v-104.669c0-5.523-4.478-10-10-10zm-10 20v21.868h-55.933v-21.868zm-55.933 84.67v-42.802h55.933v42.802z" fill="#e0e0e0"/></g><g><path d="m220.391 213.209h75.933v104.669h-75.933z" fill="#6aa2b2"/><path d="m296.323 203.209h-75.933c-5.522 0-10 4.477-10 10v104.669c0 5.523 4.478 10 10 10h75.933c5.522 0 10-4.477 10-10v-104.669c0-5.523-4.477-10-10-10zm-10 20v21.868h-55.933v-21.868zm-55.932 84.67v-42.802h55.933v42.802z" fill="#e0e0e0"/></g><g><path d="m78.801 213.209h75.933v104.669h-75.933z" fill="#6aa2b2"/><path d="m154.734 203.209h-75.933c-5.522 0-10 4.477-10 10v104.669c0 5.523 4.478 10 10 10h75.933c5.522 0 10-4.477 10-10v-104.669c0-5.523-4.478-10-10-10zm-10 20v21.868h-55.933v-21.868zm-55.933 84.67v-42.802h55.933v42.802z" fill="#e0e0e0"/></g></g><g><g><path d="m437.91 394.29v41.93c-21.74 21.96-47.44 40.01-75.93 52.97v-94.9z" fill="#6aa2b2"/><path d="m437.91 384.29h-75.93c-5.52 0-10 4.47-10 10v99.21c6.82-2.76 13.49-5.81 20-9.12v-38.23h55.53c7.18-6.47 14-13.36 20.4-20.62v-31.24c0-5.53-4.47-10-10-10zm-10 41.86h-55.93v-21.86h55.93z" fill="#b53e4e"/></g><g><path d="m220.391 394.286h75.933v104.669h-75.933z" fill="#6aa2b2"/><path d="m296.323 384.286h-75.933c-5.522 0-10 4.477-10 10v104.669c0 5.523 4.478 10 10 10h75.933c5.522 0 10-4.477 10-10v-104.669c0-5.523-4.477-10-10-10zm-10 20v21.868h-55.933v-21.868zm-55.932 84.67v-42.802h55.933v42.802z" fill="#b53e4e"/></g><g><path d="m154.73 394.29v96.95c-28.32-12.21-54-29.39-75.93-50.46v-46.49z" fill="#6aa2b2"/><path d="m154.73 384.29h-75.93c-5.52 0-10 4.47-10 10v36.34c6.31 6.78 12.99 13.21 20 19.25v-3.73h55.93v40.52c6.51 3.16 13.19 6.04 20 8.64v-101.02c0-5.53-4.47-10-10-10zm-10 41.86h-55.93v-21.86h55.93z" fill="#e0e0e0"/></g></g></g></svg>