<svg id="Capa_1" enable-background="new 0 0 512.23 512.23" height="512" viewBox="0 0 512.23 512.23" width="512" xmlns="http://www.w3.org/2000/svg"><g><path d="m512.115 256.23c0 35.26-7.13 68.85-20.03 99.42-19.23 45.61-51.32 84.49-91.71 112.08-17.97 12.28-34.279-9.39-55.139-1.97-26.83 9.55-55.72 14.75-85.82 14.75s-58.99-5.2-85.82-14.75c-15.68-5.58-30.66-12.64-44.76-21.03-7.62-4.51-18.291 22.29-25.371 17.02-36.45-27.11-65.44-63.69-83.32-106.1-12.9-30.57-20.03-64.16-20.03-99.42 0-137.09 107.78-249.03 243.22-255.69h.02c4.22-.2 8.48-.31 12.76-.31.75 0 1.49 0 2.24.01h.01c140.34 1.21 253.75 115.36 253.75 255.99z" fill="#b2e5f7"/><g fill="#a2dae8"><path d="m492.085 182.75v172.9c-19.234 45.61-51.314 84.484-91.706 112.086-17.969 12.279-37.584-5.663-58.444 1.754l-72.91 27.99v-314.73c0-4.14 3.16-7.59 7.29-7.95 21-1.85 39.74-11.59 53.22-26.23 13.48-14.65 21.72-34.21 21.72-55.69 0-15.25 12.37-27.62 27.62-27.62h3.36c15.25 0 27.61 12.37 27.61 27.62 0 42.96 32.95 78.23 74.95 81.92 4.12.36 7.29 3.81 7.29 7.95z"/><path d="m243.205 182.75v314.73l-72.91-28.73c-24.154-8.589-46.638 8.026-66.832-6.997-36.448-27.114-65.435-63.698-83.318-106.103v-172.9c0-4.14 3.17-7.59 7.29-7.95 21-1.85 39.74-11.59 53.22-26.23 13.49-14.65 21.73-34.21 21.73-55.69 0-15.25 12.36-27.62 27.61-27.62h3.36c15.25 0 27.62 12.37 27.62 27.62 0 42.96 32.94 78.23 74.94 81.92 4.13.36 7.29 3.81 7.29 7.95z"/></g><path d="m400.375 156.39v311.34c-17.97 12.28-37.58 22.33-58.44 29.75-26.83 9.55-55.72 14.75-85.82 14.75s-58.99-5.2-85.82-14.75c-24.16-8.59-46.64-20.71-66.83-35.73v-305.36c0-5.51 4.21-10.11 9.7-10.59 27.95-2.45 52.89-15.42 70.85-34.91 17.95-19.5 28.91-45.54 28.91-74.13 0-18.14 13.14-33.21 30.41-36.22 2.06-.35 4.19-.54 6.35-.54h4.47c1.42 0 2.83.08 4.21.24 18.32 2.09 32.55 17.64 32.55 36.52 0 57.19 43.85 104.13 99.76 109.04 5.49.48 9.7 5.08 9.7 10.59z" fill="#c9535d"/><path d="m262.945 1.07c-16.04 3.94-27.95 18.43-27.95 35.69 0 28.6-10.97 54.63-28.91 74.13-17.95 19.49-42.9 32.45-70.85 34.91-5.49.49-9.7 5.09-9.7 10.59v320.06c-7.62-4.51-14.99-9.43-22.07-14.7v-305.36c0-5.5 4.21-10.1 9.7-10.59 27.95-2.46 52.89-15.42 70.84-34.91 17.95-19.5 28.92-45.53 28.92-74.13 0-18.13 13.13-33.21 30.41-36.22h.02c2.06-.35 4.17-.54 6.32-.54h4.47c1.42 0 2.83.08 4.21.24h.01c1.56.18 3.09.46 4.58.83z" fill="#b53e4e"/><g><g><path d="m226.611 303.3v-79.653c0-21.171-17.163-38.334-38.334-38.334-21.171 0-38.334 17.163-38.334 38.334v79.653" fill="#6aa2b2"/><path d="m188.277 174.884c-26.887 0-48.759 21.883-48.759 48.759v79.659c0 5.755 4.671 10.425 10.425 10.425h76.667c5.755 0 10.425-4.671 10.425-10.425v-79.659c.001-26.877-21.872-48.759-48.758-48.759zm-7.819 117.993h-20.09v-40.043h20.09zm0-55.682h-20.09v-13.553c0-12.667 8.497-23.394 20.09-26.782zm35.727 55.682h-20.09v-40.043h20.09zm-20.089-55.682v-40.335c11.593 3.388 20.09 14.116 20.09 26.782v13.553z" fill="#ededed"/><g fill="#d1d1d1"><path d="m180.458 196.861h8.861v40.339h-8.861z"/><path d="m216.185 252.838h8.861v40.036h-8.861z"/><path d="m180.458 252.838h8.861v40.036h-8.861z"/><path d="m148.379 303.3v-79.652c0-25.391 19.512-46.301 44.328-48.548-1.46-.132-2.936-.21-4.431-.21-26.886 0-48.759 21.873-48.759 48.759v79.651c0 5.758 4.667 10.425 10.425 10.425h8.861c-5.756 0-10.424-4.668-10.424-10.425z"/><path d="m225.047 223.643v13.553h-8.861v-13.553c0-12.667-8.497-23.394-20.09-26.782h8.861c11.593 3.387 20.09 14.115 20.09 26.782z"/></g></g><g><path d="m353.891 303.3v-79.653c0-21.171-17.163-38.334-38.334-38.334-21.171 0-38.334 17.163-38.334 38.334v79.653" fill="#6aa2b2"/><path d="m315.557 174.884c-26.887 0-48.759 21.883-48.759 48.759v79.659c0 5.755 4.671 10.425 10.425 10.425h76.667c5.755 0 10.425-4.671 10.425-10.425v-79.659c.001-26.877-21.871-48.759-48.758-48.759zm-7.819 117.993h-20.09v-40.043h20.09zm0-55.682h-20.09v-13.553c0-12.667 8.497-23.394 20.09-26.782zm35.728 55.682h-20.09v-40.043h20.09zm-20.09-55.682v-40.335c11.593 3.388 20.09 14.116 20.09 26.782v13.553z" fill="#ededed"/><g fill="#d1d1d1"><path d="m307.738 196.861h8.861v40.339h-8.861z"/><path d="m343.466 252.838h8.861v40.036h-8.861z"/><path d="m307.738 252.838h8.861v40.036h-8.861z"/><path d="m275.66 303.3v-79.652c0-25.391 19.512-46.301 44.328-48.548-1.46-.132-2.936-.21-4.431-.21-26.886 0-48.759 21.873-48.759 48.759v79.651c0 5.758 4.667 10.425 10.425 10.425h8.861c-5.757 0-10.424-4.668-10.424-10.425z"/><path d="m352.327 223.643v13.553h-8.861v-13.553c0-12.667-8.497-23.394-20.09-26.782h8.861c11.594 3.387 20.09 14.115 20.09 26.782z"/></g></g></g><g><g><path d="m226.611 469.49v-79.653c0-21.171-17.163-38.334-38.334-38.334-21.171 0-38.334 17.163-38.334 38.334v79.653" fill="#6aa2b2"/><path d="m188.277 341.074c-26.887 0-48.759 21.883-48.759 48.759v79.659c0 5.755 4.671 10.425 10.425 10.425h76.667c5.755 0 10.425-4.671 10.425-10.425v-79.659c.001-26.877-21.872-48.759-48.758-48.759zm-7.819 117.993h-20.09v-40.043h20.09zm0-55.681h-20.09v-13.553c0-12.667 8.497-23.394 20.09-26.782zm35.727 55.681h-20.09v-40.043h20.09zm-20.089-55.681v-40.336c11.593 3.388 20.09 14.116 20.09 26.782v13.553h-20.09z" fill="#ededed"/><g fill="#d1d1d1"><path d="m180.458 363.052h8.861v40.339h-8.861z"/><path d="m216.185 419.028h8.861v40.036h-8.861z"/><path d="m180.458 419.028h8.861v40.036h-8.861z"/><path d="m148.379 469.49v-79.652c0-25.391 19.512-46.301 44.328-48.548-1.46-.132-2.936-.21-4.431-.21-26.886 0-48.759 21.873-48.759 48.759v79.652c0 5.758 4.667 10.425 10.425 10.425h8.861c-5.756-.001-10.424-4.668-10.424-10.426z"/><path d="m225.047 389.833v13.553h-8.861v-13.553c0-12.667-8.497-23.394-20.09-26.782h8.861c11.593 3.388 20.09 14.115 20.09 26.782z"/></g></g><g><path d="m353.891 469.49v-79.653c0-21.171-17.163-38.334-38.334-38.334-21.171 0-38.334 17.163-38.334 38.334v79.653" fill="#6aa2b2"/><path d="m315.557 341.074c-26.887 0-48.759 21.883-48.759 48.759v79.659c0 5.755 4.671 10.425 10.425 10.425h76.667c5.755 0 10.425-4.671 10.425-10.425v-79.659c.001-26.877-21.871-48.759-48.758-48.759zm-7.819 117.993h-20.09v-40.043h20.09zm0-55.681h-20.09v-13.553c0-12.667 8.497-23.394 20.09-26.782zm35.728 55.681h-20.09v-40.043h20.09zm-20.09-55.681v-40.336c11.593 3.388 20.09 14.116 20.09 26.782v13.553h-20.09z" fill="#ededed"/><g fill="#d1d1d1"><path d="m307.738 363.052h8.861v40.339h-8.861z"/><path d="m343.466 419.028h8.861v40.036h-8.861z"/><path d="m307.738 419.028h8.861v40.036h-8.861z"/><path d="m275.66 469.49v-79.652c0-25.391 19.512-46.301 44.328-48.548-1.46-.132-2.936-.21-4.431-.21-26.886 0-48.759 21.873-48.759 48.759v79.652c0 5.758 4.667 10.425 10.425 10.425h8.861c-5.757-.001-10.424-4.668-10.424-10.426z"/><path d="m352.327 389.833v13.553h-8.861v-13.553c0-12.667-8.497-23.394-20.09-26.782h8.861c11.594 3.388 20.09 14.115 20.09 26.782z"/></g></g></g><path d="m290.911 57.614h-77.985c-5.758 0-10.425-4.667-10.425-10.425s4.667-10.425 10.425-10.425h77.985c5.758 0 10.425 4.667 10.425 10.425s-4.667 10.425-10.425 10.425z" fill="#ededed"/><path d="m237.154 57.614h-24.228c-5.755 0-10.425-4.66-10.425-10.425 0-5.755 4.671-10.425 10.425-10.425h24.228c-5.765 0-10.425 4.67-10.425 10.425 0 5.765 4.66 10.425 10.425 10.425z" fill="#d1d1d1"/><g><path d="m251.917 88.575c-12.502 0-22.637 10.135-22.637 22.637v34.899h45.274v-34.899c0-12.502-10.135-22.637-22.637-22.637z" fill="#6aa2b2"/><path d="m274.554 153.93h-45.274c-4.318 0-7.819-3.501-7.819-7.819v-34.899c0-16.793 13.663-30.456 30.456-30.456s30.456 13.663 30.456 30.456v34.899c0 4.319-3.501 7.819-7.819 7.819zm-37.455-15.638h29.636v-27.08c0-8.171-6.647-14.818-14.818-14.818s-14.818 6.648-14.818 14.818z" fill="#ededed"/><g fill="#d1d1d1"><path d="m277.161 138.292v-27.08c0-8.171-6.647-14.818-14.818-14.818-1.836 0-3.588.351-5.213.965 5.603 2.116 9.605 7.519 9.605 13.853v27.08z"/><path d="m231.886 146.111v-34.899c0-15.016 10.926-27.52 25.244-30.001-1.695-.294-3.435-.456-5.213-.456-16.793 0-30.456 13.663-30.456 30.456v34.899c0 4.318 3.501 7.819 7.819 7.819h10.425c-4.318.001-7.819-3.499-7.819-7.818z"/></g></g></g></svg>