<svg id="Capa_1" enable-background="new 0 0 512 512" height="512" viewBox="0 0 512 512" width="512" xmlns="http://www.w3.org/2000/svg"><g><path d="m512 256c0 50.22-14.47 97.07-39.45 136.61-4.39 6.95-9.12 8.27-14.15 14.75-2.24 2.9-10.631 13.394-13.001 16.194-2.35 2.77-21.588 3.246-24.058 5.915-46.77 50.74-90.891 53.908-165.341 53.908-73.6 0-118.641-2.438-165.341-52.168-3.03-3.22-26.058-9.474-28.917-12.854-1.8-2.13-1.22-9.981-2.96-12.171-5.01-6.33-13.301-4.265-17.711-11.065-25.981-40.049-41.071-87.829-41.071-139.119 0-141.38 114.62-256 256-256s256 114.62 256 256z" fill="#b2e5f7"/><path d="m80.58 137.33h350.84v295.098h-350.84z" fill="#b53e4e"/><path d="m113.281 137.33v319.72l-32.701-24.622v-295.098z" fill="#a32a40"/><path d="m431.42 188.69v34.24c-18.56 8.75-39.05 13.48-60.12 13.48h-230.6c-21.07 0-41.56-4.73-60.12-13.48v-34.24c17.69 11.4 38.53 17.72 60.12 17.72h230.6c21.59 0 42.43-6.32 60.12-17.72z" fill="#a32a40"/><path d="m384.867 49.731h-257.734c-6.226 0-11.804-3.845-14.019-9.664l-4.854-12.75c-2.947-7.742.94-16.408 8.682-19.355 7.743-2.947 16.408.94 19.355 8.682l1.175 3.086h237.054l1.175-3.086c2.947-7.742 11.609-11.632 19.355-8.682 7.742 2.947 11.629 11.613 8.682 19.355l-4.854 12.75c-2.213 5.819-7.792 9.664-14.017 9.664z" fill="#7761b5"/><g fill="#614fa3"><path d="m390.08 16.645c1.322-3.473 3.799-6.162 6.823-7.815-.591-.322-1.199-.621-1.846-.867-7.746-2.95-16.408.94-19.355 8.682l-1.175 3.086h14.378z"/><path d="m127.492 40.068-4.854-12.75c-2.701-7.095.349-14.953 6.835-18.487-3.717-2.031-8.262-2.493-12.531-.868-7.742 2.947-11.629 11.613-8.682 19.355l4.854 12.75c2.215 5.818 7.793 9.664 14.019 9.664h14.378c-6.226-.001-11.804-3.846-14.019-9.664z"/></g><path d="m256 34.731h128.867c8.214 47.176 49.164 81.612 97.05 81.612h11.777l-19.453 27.577c-23.602 33.458-61.992 53.357-102.937 53.357h-115.304-115.304c-40.945 0-79.335-19.9-102.937-53.357l-19.453-27.577h11.777c47.886 0 88.836-34.436 97.05-81.612z" fill="#c9535d"/><path d="m432.21 172.7-60.91 24.58h-255l-36.51-24.58h8.73c35.5 0 65.86-58.22 71.95-137.97h62.58c-2.1 79.75-12.57 149.12-24.81 149.12h115.52c-6.12 0-11.8-17.34-16.21-44.65-4.41-27.32-7.55-64.6-8.6-104.47h62.58c3.05 39.87 12.16 74.37 24.95 98.89 12.78 24.52 29.25 39.08 47 39.08z" fill="#b53e4e"/><g><path d="m69.35 170.95v256.075c-3.03-3.22-5.97-2.335-8.83-5.715-7.02-8.29-13.52-17.04-19.45-26.19v-234h17.98c3.23 3.51 6.67 6.79 10.3 9.83z" fill="#7761b5"/><path d="m55.21 161.12v253.71c-5.01-6.33-9.73-12.91-14.14-19.71v-234z" fill="#614fa3"/></g><g><path d="m472.55 161.12v231.49c-4.12 6.51-8.52 12.82-13.2 18.92-2.54 3.33-5.17 6.59-7.87 9.78-2.35 2.77-4.75 2.31-7.22 4.98v-256.71c.31-.27.61-.54.92-.83 2.71-2.39 5.3-4.94 7.77-7.63z" fill="#7761b5"/><path d="m459.35 161.12v250.41c-2.54 3.33-5.17 6.59-7.87 9.78-2.35 2.77-4.75 2.31-7.22 4.98l.92-257.54.03-7.63z" fill="#614fa3"/></g><g><path d="m410.11 194.05v263h-28.28v-260.61c4.94-.47 9.81-1.27 14.6-2.39z" fill="#7761b5"/><path d="m381.825 194.05h14.141v263.002h-14.141z" fill="#614fa3"/></g><g><path d="m130.17 196.44v260.61h-28.28v-263h13.68c4.79 1.12 9.66 1.92 14.6 2.39z" fill="#7761b5"/><path d="m101.892 194.05h14.141v263.002h-14.141z" fill="#614fa3"/></g><g fill="#614fa3"><path d="m69.35 170.95v36.58c-10.26-6.02-19.78-13.35-28.28-21.84v-24.57h17.98c3.23 3.51 6.67 6.79 10.3 9.83z"/><path d="m130.17 196.44v30.1c-9.64-.72-19.12-2.43-28.28-5.06v-27.43h13.68c4.79 1.12 9.66 1.92 14.6 2.39z"/><path d="m410.11 194.05v27.43c-9.16 2.63-18.64 4.34-28.28 5.06v-30.1c4.94-.47 9.81-1.27 14.6-2.39z"/><path d="m472.55 161.12v22.93c-8.47 8.74-17.99 16.29-28.29 22.52v-36.99c3.04-2.65 5.94-5.47 8.69-8.46z"/></g><path d="m371.304 212.278h-230.608c-45.756 0-88.819-22.322-115.194-59.711l-19.453-27.577c-4.775-6.77-3.159-16.128 3.611-20.904 6.771-4.775 16.129-3.158 20.904 3.611l19.453 27.577c20.762 29.432 54.661 47.004 90.679 47.004h230.608c36.019 0 69.917-17.572 90.681-47.004l19.453-27.577c4.774-6.77 14.135-8.385 20.903-3.611 6.77 4.775 8.386 14.134 3.61 20.904l-19.453 27.577c-26.376 37.389-69.439 59.711-115.194 59.711z" fill="#e89f4b"/><g fill="#d88330"><path d="m478.897 135.274 19.453-27.577c1.064-1.509 2.364-2.745 3.804-3.729-6.753-4.618-15.985-2.981-20.717 3.729l-19.453 27.577c-20.764 29.432-54.662 47.004-90.681 47.004h16.913c36.019 0 69.918-17.572 90.681-47.004z"/><path d="m42.415 152.567-19.453-27.577c-4.775-6.77-3.159-16.128 3.611-20.904.061-.043.125-.076.186-.118-5.021-3.428-11.838-3.593-17.099.118-6.77 4.775-8.386 14.134-3.611 20.904l19.453 27.577c26.375 37.389 69.438 59.711 115.194 59.711h16.913c-45.756 0-88.819-22.322-115.194-59.711z"/></g><path d="m285.501 222.339h-59.002c-10.498 0-19.009 8.511-19.009 19.009v191.137c0 10.499 8.511 19.009 19.009 19.009h59.002c10.498 0 19.009-8.511 19.009-19.009v-191.137c0-10.499-8.511-19.009-19.009-19.009z" fill="#f4d84f"/><path d="m240.55 451.488h-14.06c-10.49 0-19-8.51-19-19.01v-191.13c0-10.5 8.51-19.01 19-19.01h14.06c-10.5 0-19.01 8.51-19.01 19.01v191.13c0 10.5 8.51 19.01 19.01 19.01z" fill="#efc24d"/><path d="m322.449 256h-132.898c-11.469 0-20.766 9.297-20.766 20.766v184.789c0 11.469 9.297 20.766 20.766 20.766h132.898c11.469 0 20.766-9.297 20.766-20.766v-184.789c-.001-11.469-9.298-20.766-20.766-20.766z" fill="#f4d84f"/><path d="m201.676 482.325h-12.12c-11.47 0-20.77-9.3-20.77-20.77v-184.789c0-11.47 9.3-20.77 20.77-20.77h12.12c-11.47 0-20.77 9.3-20.77 20.77v184.789c0 11.47 9.3 20.77 20.77 20.77z" fill="#efc24d"/><path d="m189.551 492c-.422 0-.766-.343-.766-.766v-214.468c0-.422.343-.766.766-.766h132.898c.422 0 .766.343.766.766v214.469c0 .422-.344.766-.766.766h-132.898z" fill="#a32a40"/><path d="m245.995 494.523v-221.046c0-.165.134-.299.299-.299h19.412c.165 0 .299.134.299.299v221.046c0 .165-.134.299-.299.299h-19.412c-.165 0-.299-.134-.299-.299z" fill="#f4d84f"/><g fill="#f4d84f"><path d="m280.526 373.915c-4.204 0-7.612-3.408-7.612-7.612v-24.106c0-4.204 3.408-7.612 7.612-7.612 4.204 0 7.612 3.408 7.612 7.612v24.106c0 4.204-3.408 7.612-7.612 7.612z"/><path d="m231.475 373.915c-4.204 0-7.612-3.408-7.612-7.612v-24.106c0-4.204 3.408-7.612 7.612-7.612 4.204 0 7.612 3.408 7.612 7.612v24.106c0 4.204-3.408 7.612-7.612 7.612z"/></g><g><path d="m406.662 373.915h-21.39c-8.107 0-14.679 6.572-14.679 14.679v49.845h50.749v-49.845c-.001-8.107-6.573-14.679-14.68-14.679z" fill="#f4d84f"/><path d="m402.292 373.925c-8.11 0-14.68 6.57-14.68 14.67v49.85h-17.02v-49.85c0-8.1 6.58-14.67 14.68-14.67z" fill="#efc24d"/></g><g><path d="m126.729 373.915h-21.39c-8.107 0-14.679 6.572-14.679 14.679v49.845h50.749v-49.845c-.001-8.107-6.573-14.679-14.68-14.679z" fill="#f4d84f"/><path d="m122.359 373.925c-8.11 0-14.68 6.57-14.68 14.67v49.85h-17.02v-49.85c0-8.1 6.58-14.67 14.68-14.67z" fill="#efc24d"/></g><path d="m451.48 421.31c-46.96 55.47-117.11 90.69-195.48 90.69s-148.52-35.22-195.48-90.69z" fill="#e89f4b"/></g></svg>