<svg id="Capa_1" enable-background="new 0 0 512 512" height="512" viewBox="0 0 512 512" width="512" xmlns="http://www.w3.org/2000/svg"><g><path d="m512 256c0 31.66-5.75 61.97-16.26 89.96-5.36 14.28-58.92 25.75-66.64 38.68-44.64 74.95-79.52 52.288-173.1 52.288s-144.23 27.272-188.87-47.678c-7.72-12.93-45.51-29.01-50.87-43.29-10.51-27.99-16.26-58.3-16.26-89.96s5.75-61.97 16.26-89.96c5.21-13.9 11.6-27.22 19.05-39.84 10.73-18.23 23.67-35 38.43-49.97 46.42-47.06 110.94-76.23 182.26-76.23s135.84 29.17 182.26 76.23c24.99 25.34 44.74 55.86 57.48 89.81 10.51 27.99 16.26 58.3 16.26 89.96z" fill="#b2e5f7"/><g fill="#ededed"><path d="m97.487 95.723c-15.434 0-27.99-12.557-27.99-27.991s12.556-27.99 27.99-27.99 27.991 12.556 27.991 27.99-12.557 27.991-27.991 27.991zm0-35.981c-4.406 0-7.99 3.584-7.99 7.99s3.584 7.991 7.99 7.991 7.991-3.585 7.991-7.991-3.584-7.99-7.991-7.99z"/><path d="m414.513 95.723c-15.434 0-27.991-12.557-27.991-27.991s12.557-27.99 27.991-27.99 27.99 12.556 27.99 27.99-12.556 27.991-27.99 27.991zm0-35.981c-4.406 0-7.991 3.584-7.991 7.99s3.584 7.991 7.991 7.991c4.406 0 7.99-3.585 7.99-7.991s-3.585-7.99-7.99-7.99z"/></g><g fill="#e0e0e0"><path d="m81.752 67.732c0-13.33 9.36-24.51 21.86-27.31-1.97-.45-4.02-.68-6.12-.68-15.44 0-27.99 12.56-27.99 27.99 0 15.44 12.55 27.99 27.99 27.99 2.1 0 4.15-.23 6.12-.68-12.5-2.8-21.86-13.98-21.86-27.31z"/><path d="m398.772 67.732c0-13.33 9.37-24.51 21.87-27.31-1.97-.45-4.02-.68-6.13-.68-15.43 0-27.99 12.56-27.99 27.99 0 15.44 12.56 27.99 27.99 27.99 2.11 0 4.16-.23 6.13-.68-12.5-2.79-21.87-13.97-21.87-27.31z"/></g><g><path d="m38.656 104.419h434.688v270.872h-434.688z" fill="#b53e4e"/><path d="m463.92 76.23h-415.84c-17.57 0-31.82 14.25-31.82 31.83v237.9c4.02 10.71 8.732 21.077 14.093 31.046 1.787 3.323 6.373 5.114 8.303 8.347 3.74 1.56 5.124 3.897 9.424 3.897h415.84c4.3 0 4.479-2.972 8.219-4.532 1.772-2.969 7.416-3.854 9.068-6.9 5.544-10.218 10.403-20.857 14.533-31.859v-237.9c0-17.579-14.25-31.829-31.82-31.829zm-228.41 272.03h-178.26v-231.04h178.26zm219.24 0h-178.26v-231.04h178.26z" fill="#c9535d"/><g><path d="m67.13 389.25h-19.05c-4.3 0-3.565-2.338-7.305-3.897-1.772-2.969-8.33-4.489-9.982-7.534-5.544-10.218-10.403-20.857-14.533-31.859v-237.9c0-17.58 14.25-31.83 31.82-31.83h19.05c-17.58 0-31.82 14.25-31.82 31.83v249.36c0 17.58 14.24 31.83 31.82 31.83z" fill="#b53e4e"/></g><g fill="#c9535d"><path d="m92.918 331.225c-6.306 0-11.418-5.112-11.418-11.418v-174.132c0-6.306 5.112-11.418 11.418-11.418 6.306 0 11.418 5.112 11.418 11.418v174.132c0 6.306-5.112 11.418-11.418 11.418z"/><path d="m145.252 331.225c-6.306 0-11.418-5.112-11.418-11.418v-174.132c0-6.306 5.112-11.418 11.418-11.418 6.306 0 11.418 5.112 11.418 11.418v174.132c.001 6.306-5.111 11.418-11.418 11.418z"/><path d="m197.587 331.225c-6.306 0-11.418-5.112-11.418-11.418v-174.132c0-6.306 5.112-11.418 11.418-11.418 6.306 0 11.418 5.112 11.418 11.418v174.132c.001 6.306-5.112 11.418-11.418 11.418z"/></g><g fill="#c9535d"><path d="m313.289 331.225c-6.306 0-11.418-5.112-11.418-11.418v-174.132c0-6.306 5.112-11.418 11.418-11.418 6.306 0 11.418 5.112 11.418 11.418v174.132c0 6.306-5.112 11.418-11.418 11.418z"/><path d="m365.623 331.225c-6.306 0-11.418-5.112-11.418-11.418v-174.132c0-6.306 5.112-11.418 11.418-11.418 6.306 0 11.418 5.112 11.418 11.418v174.132c.001 6.306-5.111 11.418-11.418 11.418z"/><path d="m417.958 331.225c-6.306 0-11.418-5.112-11.418-11.418v-174.132c0-6.306 5.112-11.418 11.418-11.418 6.306 0 11.418 5.112 11.418 11.418v174.132c.001 6.306-5.112 11.418-11.418 11.418z"/></g><g><path d="m187.996 195.542h-85.487c-12.992 0-23.524 10.532-23.524 23.524v170.181h132.535v-170.181c0-12.992-10.532-23.524-23.524-23.524z" fill="#a32a40"/><path d="m99.074 389.247v-170.181c0-1.894 1.541-3.435 3.435-3.435h85.487c1.895 0 3.436 1.541 3.436 3.435v170.181z" fill="#333d3d"/><circle cx="166.794" cy="292.324" fill="#c9535d" r="15.363"/></g><g><path d="m408.003 146.355h-85.487c-12.992 0-23.524 10.532-23.524 23.524v132.223c0 9.402 7.622 17.024 17.024 17.024h98.488c9.402 0 17.024-7.622 17.024-17.024v-132.223c-.001-12.992-10.533-23.524-23.525-23.524z" fill="#a32a40"/><path d="m319.082 294.815v-124.936c0-1.897 1.538-3.435 3.435-3.435h85.486c1.898 0 3.436 1.538 3.436 3.436v124.935c0 2.352-1.907 4.259-4.259 4.259h-83.84c-2.352 0-4.258-1.907-4.258-4.259z" fill="#598f98"/><path d="m411.439 169.875v124.94c0 2.35-1.91 4.25-4.26 4.25h-10.57c2.35 0 4.26-1.9 4.26-4.25v-124.94c0-1.9-1.54-3.44-3.44-3.44h10.57c1.9 0 3.44 1.54 3.44 3.44z" fill="#6aa2b2"/><path d="m306.198 212.652h119.211v20.089h-119.211z" fill="#a32a40"/></g></g><path d="m481.21 377.82c-43.32 79.91-127.93 134.18-225.21 134.18s-181.89-54.27-225.21-134.18c6.08-5.71 14.26-9.2 23.26-9.2 12.17 0 22.84 6.4 28.85 16.02 6-9.62 16.67-16.02 28.85-16.02 12.17 0 22.84 6.4 28.85 16.02 6-9.62 16.68-16.02 28.85-16.02s22.84 6.4 28.85 16.02c6-9.62 16.68-16.02 28.85-16.02s22.84 6.4 28.85 16.02c6.01-9.62 16.68-16.02 28.85-16.02s22.85 6.4 28.85 16.02c6.01-9.62 16.68-16.02 28.85-16.02s22.85 6.4 28.85 16.02c6.01-9.62 16.68-16.02 28.85-16.02 12.18 0 22.85 6.4 28.85 16.02 6.01-9.62 16.68-16.02 28.85-16.02 9 0 17.18 3.49 23.26 9.2z" fill="#97d6a8"/></g></svg>