<svg id="Capa_1" enable-background="new 0 0 512 512" height="512" viewBox="0 0 512 512" width="512" xmlns="http://www.w3.org/2000/svg"><g><path d="m382.782 419.191c3.76-6.02 9.36-10.79 16-13.51 15.581-17.066 75.202-13.371 85.745-34.191 17.571-34.699 27.473-73.94 27.473-115.49 0-141.38-114.62-256-256-256s-256 114.62-256 256c0 40.905 9.597 79.572 26.66 113.87 10.668 21.445 53.105 25.162 69.09 42.67 6.64 2.72 12.24 7.49 16 13.51l29.075 31.085h262.128" fill="#b2e5f7"/><g><path d="m212.221 25.286h87.558v78.298h-87.558z" fill="#ededed"/><path d="m212.221 25.286h23.67v78.298h-23.67z" fill="#e0e0e0"/><path d="m485.34 145.56v224.31c-10.23 20.56-23.14 39.55-38.27 56.51-6.37 7.14-19.99 13.91-27.11 20.29h-327.75c-7.12-6.38-20.91-13.15-27.28-20.29-5.56-6.23-10.82-12.74-15.76-19.5-8.5-11.63-16.04-24.01-22.51-37.01v-224.31z" fill="#e0e0e0"/><g><g><path d="m269.972 292.482h-27.945c-8.17 0-14.792-6.623-14.792-14.793v-62.103c0-8.17 6.623-14.792 14.792-14.792h27.945c8.17 0 14.793 6.623 14.793 14.792v62.103c0 8.171-6.623 14.793-14.793 14.793z" fill="#598f98"/><path d="m269.972 192.138h-27.945c-12.93 0-23.449 10.519-23.449 23.449v62.103c0 12.93 10.519 23.449 23.449 23.449h27.945c12.93 0 23.449-10.519 23.449-23.449v-62.103c0-12.93-10.519-23.449-23.449-23.449zm6.137 23.449v24.557h-13.616v-30.694h7.48c3.383.001 6.136 2.754 6.136 6.137zm-34.081-6.136h7.48v30.694h-13.617v-24.557c0-3.384 2.753-6.137 6.137-6.137zm-6.137 68.239v-24.561h13.617v30.697h-7.48c-3.384 0-6.137-2.753-6.137-6.136zm34.081 6.136h-7.48v-30.697h13.616v24.561c.001 3.383-2.752 6.136-6.136 6.136z" fill="#ededed"/><g fill="#d1d1d1"><path d="m284.514 277.69v-24.561h-8.405v24.561c0 3.068-2.266 5.611-5.211 6.059v.077h7.48c3.383 0 6.136-2.753 6.136-6.136z"/><path d="m276.109 215.587v24.557h8.405v-24.557c0-3.383-2.753-6.136-6.136-6.136h-7.48v.077c2.944.449 5.211 2.991 5.211 6.059z"/><path d="m257.913 283.826v-30.697h-8.405v30.62c.303.046.61.078.925.078h7.48z"/><path d="m226.984 277.69v-62.103c0-12.93 10.519-23.449 23.449-23.449h-8.405c-12.93 0-23.449 10.519-23.449 23.449v62.103c0 12.93 10.519 23.449 23.449 23.449h8.405c-12.93 0-23.449-10.519-23.449-23.449z"/><path d="m257.913 209.451h-7.48c-.315 0-.623.031-.925.078v30.616h8.405z"/></g></g></g><g><g><path d="m269.972 417.397h-27.945c-8.17 0-14.792-6.623-14.792-14.793v-62.103c0-8.17 6.623-14.793 14.792-14.793h27.945c8.17 0 14.793 6.623 14.793 14.793v62.103c0 8.17-6.623 14.793-14.793 14.793z" fill="#598f98"/><path d="m269.972 317.053h-27.945c-12.93 0-23.449 10.519-23.449 23.449v62.103c0 12.93 10.519 23.449 23.449 23.449h27.945c12.93 0 23.449-10.519 23.449-23.449v-62.103c0-12.93-10.519-23.449-23.449-23.449zm6.137 23.449v24.557h-13.616v-30.694h7.48c3.383 0 6.136 2.753 6.136 6.137zm-34.081-6.137h7.48v30.694h-13.617v-24.557c0-3.384 2.753-6.137 6.137-6.137zm-6.137 68.24v-24.561h13.617v30.697h-7.48c-3.384 0-6.137-2.753-6.137-6.136zm34.081 6.136h-7.48v-30.697h13.616v24.561c.001 3.383-2.752 6.136-6.136 6.136z" fill="#ededed"/><g fill="#d1d1d1"><path d="m284.514 402.605v-24.561h-8.405v24.561c0 3.068-2.266 5.611-5.211 6.059v.077h7.48c3.383 0 6.136-2.753 6.136-6.136z"/><path d="m276.109 340.502v24.557h8.405v-24.557c0-3.383-2.753-6.136-6.136-6.136h-7.48v.077c2.944.448 5.211 2.99 5.211 6.059z"/><path d="m257.913 408.741v-30.697h-8.405v30.62c.303.046.61.078.925.078h7.48z"/><path d="m226.984 402.605v-62.103c0-12.93 10.519-23.449 23.449-23.449h-8.405c-12.93 0-23.449 10.519-23.449 23.449v62.103c0 12.93 10.519 23.449 23.449 23.449h8.405c-12.93-.001-23.449-10.52-23.449-23.449z"/><path d="m257.913 334.365h-7.48c-.315 0-.623.031-.925.078v30.616h8.405z"/></g></g></g><path d="m485.34 145.56v38.91c-1.83.38-3.74.58-5.71.58h-447.26c-1.97 0-3.88-.2-5.71-.58v-38.91z" fill="#d1d1d1"/><path d="m479.63 172.51h-447.26c-19.16 0-32.63-18.85-26.42-36.98l5.91-17.26.94-2.74 8.71-25.41 3.98-11.6c.99-2.91 2.44-5.57 4.25-7.92 5.18-6.77 13.31-10.95 22.17-10.95h408.18c8.86 0 16.99 4.18 22.17 10.95 1.81 2.35 3.26 5.01 4.25 7.92l3.98 11.6 8.71 25.41.94 2.74 5.91 17.26c6.21 18.13-7.26 36.98-26.42 36.98z" fill="#84382a"/><g fill="#70231b"><path d="m500.14 118.27c-1.36 12.14-11.66 21.58-24.17 21.58-8.29 0-15.6-4.15-20-10.48-4.39 6.33-11.7 10.48-19.99 10.48s-15.61-4.15-20-10.48c-4.39 6.33-11.71 10.48-20 10.48s-15.6-4.15-20-10.48c-4.39 6.33-11.7 10.48-19.99 10.48s-15.61-4.15-20-10.48c-4.39 6.33-11.71 10.48-20 10.48s-15.6-4.15-19.99-10.48c-4.4 6.33-11.71 10.48-20 10.48s-15.61-4.15-20-10.48c-4.39 6.33-11.71 10.48-20 10.48s-15.6-4.15-19.99-10.48c-4.4 6.33-11.71 10.48-20 10.48s-15.61-4.15-20-10.48c-4.39 6.33-11.71 10.48-20 10.48s-15.6-4.15-19.99-10.48c-4.4 6.33-11.71 10.48-20 10.48s-15.61-4.15-20-10.48c-4.39 6.33-11.71 10.48-20 10.48s-15.6-4.15-19.99-10.48c-4.4 6.33-11.71 10.48-20 10.48-12.51 0-22.81-9.44-24.17-21.58l.94-2.74h486.4z"/><path d="m490.49 90.12c-4.06 3.02-9.08 4.8-14.52 4.8-8.29 0-15.6-4.15-20-10.48-4.39 6.33-11.7 10.48-19.99 10.48s-15.61-4.15-20-10.48c-4.39 6.33-11.71 10.48-20 10.48s-15.6-4.15-20-10.48c-4.39 6.33-11.7 10.48-19.99 10.48s-15.61-4.15-20-10.48c-4.39 6.33-11.71 10.48-20 10.48s-15.6-4.15-19.99-10.48c-4.4 6.33-11.71 10.48-20 10.48s-15.61-4.15-20-10.48c-4.39 6.33-11.71 10.48-20 10.48s-15.6-4.15-19.99-10.48c-4.4 6.33-11.71 10.48-20 10.48s-15.61-4.15-20-10.48c-4.39 6.33-11.71 10.48-20 10.48s-15.6-4.15-19.99-10.48c-4.4 6.33-11.71 10.48-20 10.48s-15.61-4.15-20-10.48c-4.39 6.33-11.71 10.48-20 10.48s-15.6-4.15-19.99-10.48c-4.4 6.33-11.71 10.48-20 10.48-5.44 0-10.46-1.78-14.52-4.8l3.98-11.6c.99-2.91 2.44-5.57 4.25-7.92h452.52c1.81 2.35 3.26 5.01 4.25 7.92z"/><path d="m37.132 135.534c-6.21 18.124 7.256 36.971 26.415 36.971h-31.18c-19.159 0-32.626-18.847-26.415-36.971l19.547-57.014c3.871-11.288 14.48-18.879 26.415-18.879h31.181c-11.935 0-22.545 7.59-26.415 18.879z"/></g><g><g><path d="m205.86 193.89v252.78h-120.18c-6.39-5.729-12.99-11.774-18.777-18.112-7.698-8.431-14.842-17.38-21.373-26.788v-207.88l10.53-9.87 3.33-3.12 64.07-45.41z" fill="#ededed"/><path d="m205.863 193.893v21.447l-82.406-58.408-77.927 55.234v-18.273l10.528-9.872 3.332-3.124 64.067-45.404z" fill="#e0e0e0"/><path d="m220.749 211.899c-3.174 0-6.376-.949-9.162-2.923l-88.13-62.462-88.13 62.462c-7.15 5.067-17.054 3.379-22.121-3.771-5.068-7.15-3.38-17.054 3.77-22.121l97.305-68.965c5.497-3.896 12.853-3.896 18.351 0l97.306 68.965c7.15 5.067 8.838 14.972 3.771 22.121-3.093 4.364-7.99 6.694-12.96 6.694z" fill="#aa6951"/><g fill="#934e3c"><path d="m34.588 205.206c-5.068-7.15-3.38-17.054 3.77-22.121l95.79-67.891-1.515-1.074c-5.498-3.896-12.854-3.896-18.351 0l-97.305 68.965c-7.15 5.068-8.838 14.972-3.77 22.121 5.067 7.15 14.971 8.838 22.121 3.771l1.614-1.144c-.862-.774-1.657-1.644-2.354-2.627z"/><path d="m134.148 138.937-10.691 7.577 88.13 62.462c2.786 1.974 5.989 2.923 9.162 2.923 3.849 0 7.644-1.413 10.601-4.07z"/></g><g><path d="m167.79 332.82v113.85h-82.61c-2.05-1.83-4.06-3.7-6.05-5.6v-108.25c0-8.69 7.04-15.73 15.73-15.73h57.19c8.69 0 15.74 7.04 15.74 15.73z" fill="#934e3c"/><path d="m92.566 446.667v-113.844c0-1.267 1.031-2.298 2.298-2.298h57.187c1.268 0 2.298 1.031 2.298 2.298v113.844z" fill="#aa6951"/><circle cx="137.867" cy="381.83" fill="#934e3c" r="10.277"/></g><g><path d="m70.639 209.555h105.637v78.671h-105.637z" fill="#598f98"/><path d="m176.276 203.323h-105.637c-3.442 0-6.232 2.79-6.232 6.232v78.671c0 3.442 2.79 6.232 6.232 6.232h105.637c3.442 0 6.232-2.79 6.232-6.232v-78.671c0-3.442-2.79-6.232-6.232-6.232zm-99.405 12.464h21.424v66.206h-21.424zm33.888 66.207v-66.206h25.396v66.206zm59.284 0h-21.424v-66.206h21.424z" fill="#ededed"/><g fill="#d1d1d1"><path d="m136.155 215.787h6.589v66.206h-6.589z"/><path d="m98.295 215.787h6.589v66.206h-6.589z"/><path d="m70.995 288.226v-78.671c0-3.442 2.79-6.232 6.232-6.232h-6.589c-3.442 0-6.232 2.79-6.232 6.232v78.671c0 3.442 2.79 6.232 6.232 6.232h6.589c-3.442 0-6.232-2.79-6.232-6.232z"/><path d="m170.043 215.787h6.589v66.206h-6.589z"/></g><path d="m176.276 274.242h-105.637c-5.984 0-10.835 4.851-10.835 10.835 0 5.984 4.851 10.835 10.835 10.835h105.637c5.984 0 10.835-4.851 10.835-10.835 0-5.984-4.851-10.835-10.835-10.835z" fill="#aa6951"/><path d="m82.693 292.737c1.96 1.96 4.67 3.17 7.66 3.17h-19.71c-3 0-5.7-1.21-7.67-3.17-1.96-1.96-3.17-4.67-3.17-7.66 0-5.99 4.85-10.84 10.84-10.84h19.71c-5.98 0-10.83 4.85-10.83 10.84.001 2.989 1.211 5.699 3.17 7.66z" fill="#934e3c"/></g></g><g><path d="m470.95 193.89v201.2c-7.694 11.871-16.346 23.066-25.848 33.472-5.787 6.337-12.889 12.382-19.281 18.108h-115.2v-252.78l10.52-9.87 3.34-3.12 64.06-45.41z" fill="#ededed"/><path d="m470.949 193.893v21.447l-82.406-58.408-77.927 55.234v-18.273l10.528-9.872 3.332-3.124 64.067-45.404z" fill="#e0e0e0"/><path d="m485.835 211.899c-3.174 0-6.376-.949-9.162-2.923l-88.13-62.462-88.13 62.462c-7.15 5.067-17.054 3.379-22.121-3.771-5.068-7.15-3.38-17.054 3.77-22.121l97.305-68.965c5.497-3.896 12.853-3.896 18.351 0l97.306 68.965c7.15 5.067 8.838 14.972 3.771 22.121-3.093 4.364-7.99 6.694-12.96 6.694z" fill="#aa6951"/><g fill="#934e3c"><path d="m299.673 205.206c-5.068-7.15-3.38-17.054 3.77-22.121l95.79-67.891-1.515-1.074c-5.498-3.896-12.854-3.896-18.351 0l-97.305 68.965c-7.15 5.068-8.838 14.972-3.77 22.121 5.067 7.15 14.971 8.838 22.121 3.771l1.614-1.144c-.861-.774-1.657-1.644-2.354-2.627z"/><path d="m399.234 138.937-10.691 7.577 88.13 62.462c2.786 1.974 5.989 2.923 9.162 2.923 3.849 0 7.644-1.413 10.601-4.07z"/></g><g><path d="m432.87 332.82v108.25c-1.99 1.9-4 3.77-6.05 5.6h-82.61v-113.85c0-8.69 7.05-15.73 15.74-15.73h57.19c8.69 0 15.73 7.04 15.73 15.73z" fill="#934e3c"/><path d="m357.652 446.667v-113.844c0-1.267 1.031-2.298 2.298-2.298h57.187c1.268 0 2.298 1.031 2.298 2.298v113.844z" fill="#aa6951"/><circle cx="402.953" cy="381.83" fill="#934e3c" r="10.277"/></g><g><path d="m335.724 209.555h105.637v78.671h-105.637z" fill="#598f98"/><path d="m441.361 203.323h-105.637c-3.442 0-6.232 2.79-6.232 6.232v78.671c0 3.442 2.79 6.232 6.232 6.232h105.637c3.442 0 6.232-2.79 6.232-6.232v-78.671c.001-3.442-2.789-6.232-6.232-6.232zm-99.404 12.464h21.424v66.206h-21.424zm33.888 66.207v-66.206h25.396v66.206zm59.284 0h-21.424v-66.206h21.424z" fill="#ededed"/><g fill="#d1d1d1"><path d="m401.241 215.787h6.589v66.206h-6.589z"/><path d="m363.381 215.787h6.589v66.206h-6.589z"/><path d="m336.081 288.226v-78.671c0-3.442 2.79-6.232 6.232-6.232h-6.589c-3.442 0-6.232 2.79-6.232 6.232v78.671c0 3.442 2.79 6.232 6.232 6.232h6.589c-3.442 0-6.232-2.79-6.232-6.232z"/><path d="m435.129 215.787h6.589v66.206h-6.589z"/></g><path d="m441.361 274.242h-105.637c-5.984 0-10.835 4.851-10.835 10.835 0 5.984 4.851 10.835 10.835 10.835h105.637c5.984 0 10.835-4.851 10.835-10.835 0-5.984-4.851-10.835-10.835-10.835z" fill="#aa6951"/><path d="m347.779 292.737c1.96 1.96 4.67 3.17 7.66 3.17h-19.71c-3 0-5.7-1.21-7.67-3.17-1.96-1.96-3.17-4.67-3.17-7.66 0-5.99 4.85-10.84 10.84-10.84h19.71c-5.98 0-10.83 4.85-10.83 10.84 0 2.989 1.21 5.699 3.17 7.66z" fill="#934e3c"/></g></g></g></g><path d="m445.1 428.56c-46.81 51.27-114.2 83.44-189.1 83.44s-142.29-32.17-189.1-83.44c6.64 2.72 12.24 7.49 16 13.51 6-9.62 16.67-16.02 28.85-16.02 12.17 0 22.84 6.4 28.85 16.02 6-9.62 16.68-16.02 28.85-16.02s22.84 6.4 28.85 16.02c6-9.62 16.68-16.02 28.85-16.02s22.84 6.4 28.85 16.02c6.01-9.62 16.68-16.02 28.85-16.02s22.85 6.4 28.85 16.02c6.01-9.62 16.68-16.02 28.85-16.02s22.85 6.4 28.85 16.02c6.01-9.62 16.68-16.02 28.85-16.02 12.18 0 22.85 6.4 28.85 16.02 3.76-6.02 9.36-10.79 16-13.51z" fill="#97d6a8"/></g></svg>