<svg id="Capa_1" enable-background="new 0 0 512 512" height="512" viewBox="0 0 512 512" width="512" xmlns="http://www.w3.org/2000/svg"><g><path d="m512 256c0 44.1-11.151 85.596-30.787 121.821-43.318 79.913-127.928 36.929-225.213 36.929s-181.895 42.984-225.213-36.929c-19.636-36.225-30.787-77.721-30.787-121.821 0-141.385 114.615-256 256-256s256 114.615 256 256z" fill="#b2e5f7"/><path d="m481.21 377.82c-43.32 79.91-127.93 134.18-225.21 134.18s-181.89-54.27-225.21-134.18c6.08-5.71 14.26-9.2 23.26-9.2 12.17 0 22.84 6.4 28.85 16.02 6-9.62 16.67-16.02 28.85-16.02 12.17 0 22.84 6.4 28.85 16.02 6-9.62 16.68-16.02 28.85-16.02s22.84 6.4 28.85 16.02c6-9.62 16.68-16.02 28.85-16.02s22.84 6.4 28.85 16.02c6.01-9.62 16.68-16.02 28.85-16.02s22.85 6.4 28.85 16.02c6.01-9.62 16.68-16.02 28.85-16.02s22.85 6.4 28.85 16.02c6.01-9.62 16.68-16.02 28.85-16.02 12.18 0 22.85 6.4 28.85 16.02 6.01-9.62 16.68-16.02 28.85-16.02 9 0 17.18 3.49 23.26 9.2z" fill="#598f98"/><g><g><path d="m132.44 339.87h41.13v123.07h-41.13z" fill="#f4d84f"/><path d="m132.437 339.874h14.756v123.066h-14.756z" fill="#efc24d"/></g><g><path d="m338.43 339.87h41.13v123.07h-41.13z" fill="#f4d84f"/><path d="m338.427 339.874h14.756v123.066h-14.756z" fill="#efc24d"/></g></g><path d="m447.06 426.38c-46.88 52.54-115.11 85.62-191.06 85.62s-144.18-33.08-191.06-85.62c2.07-.44 4.22-.67 6.42-.67 11.13 0 20.88 5.86 26.38 14.65 5.49-8.79 15.24-14.65 26.37-14.65s20.89 5.86 26.38 14.65c5.49-8.79 15.25-14.65 26.38-14.65s20.88 5.86 26.38 14.65c5.49-8.79 15.24-14.65 26.37-14.65s20.89 5.86 26.38 14.65c5.49-8.79 15.25-14.65 26.38-14.65s20.88 5.86 26.37 14.65c5.5-8.79 15.25-14.65 26.38-14.65s20.89 5.86 26.38 14.65c5.49-8.79 15.25-14.65 26.38-14.65s20.88 5.86 26.37 14.65c5.5-8.79 15.25-14.65 26.38-14.65 2.2 0 4.35.23 6.42.67z" fill="#6aa2b2"/><path d="m97.15 141.09h317.7v198.78h-317.7z" fill="#f4d84f"/><g fill="#efc24d"><path d="m144.76 206.024h270.09v10.573h-270.09z"/><path d="m144.76 234.682h270.09v10.573h-270.09z"/><path d="m144.76 263.34h270.09v10.573h-270.09z"/><path d="m144.76 291.999h270.09v10.573h-270.09z"/><path d="m97.151 141.092h70.399v198.782h-70.399z"/><path d="m414.85 141.09v43.79c-5.82 5.95-13.92 9.65-22.9 9.65-11.47 0-21.53-6.04-27.19-15.1-5.66 9.06-15.72 15.1-27.19 15.1-11.48 0-21.53-6.04-27.2-15.1-5.66 9.06-15.71 15.1-27.18 15.1s-21.53-6.04-27.19-15.1c-5.66 9.06-15.72 15.1-27.19 15.1s-21.52-6.04-27.18-15.1c-5.67 9.06-15.72 15.1-27.2 15.1-11.47 0-21.53-6.04-27.19-15.1-5.66 9.06-15.72 15.1-27.19 15.1-8.98 0-17.08-3.7-22.9-9.65v-43.79z"/></g><path d="m452.941 164.097c-2.134.454-4.35.691-6.618.691-11.473 0-21.523-6.04-27.192-15.101-5.659 9.061-15.709 15.101-27.182 15.101s-21.533-6.04-27.192-15.101c-5.659 9.061-15.719 15.101-27.192 15.101s-21.523-6.04-27.192-15.101c-5.659 9.061-15.709 15.101-27.182 15.101s-21.533-6.04-27.192-15.101c-5.659 9.061-15.719 15.101-27.192 15.101s-21.523-6.04-27.182-15.101c-5.669 9.061-15.719 15.101-27.192 15.101s-21.533-6.04-27.192-15.101c-5.659 9.061-15.719 15.101-27.192 15.101s-21.523-6.04-27.182-15.101c-5.669 9.061-15.719 15.101-27.192 15.101-2.268 0-4.484-.237-6.618-.691l115.214-127.748c43.709-48.465 119.75-48.465 163.459 0z" fill="#aa6951"/><path d="m304.887 136.238c-2.215 0-4.24-1.484-4.832-3.727l-25.007-94.887c-.704-2.67.891-5.405 3.561-6.109 2.673-.703 5.406.89 6.109 3.561l25.007 94.887c.704 2.67-.891 5.405-3.561 6.109-.427.112-.855.166-1.277.166z" fill="#934e3c"/><path d="m353.182 129.614c-1.774 0-3.492-.946-4.398-2.614l-47.948-88.264c-1.318-2.427-.419-5.462 2.007-6.78s5.462-.42 6.78 2.007l47.948 88.264c1.318 2.427.42 5.462-2.007 6.78-.758.411-1.576.607-2.382.607z" fill="#934e3c"/><path d="m389.63 201.25v127.07h-98.96v-127.07c0-2.95.73-5.73 2.01-8.16 2.78-5.3 8.19-9 14.49-9.38.35-.02.7-.03 1.06-.03h63.83c7.24 0 13.45 4.38 16.14 10.63.92 2.13 1.43 4.48 1.43 6.94z" fill="#aa6951"/><path d="m319.11 183.68c-.36 0-.71.01-1.06.03-6.3.38-11.71 4.08-14.49 9.38-1.28 2.43-2.01 5.21-2.01 8.16v127.07h-10.88v-127.07c0-2.95.73-5.73 2.01-8.16 2.78-5.3 8.19-9 14.49-9.38.35-.02.7-.03 1.06-.03z" fill="#934e3c"/><path d="m307.17 183.71c-3.83 4.33-8.82 7.63-14.49 9.38 2.78-5.3 8.19-9 14.49-9.38z" fill="#934e3c"/><path d="m313.55 183.68h48.04c-5.87 6.65-14.45 10.85-24.02 10.85s-18.15-4.2-24.02-10.85z" fill="#934e3c"/><path d="m388.2 194.31c-8.05-.94-15.18-4.86-20.27-10.63h4.13c7.24 0 13.45 4.38 16.14 10.63z" fill="#934e3c"/><path d="m305.666 328.317v-127.069c0-1.414 1.15-2.565 2.564-2.565h63.831c1.415 0 2.565 1.151 2.565 2.565v127.069z" fill="#333d3d"/><path d="m256.002.003c-8.741 0-17.482 12.122-23.863 36.345l-30.037 114.087c-.165-.247-.319-.495-.474-.742-5.669 9.061-15.719 15.101-27.192 15.101s-21.533-6.04-27.192-15.101c-5.659 9.061-15.719 15.101-27.192 15.101s-21.523-6.04-27.182-15.101c-5.669 9.061-15.719 15.101-27.192 15.101-2.268 0-4.484-.237-6.618-.691l115.211-127.754c21.863-24.224 51.797-36.346 81.731-36.346z" fill="#934e3c"/><path d="m132.44 339.87h41.13v30.39h-41.13z" fill="#efc24d"/><path d="m338.43 339.87h41.13v30.39h-41.13z" fill="#efc24d"/><path d="m445.733 317.155h-379.466c-9.777 0-17.703 7.926-17.703 17.703 0 9.777 7.926 17.703 17.703 17.703h379.466c9.777 0 17.703-7.926 17.703-17.703 0-9.777-7.926-17.703-17.703-17.703z" fill="#aa6951"/><path d="m103.454 347.368c3.21 3.21 7.63 5.19 12.52 5.19h-49.7c-4.89 0-9.32-1.98-12.52-5.19-3.21-3.2-5.19-7.62-5.19-12.51 0-9.78 7.93-17.71 17.71-17.71h49.7c-9.78 0-17.7 7.93-17.7 17.71 0 4.89 1.98 9.31 5.18 12.51z" fill="#934e3c"/><path d="m237.61 200.61v63.48c0 9.8-7.94 17.74-17.74 17.74h-86c-9.8 0-17.74-7.94-17.74-17.74v-63.48c0-2.19.4-4.28 1.12-6.21 2.51-6.74 9.01-11.53 16.62-11.53h86c7.33 0 13.63 4.45 16.33 10.79.91 2.14 1.41 4.48 1.41 6.95z" fill="#aa6951"/><path d="m133.87 182.87h10.89c-5.87 7.12-14.76 11.66-24.71 11.66-.94 0-1.88-.04-2.8-.13 2.51-6.74 9.01-11.53 16.62-11.53z" fill="#934e3c"/><path d="m149.72 182.87h49.43c-5.88 7.12-14.76 11.66-24.72 11.66-9.95 0-18.84-4.54-24.71-11.66z" fill="#934e3c"/><path d="m236.2 193.66c-2.37.57-4.85.87-7.39.87-9.95 0-18.83-4.54-24.7-11.66h15.76c7.33 0 13.63 4.45 16.33 10.79z" fill="#934e3c"/><path d="m148.292 281.83h-14.42c-9.8 0-17.74-7.94-17.74-17.74v-63.48c0-9.8 7.94-17.74 17.74-17.74h14.42c-9.8 0-17.74 7.94-17.74 17.74v63.48c0 9.8 7.94 17.74 17.74 17.74z" fill="#934e3c"/><g fill="#333d3d"><path d="m192.659 225.262h16.246c4.806 0 8.702-3.896 8.702-8.702v-4.989c0-4.806-3.896-8.702-8.702-8.702h-16.246c-4.806 0-8.702 3.896-8.702 8.702v4.989c.001 4.806 3.897 8.702 8.702 8.702z"/><path d="m169.783 216.56v-4.989c0-4.806-3.896-8.702-8.702-8.702h-16.246c-4.806 0-8.702 3.896-8.702 8.702v4.989c0 4.806 3.896 8.702 8.702 8.702h16.246c4.806 0 8.702-3.896 8.702-8.702z"/><path d="m161.081 239.437h-16.246c-4.806 0-8.702 3.896-8.702 8.702v4.989c0 4.806 3.896 8.702 8.702 8.702h16.246c4.806 0 8.702-3.896 8.702-8.702v-4.989c0-4.806-3.896-8.702-8.702-8.702z"/><path d="m183.958 248.139v4.989c0 4.806 3.896 8.702 8.702 8.702h16.246c4.806 0 8.702-3.896 8.702-8.702v-4.989c0-4.806-3.896-8.702-8.702-8.702h-16.246c-4.806 0-8.702 3.896-8.702 8.702z"/></g><path d="m256 136.236c-2.761 0-5-2.239-5-5v-94.887c0-2.761 2.239-5 5-5s5 2.239 5 5v94.887c0 2.762-2.239 5-5 5z" fill="#934e3c"/></g></svg>