<svg id="Capa_1" enable-background="new 0 0 512 512" height="512" viewBox="0 0 512 512" width="512" xmlns="http://www.w3.org/2000/svg"><g><path d="m512 256c0 85.6-42.01 161.38-106.54 207.86-42.06 30.29-93.68-25.741-149.46-25.741-47.78 0-92.5 32.541-130.78 9.731-6.41-3.81-12.64 20.35-18.68 16.01-64.53-46.48-106.54-122.26-106.54-207.86 0-141.38 114.62-256 256-256s256 114.62 256 256z" fill="#b2e5f7"/><path d="m512 256c0 10.18-.59 20.22-1.75 30.09-1.77.38-3.61.58-5.49.58h-134.15c-7.32 0-13.95-2.97-18.75-7.76-4.79-4.79-7.76-11.42-7.76-18.74 0-14.64-11.87-26.51-26.5-26.51h-75.58c-7.32 0-13.95-2.96-18.74-7.76-4.8-4.8-7.77-11.42-7.77-18.74 0-14.64 11.87-26.51 26.51-26.51h31.12c7.32 0 13.95-2.97 18.74-7.76 4.8-4.79 7.77-11.42 7.77-18.74 0-14.64 11.86-26.51 26.5-26.51h125.85c7.32 0 13.94 2.97 18.74 7.76 4.8 4.8 7.76 11.43 7.76 18.75 0 14.64-11.86 26.5-26.5 26.5h-16.66c-14.64 0-26.51 11.87-26.51 26.51s11.87 26.5 26.51 26.5h69.42c2.18 0 4.31.26 6.34.77.6 7.11.9 14.31.9 21.57z" fill="#d0f5ff"/><path d="m141.43 389.94c0 10.18-.59 20.22-1.75 30.09-1.77.38-3.61.58-5.49.58h-74.24c-1.94-2.31-3.84-4.65-5.7-7.03-32.92-42.09-52.97-94.73-54.19-152h81.37c7.32 0 13.94 2.97 18.74 7.76 4.8 4.8 7.76 11.43 7.76 18.75 0 14.64-11.86 26.5-26.5 26.5h-16.66c-14.64 0-26.51 11.87-26.51 26.51s11.87 26.5 26.51 26.5h69.42c2.18 0 4.31.26 6.34.77.6 7.11.9 14.31.9 21.57z" fill="#d0f5ff"/><path d="m266.42 111.04c0 7.32-2.96 13.95-7.76 18.74-4.8 4.8-11.42 7.77-18.74 7.77h-75.58c-14.64 0-26.5 11.87-26.5 26.5 0 7.32-2.97 13.95-7.76 18.75-4.8 4.79-11.43 7.76-18.75 7.76h-102.88c4.89-18.58 11.83-36.34 20.55-53.01h17.6c14.64 0 26.5-11.87 26.5-26.51 0-9.01-4.5-16.97-11.37-21.75 19.97-23.26 44.04-42.89 71.1-57.76h22.95c14.64 0 26.51 11.86 26.51 26.5 0 7.32 2.97 13.95 7.77 18.75 4.79 4.79 11.42 7.76 18.74 7.76h31.12c14.64 0 26.5 11.87 26.5 26.5z" fill="#d0f5ff"/><path d="m193.776 87.531h124.448v150.548h-124.448z" fill="#e0e0e0"/><path d="m193.776 87.531h26.414v150.548h-26.414z" fill="#d1d1d1"/><path d="m156.998 159.834h198.004v239.529h-198.004z" fill="#e0e0e0"/><g><g fill="#598f98"><path d="m216.087 236.703v-42.343c0-4.689-3.801-8.491-8.491-8.491h-22.849c-4.69 0-8.491 3.802-8.491 8.491v42.343c0 4.649 3.769 8.418 8.418 8.418h22.995c4.649 0 8.418-3.769 8.418-8.418z"/><path d="m275.919 194.358v42.35c0 4.641-3.769 8.41-8.421 8.41h-22.995c-1.501 0-2.917-.394-4.141-1.097-2.555-1.437-4.28-4.173-4.28-7.313v-42.35c0-4.684 3.801-8.485 8.495-8.485h22.846c.926 0 1.81.149 2.64.415 2.587.841 4.631 2.906 5.462 5.504.255.81.394 1.672.394 2.566z"/><path d="m335.744 236.703v-42.343c0-4.689-3.801-8.491-8.491-8.491h-22.849c-4.69 0-8.491 3.802-8.491 8.491v42.343c0 4.649 3.769 8.418 8.418 8.418h22.995c4.649 0 8.418-3.769 8.418-8.418z"/></g><path d="m270.063 186.289-33.982 29.074v-15.83l15.969-13.659h15.373c.926 0 1.81.148 2.64.415z" fill="#6aa2b2"/><path d="m275.919 194.358v19.258l-35.557 30.405c-2.555-1.437-4.28-4.173-4.28-7.313v-11.178l39.443-33.737c.255.809.394 1.671.394 2.565z" fill="#6aa2b2"/></g><path d="m405.46 241.45v222.41c-7.3 5.26-14.89 10.14-22.74 14.62-6.419 3.664-17.665-5.489-24.415-2.38-8.413 3.875-12.417 19.853-21.295 22.81-25.46 8.49-52.7 13.09-81.01 13.09s-55.55-4.6-81.01-13.08c-8.82-2.944-14.333-22.923-22.695-26.768-6.807-3.13-16.544 10.021-23.015 6.328-7.85-4.48-15.44-9.36-22.74-14.62v-222.41z" fill="#ededed"/><path d="m125.22 241.45v234.65c-6.41-3.81-12.64-7.9-18.68-12.24v-222.41z" fill="#e0e0e0"/><g fill="#c9535d"><path d="m135.199 205.768c-6.434 0-11.65 5.216-11.65 11.65v24.791h23.299v-24.791c.001-6.434-5.215-11.65-11.649-11.65z"/><path d="m183.52 205.768c-6.434 0-11.65 5.216-11.65 11.65v24.791h23.299v-24.791c0-6.434-5.216-11.65-11.649-11.65z"/><path d="m231.84 205.768c-6.434 0-11.65 5.216-11.65 11.65v24.791h23.299v-24.791c0-6.434-5.215-11.65-11.649-11.65z"/><path d="m280.16 205.768c-6.434 0-11.65 5.216-11.65 11.65v24.791h23.299v-24.791c.001-6.434-5.215-11.65-11.649-11.65z"/><path d="m328.481 205.768c-6.434 0-11.65 5.216-11.65 11.65v24.791h23.299v-24.791c0-6.434-5.216-11.65-11.649-11.65z"/><path d="m376.801 205.768c-6.434 0-11.65 5.216-11.65 11.65v24.791h23.299v-24.791c0-6.434-5.215-11.65-11.649-11.65z"/></g><g fill="#fff"><path d="m183.52 123.609c-6.434 0-11.65 5.216-11.65 11.65v24.791h23.299v-24.791c0-6.435-5.216-11.65-11.649-11.65z"/><path d="m231.84 123.609c-6.434 0-11.65 5.216-11.65 11.65v24.791h23.299v-24.791c0-6.435-5.215-11.65-11.649-11.65z"/><path d="m280.16 123.609c-6.434 0-11.65 5.216-11.65 11.65v24.791h23.299v-24.791c.001-6.435-5.215-11.65-11.649-11.65z"/><path d="m328.481 123.609c-6.434 0-11.65 5.216-11.65 11.65v24.791h23.299v-24.791c0-6.435-5.216-11.65-11.649-11.65z"/></g><path d="m405.459 252.093h-298.918c-5.88 0-10.646-4.766-10.646-10.646s4.766-10.646 10.646-10.646h298.918c5.879 0 10.646 4.766 10.646 10.646s-4.767 10.646-10.646 10.646z" fill="#d1d1d1"/><path d="m256 98.18c-5.88 0-10.646-4.766-10.646-10.646v-75.826c0-5.88 4.766-10.646 10.646-10.646 5.879 0 10.646 4.766 10.646 10.646v75.826c0 5.88-4.767 10.646-10.646 10.646z" fill="#ededed"/><path d="m260.386 97.237c-1.331.607-2.821.948-4.386.948-5.877 0-10.646-4.769-10.646-10.646v-75.831c0-5.877 4.769-10.646 10.646-10.646 1.565 0 3.055.34 4.386.948-3.683 1.671-6.249 5.386-6.249 9.698v75.831c0 4.311 2.566 8.027 6.249 9.698z" fill="#e0e0e0"/><path d="m355.002 170.48h-198.004c-5.88 0-10.646-4.766-10.646-10.646s4.766-10.646 10.646-10.646h198.004c5.879 0 10.646 4.766 10.646 10.646s-4.767 10.646-10.646 10.646z" fill="#d1d1d1"/><path d="m318.224 98.177h-124.448c-5.88 0-10.646-4.766-10.646-10.646s4.766-10.646 10.646-10.646h124.448c5.879 0 10.646 4.766 10.646 10.646s-4.767 10.646-10.646 10.646z" fill="#d1d1d1"/><path d="m229.578 98.188h-35.792c-5.887 0-10.657-4.769-10.657-10.657 0-5.877 4.769-10.646 10.657-10.646h35.792c-5.887 0-10.657 4.769-10.657 10.646 0 5.888 4.77 10.657 10.657 10.657z" fill="#bfbfbf"/><path d="m192.8 170.491h-35.792c-5.887 0-10.657-4.769-10.657-10.657 0-5.877 4.769-10.646 10.657-10.646h35.792c-5.887 0-10.657 4.769-10.657 10.646.001 5.887 4.77 10.657 10.657 10.657z" fill="#bfbfbf"/><path d="m142.343 252.104h-35.792c-5.887 0-10.657-4.769-10.657-10.657 0-5.877 4.769-10.646 10.657-10.646h35.792c-5.887 0-10.657 4.769-10.657 10.646.001 5.888 4.77 10.657 10.657 10.657z" fill="#bfbfbf"/><g fill="#598f98"><g><path d="m175.31 447.85v48.61c0 .85-.11 1.67-.32 2.46-16-5.34-31.29-12.21-45.71-20.44v-30.63c0-5.37 4.36-9.73 9.73-9.73h26.57c5.38 0 9.73 4.36 9.73 9.73z"/><path d="m175.314 280.75v48.929c0 5.376-4.354 9.73-9.73 9.73h-26.572c-.532 0-1.065-.043-1.565-.128-4.631-.745-8.165-4.758-8.165-9.602v-48.929c0-5.419 4.397-9.805 9.816-9.805h26.402c2.385 0 4.557.841 6.26 2.257 2.17 1.789 3.554 4.504 3.554 7.548z"/><path d="m129.285 364.462v48.607c0 5.372 4.355 9.727 9.727 9.727h26.572c5.372 0 9.727-4.355 9.727-9.727v-48.607c0-5.372-4.355-9.727-9.727-9.727h-26.572c-5.372 0-9.727 4.355-9.727 9.727z"/></g><path d="m244.449 447.85v48.609c0 5.366-4.354 9.72-9.73 9.72h-26.572c-4.791 0-8.772-3.46-9.571-8.006-.107-.553-.16-1.128-.16-1.714v-48.609c0-5.377 4.354-9.731 9.731-9.731h26.572c4.886 0 8.932 3.598 9.624 8.293.074.469.106.947.106 1.438z"/><path d="m244.446 329.682v-48.93c0-5.419-4.393-9.812-9.812-9.812h-26.403c-5.419 0-9.812 4.393-9.812 9.812v48.93c0 5.372 4.355 9.727 9.727 9.727h26.572c5.373 0 9.728-4.355 9.728-9.727z"/><path d="m198.419 364.462v48.607c0 5.372 4.355 9.727 9.727 9.727h26.572c5.372 0 9.727-4.355 9.727-9.727v-48.607c0-5.372-4.355-9.727-9.727-9.727h-26.572c-5.371 0-9.727 4.355-9.727 9.727z"/><path d="m267.554 447.849v48.607c0 5.372 4.355 9.727 9.727 9.727h26.572c5.372 0 9.727-4.355 9.727-9.727v-48.607c0-5.372-4.355-9.727-9.727-9.727h-26.572c-5.372 0-9.727 4.355-9.727 9.727z"/><path d="m313.581 329.682v-48.93c0-5.419-4.393-9.812-9.812-9.812h-26.403c-5.419 0-9.812 4.393-9.812 9.812v48.93c0 5.372 4.355 9.727 9.727 9.727h26.572c5.372 0 9.728-4.355 9.728-9.727z"/><path d="m313.584 364.46v48.609c0 5.376-4.354 9.731-9.731 9.731h-26.572c-5.376 0-9.73-4.354-9.73-9.731v-48.609c0-5.366 4.354-9.72 9.73-9.72h26.572c3.109 0 5.877 1.459 7.655 3.726 1.299 1.65 2.076 3.726 2.076 5.994z"/><path d="m382.72 447.85v30.63c-14.42 8.23-29.71 15.1-45.71 20.43-.15-.57-.25-1.16-.29-1.76-.02-.22-.03-.46-.03-.69v-48.61c0-5.38 4.35-9.73 9.73-9.73h26.57c4.86 0 8.89 3.57 9.61 8.23.08.49.12.99.12 1.5z"/><path d="m382.715 329.682v-48.93c0-5.419-4.393-9.812-9.812-9.812h-26.403c-5.419 0-9.812 4.393-9.812 9.812v48.93c0 5.372 4.355 9.727 9.727 9.727h26.572c5.373 0 9.728-4.355 9.728-9.727z"/><path d="m336.689 364.462v48.607c0 5.372 4.355 9.727 9.727 9.727h26.572c5.372 0 9.727-4.355 9.727-9.727v-48.607c0-5.372-4.355-9.727-9.727-9.727h-26.572c-5.372 0-9.727 4.355-9.727 9.727z"/></g><g fill="#6aa2b2"><path d="m171.759 273.202-42.477 36.324v-17.97l24.092-20.611h12.126c2.383 0 4.555.841 6.259 2.257z"/><path d="m175.314 281.709v25.178l-37.868 32.395c-4.631-.745-8.165-4.758-8.165-9.602v-8.592z"/><path d="m311.508 358.466-43.957 37.591v-17.981l27.286-23.336h9.017c3.108 0 5.876 1.458 7.654 3.726z"/><path d="m313.584 368.239v25.167l-34.354 29.393h-1.948c-5.376 0-9.73-4.354-9.73-9.731v-5.45z"/><path d="m244.343 446.412-45.927 39.283v-17.97l34.61-29.606h1.693c4.886 0 8.932 3.598 9.624 8.293z"/><path d="m244.449 458.943v24.613l-26.455 22.623h-9.848c-4.791 0-8.772-3.46-9.571-8.006z"/><path d="m382.602 446.348-45.916 39.273v-17.981l34.514-29.521h1.789c4.865 0 8.889 3.566 9.613 8.229z"/><path d="m382.72 457.8v20.68c-14.42 8.23-29.71 15.1-45.71 20.43-.15-.57-.25-1.16-.29-1.76z"/></g></g></svg>