<svg id="Capa_1" enable-background="new 0 0 512 512" height="512" viewBox="0 0 512 512" width="512" xmlns="http://www.w3.org/2000/svg"><g><path d="m18.45 351.59c-11.9-29.53-18.45-61.8-18.45-95.59 0-63.15 22.87-120.96 60.77-165.6 4.84-5.7 9.93-11.19 15.24-16.44 10.89-10.77 22.75-20.57 35.43-29.26 21.27-14.59 44.87-26.04 70.11-33.7 23.56-7.15 48.55-11 74.45-11s50.89 3.85 74.45 11c25.24 7.66 48.83 19.11 70.1 33.7 18.87 12.92 35.91 28.31 50.68 45.71 17.62 20.75 31.99 44.34 42.32 70 11.9 29.53 18.45 61.8 18.45 95.59 0 63.15-22.87 120.96-60.77 165.6" fill="#6aa2b2"/><path d="m451.23 44.7v376.9c-4.84 5.7-9.93 11.19-15.24 16.44-15.42 15.25-51.054 28.55-69.934 39.51h-197.466c-59.547 0-107.82-48.272-107.82-107.82v-325.03z" fill="#b2e5f7"/><g fill="#d0f5ff"><path d="m218.99 28.818h21.082v263.058h-21.082z" transform="matrix(.897 .443 -.443 .897 94.725 -85.057)"/><path d="m255.476 48.542h21.082v235.931h-21.082z" transform="matrix(.897 .443 -.443 .897 101.225 -100.576)"/></g><g fill="#d0f5ff"><path d="m428.484 249.496-18.903-9.335-81.683 165.407-15.891 79.793z"/><path d="m386.739 250.956h21.082v235.931h-21.082z" transform="matrix(.897 .443 -.443 .897 204.419 -137.773)"/></g><path d="m158.488 56.65h25.608v410.825h-25.608z" fill="#a2dae8"/><path d="m315.094 56.65h25.608v410.825h-25.608z" fill="#a2dae8"/><path d="m493.55 38.06v214.57c0 19.24-15.61 34.85-34.86 34.85h-350.22c-14.94 0-27.06 12.11-27.06 27.06v96.44c0 14.95 12.12 27.06 27.06 27.06h327.52c-15.42 15.25-32.77 28.55-51.65 39.51-11.78 6.84-24.17 12.77-37.05 17.68-5.52 2.12-11.14 4.04-16.84 5.77h-148.9c-5.7-1.73-11.31-3.65-16.84-5.77-12.88-4.91-25.26-10.84-37.04-17.68-25.39-14.73-48.01-33.71-66.9-55.96-17.62-20.75-31.99-44.34-42.32-70v-100c0-14.95 12.12-27.07 27.07-27.07h358.01c14.94 0 27.06-12.11 27.06-27.06v-96.44c0-14.95-12.12-27.06-27.06-27.06h-358.01c-14.95 0-27.07-12.12-27.07-27.07v-8.83c0-14.94 12.12-27.06 27.07-27.06h420.96c14.95 0 27.07 12.12 27.07 27.06z" fill="#ededed"/><g fill="#e0e0e0"><path d="m45.518 73.955h28.374c-14.947 0-27.064-12.117-27.064-27.064v-8.827c-.001-14.947 12.116-27.064 27.063-27.064h-28.373c-14.948 0-27.065 12.117-27.065 27.064v8.827c0 14.948 12.117 27.064 27.065 27.064z"/><path d="m430.591 101.02v96.438c0 14.947-12.117 27.064-27.064 27.064h28.374c14.947 0 27.064-12.117 27.064-27.064v-96.438c0-14.947-12.117-27.064-27.064-27.064h-28.374c14.947-.001 27.064 12.116 27.064 27.064z"/><path d="m73.89 224.52c-14.95 0-27.06 12.12-27.06 27.07v152.04c-11.36-16.08-20.92-33.52-28.38-52.04v-100c0-14.95 12.12-27.07 27.07-27.07z"/></g><g><path d="m268.12 511.71c-4.02.2-8.06.29-12.12.29-4.07 0-8.11-.09-12.13-.28-4.37-.2-8.72-.52-13.03-.95-16.97-1.65-33.45-4.96-49.29-9.77-5.7-1.73-11.31-3.65-16.84-5.77-6.6-14-4.36-31.45 7.53-43.34 16.9-16.9 44.98-14.31 58.5 5.39z" fill="#78b57f"/><path d="m293.56 444.01-12.41 66.77c-8.27.81-16.66 1.22-25.15 1.22-4.07 0-8.11-.09-12.13-.28-4.37-.2-8.72-.52-13.03-.95l-12.4-66.76c-4.36-23.49 13.67-45.18 37.56-45.18s41.92 21.69 37.56 45.18z" fill="#97d6a8"/><path d="m347.29 495.23c-5.52 2.12-11.14 4.04-16.84 5.77-23.56 7.15-48.55 11-74.45 11-4.07 0-8.11-.09-12.13-.28l37.39-54.44c13.52-19.7 41.6-22.29 58.5-5.39 11.89 11.89 14.13 29.34 7.53 43.34z" fill="#78b57f"/></g></g></svg>