<svg id="Capa_1" enable-background="new 0 0 512 512" height="512" viewBox="0 0 512 512" width="512" xmlns="http://www.w3.org/2000/svg"><g><path d="m469.457 256c0 141.38-72.077 229.469-213.457 229.469s-216.639-88.089-216.639-229.469c0-3.2-39.301-6.39-39.181-9.57 1.11-30.14 7.43-58.94 18.09-85.55-.01 0 0-.01 0-.01 23.66-59.08 68.71-107.3 125.58-135.06 33.87-16.53 71.93-25.81 112.15-25.81 59.29 0 113.87 20.15 157.26 53.99 47.98 37.4 82.29 91.53 94.16 153.61 2.42 12.64 3.91 25.61 4.4 38.83.12 3.18-42.363 6.37-42.363 9.57z" fill="#b2e5f7"/><path d="m507.42 207.6h-33.66c-7.32 0-13.94-2.97-18.74-7.76-4.8-4.8-7.76-11.42-7.76-18.74 0-14.64-11.87-26.51-26.51-26.51h-75.57c-7.32 0-13.95-2.97-18.74-7.76-4.8-4.8-7.77-11.43-7.77-18.74 0-14.64 11.87-26.51 26.51-26.51h31.12c7.32 0 13.94-2.97 18.74-7.76 4.8-4.8 7.76-11.43 7.76-18.75 0-8.6 4.1-16.25 10.46-21.08 47.98 37.4 82.29 91.53 94.16 153.61z" fill="#d0f5ff"/><path d="m202.06 147.93c0 14.64-11.86 26.51-26.5 26.51h-134.16c-7.32 0-13.95-2.97-18.74-7.76-1.72-1.72-3.2-3.67-4.39-5.8-.01 0 0-.01 0-.01 23.66-59.08 68.71-107.3 125.58-135.06 3.42 4.46 5.45 10.05 5.45 16.1 0 14.64-11.87 26.5-26.51 26.5h-16.66c-14.64 0-26.5 11.87-26.5 26.51s11.86 26.51 26.5 26.51h69.43c7.32 0 13.94 2.97 18.74 7.76s7.76 11.42 7.76 18.74z" fill="#d0f5ff"/><path d="m343.826 103.691c-1.91 0-3.733-1.1-4.565-2.956l-7.267-16.208c-1.13-2.52-.003-5.478 2.517-6.608 2.523-1.13 5.479-.002 6.608 2.517l5.221 11.645 11.646-5.221c2.52-1.13 5.478-.002 6.607 2.517 1.13 2.52.003 5.478-2.518 6.608l-16.208 7.266c-.663.299-1.357.44-2.041.44z" fill="#97d6a8"/><path d="m380.149 128.711c-1.87-.39-3.43-1.84-3.865-3.827l-3.801-17.351c-.591-2.697 1.117-5.363 3.814-5.954 2.701-.59 5.363 1.118 5.954 3.815l2.73 12.466 12.468-2.73c2.697-.592 5.362 1.117 5.953 3.814.591 2.698-1.117 5.363-3.815 5.954l-17.351 3.8c-.709.157-1.417.153-2.087.013z" fill="#97d6a8"/><path d="m512 256c0 110.89-70.51 205.32-169.15 240.88-27.12 9.79-56.36-11.411-86.85-11.411s-59.73 21.201-86.85 11.421c-62.24-22.45-113.29-68.33-142.49-127.01-17.06-34.3-26.66-72.97-26.66-113.88 0-3.2.06-6.39.18-9.57 37.62-2.87 70.84-26.23 86.45-61.06 28.83-64.31 93.21-109.21 168.14-109.69.41-.01.82-.01 1.23-.01 75.45 0 140.38 45.04 169.37 109.7 15.61 34.83 48.83 58.19 86.45 61.06.12 3.18.18 6.37.18 9.57z" fill="#97d6a8"/><path d="m254.77 75.68c-103.05 2.05-13.35 261.52-192.37 289.38-12.62 1.96-24.52 3.56-35.74 4.82-17.06-34.3-26.66-72.97-26.66-113.88 0-3.2.06-6.39.18-9.57 37.62-2.87 70.84-26.23 86.45-61.06 28.83-64.31 93.21-109.21 168.14-109.69z" fill="#78b57f"/><path d="m256 196.439c-29.549 0-53.502 23.954-53.502 53.502v119.939h107.005v-119.939c-.001-29.548-23.954-53.502-53.503-53.502z" fill="#aa6951"/><path d="m217.498 361.135v-111.194c0-21.23 17.271-38.502 38.502-38.502s38.502 17.272 38.502 38.502v111.193h-77.004z" fill="#934e3c"/><path d="m342.85 496.88c-27.12 9.79-56.36 15.12-86.85 15.12s-59.73-5.33-86.85-15.11l33.35-144.85h107z" fill="#ededed"/><path d="m276.54 274.242h-41.08c-3.108 0-5.627-2.519-5.627-5.627v-13.183c0-3.108 2.519-5.627 5.627-5.627h41.081c3.108 0 5.627 2.519 5.627 5.627v13.183c-.001 3.107-2.52 5.627-5.628 5.627z" fill="#f4d84f"/><path d="m244.073 274.242h-8.61c-3.11 0-5.63-2.521-5.63-5.63v-13.18c0-3.11 2.52-5.63 5.63-5.63h8.61c-3.11 0-5.63 2.52-5.63 5.63v13.18c0 3.109 2.52 5.63 5.63 5.63z" fill="#efc24d"/><circle cx="280.1" cy="295.954" fill="#333d3d" r="7.771"/><g fill="#78b57f"><path d="m412.999 392.144c-1.279 0-2.56-.488-3.535-1.464l-12.56-12.56c-1.953-1.953-1.953-5.119 0-7.071 1.951-1.952 5.119-1.952 7.07 0l9.024 9.024 9.024-9.024c1.951-1.952 5.119-1.952 7.07 0 1.953 1.953 1.953 5.119 0 7.071l-12.56 12.56c-.973.975-2.254 1.464-3.533 1.464z"/><path d="m342.851 473.838c-1.326 0-2.598-.527-3.535-1.464l-12.561-12.56c-1.953-1.953-1.953-5.119 0-7.071 1.951-1.952 5.119-1.952 7.07 0l9.025 9.024 9.024-9.024c1.951-1.952 5.119-1.952 7.07 0 1.953 1.953 1.953 5.119 0 7.071l-12.56 12.56c-.936.938-2.207 1.464-3.533 1.464z"/><path d="m183.36 422.465c-1.326 0-2.598-.527-3.535-1.464l-12.56-12.56c-1.953-1.953-1.953-5.119 0-7.071 1.951-1.952 5.119-1.952 7.07 0l9.024 9.024 9.024-9.024c1.951-1.952 5.119-1.952 7.07 0 1.953 1.953 1.953 5.119 0 7.071l-12.56 12.56c-.935.937-2.206 1.464-3.533 1.464z"/><path d="m442.813 369.604c-1.326 0-2.598-.527-3.535-1.464l-12.56-12.56c-1.953-1.953-1.953-5.119 0-7.071 1.951-1.952 5.119-1.952 7.07 0l9.024 9.024 9.024-9.024c1.951-1.952 5.119-1.952 7.07 0 1.953 1.953 1.953 5.119 0 7.071l-12.56 12.56c-.935.937-2.206 1.464-3.533 1.464z"/><path d="m127.385 416.186c-1.326 0-2.598-.527-3.535-1.464l-12.56-12.56c-1.953-1.953-1.953-5.119 0-7.071 1.951-1.952 5.119-1.952 7.07 0l9.024 9.024 9.024-9.024c1.951-1.952 5.119-1.952 7.07 0 1.953 1.953 1.953 5.119 0 7.071l-12.56 12.56c-.936.937-2.207 1.464-3.533 1.464z"/><path d="m344.369 215.81c-1.828 0-3.589-1.005-4.468-2.749l-8.001-15.858c-1.244-2.466-.254-5.473 2.212-6.716 2.464-1.246 5.473-.254 6.716 2.211l5.749 11.395 11.395-5.748c2.464-1.247 5.473-.254 6.716 2.212 1.244 2.465.254 5.472-2.212 6.716l-15.858 8c-.722.364-1.492.537-2.249.537z"/><path d="m164.985 108.033c-.366 0-.736-.04-1.108-.124l-17.324-3.919c-2.693-.609-4.383-3.287-3.773-5.98.61-2.694 3.289-4.378 5.98-3.773l12.447 2.816 2.816-12.448c.61-2.694 3.29-4.38 5.98-3.773 2.693.61 4.383 3.287 3.773 5.98l-3.92 17.325c-.524 2.32-2.586 3.896-4.871 3.896z"/><path d="m43.53 240.948c-.366 0-.736-.04-1.108-.124l-17.324-3.919c-2.693-.609-4.383-3.287-3.773-5.98.61-2.694 3.289-4.381 5.98-3.773l12.447 2.816 2.816-12.448c.61-2.693 3.298-4.38 5.98-3.773 2.693.61 4.383 3.287 3.773 5.98l-3.92 17.324c-.524 2.321-2.587 3.897-4.871 3.897z"/></g><path d="m232.904 387.143h-17.89c-3.468 0-6.28-2.812-6.28-6.28 0-3.468 2.812-6.28 6.28-6.28h17.89c3.468 0 6.28 2.812 6.28 6.28 0 3.469-2.812 6.28-6.28 6.28z" fill="#e0e0e0"/><path d="m260.816 404.906h-17.89c-3.468 0-6.28-2.812-6.28-6.28 0-3.468 2.812-6.28 6.28-6.28h17.89c3.468 0 6.28 2.812 6.28 6.28 0 3.468-2.812 6.28-6.28 6.28z" fill="#e0e0e0"/><path d="m228.439 471.634h-25.854c-5.012 0-9.075-4.063-9.075-9.075 0-5.012 4.063-9.075 9.075-9.075h25.854c5.012 0 9.075 4.063 9.075 9.075 0 5.012-4.063 9.075-9.075 9.075z" fill="#e0e0e0"/><path d="m267.697 494.545h-25.854c-5.012 0-9.075-4.063-9.075-9.075 0-5.012 4.063-9.075 9.075-9.075h25.854c5.012 0 9.075 4.063 9.075 9.075 0 5.011-4.063 9.075-9.075 9.075z" fill="#e0e0e0"/><path d="m311.117 453.483h-22.777c-4.416 0-7.996-3.58-7.996-7.996 0-4.416 3.58-7.996 7.996-7.996h22.777c4.416 0 7.996 3.58 7.996 7.996 0 4.416-3.58 7.996-7.996 7.996z" fill="#e0e0e0"/></g></svg>